<mxfile host="Electron" modified="2025-01-27T11:00:29.912Z" agent="Mozilla/5.0 (Windows NT 10.0; Win64; x64) AppleWebKit/537.36 (KHTML, like Gecko) draw.io/22.1.2 Chrome/114.0.5735.289 Electron/25.9.4 Safari/537.36" etag="WUYKeA4c1h2EVaEYcR91" version="22.1.2" type="device">
  <diagram name="Страница — 1" id="dbWd9UdCxwgJcIZThBHJ">
    <mxGraphModel dx="3658" dy="1580" grid="1" gridSize="10" guides="1" tooltips="1" connect="1" arrows="1" fold="1" page="0" pageScale="1" pageWidth="827" pageHeight="1169" math="0" shadow="0">
      <root>
        <mxCell id="0" />
        <mxCell id="1" parent="0" />
        <mxCell id="9iRGJWElinjqTf8RZtp3-50" value="" style="shape=image;verticalLabelPosition=bottom;labelBackgroundColor=default;verticalAlign=top;aspect=fixed;imageAspect=0;image=data:image/png,iVBORw0KGgoAAAANSUhEUgAAAQsAAAdICAYAAAAkSe6qAAAgAElEQVR4nOzdf2xb933v/2fdOt2Ner1EQiw7/aqJKHc37DJrW3khNDA6Etcgbu+4GRQGqPN3W7Hyq8EKJvbbiVmzBNoOpm+9rpFagBqioAJ7sYsLt/zjitDt2Q0gYBOH+WYTxnag15VFa5NNvSWRe62b6Y7eljTu949zSB7+PpQpmrRfD8CAyfNTlPjm5/M5PK/Pu97zkV/7ESIibRy52ycgIoNBxUJEXFGxEBFXVCxExJXuFotfnOe7/+0zfPr/6upee+ST/O0rf8CX7vZpiPSp7haL//5VXrz+fn5/bVALhog00+VuyA/44v+7xO9eez+//0e/pYIhcg85hDELu2B853Ge67hgfIytrT/mb593PPXxz/CDrc/waeDTf7TG26/8sfXvK5+srPP8H1Sed3QlqtZ/ZY2tj1cf7Utf+ePy8qpjlo7bYJ8i96tDGuD8AV/87SUufudxnvujeT7teruXefk7t3jiyUoh+PSZx+E7V/ji83/A53/ie/z2U5/g6FOf4Ogvf9la4fk/4O2fh/9sP//b33iz/Pznf/bN8vNH49/jZ6LVheTX+XNr2VOf4C+f/DmeKB/1k/xt9HH+Jm5v+yfw63bBErlfHfrVkB9799GO1v/i5e/x5sgj9hvzY3zsJ+BvLr8M197kzfc9hLdm/S89+Sjf/pPf4TdK2//mH/IbfIytn6t+nq/+IalXH+UjzwN8kk/+LGxvfrm8n9/45T/n2/b/P/1H/54nXv1rgl+1n/jsd/l2g2OL3E/eczi7fYRPf36R33/yH/jd3/gCX+xk069e4W8++Yt87OPwxYmPErj51xz9KsAf8siE1d34dV7jPz/1O/wGH+PxkVu8fq3Rjuqfz928Rfjkx+xHb/K9r9ZtVPHYz/H2Kz9Xvb+PA622EbmHHUKxcBaKP+SLf9/p9i/z8nd+kefOfIwvjTzKt7/5O5VFn/0djn4Wq+ux9RlywSvAg5ycaLSf+ue9Iw/yxjdfBj4JPMTjzjf/xx/hhGPdN7/xVR75zZc7PXmRe1aXuyEHLBQf/ww/cAwifvHy9+AnPspHRl7jLz/bYP1yl8Qe4/h551jEZ/hSg+f5+GcIP1ba35f5y1cfJHCuMjbypXMf4iHn8X/2F+sGREXuZ91tWfzir/Jb3oO2KBy+eoW/+eTHCdz8c36q9Nzzf8DbP/+o/eAW2/E5azziN+fgj9b4/Ct/zK8D/NO3+G3gi7XPl7sult/45a/y+NbHy12Nb//Jn/Ptxz5oH9/u8kT/mLej9gav/nllUFXkPvQu3aIuIm7o3hARcUXFQkRcUbEQEVdULETElXfx7Dc1wCkibb3rxIkTKhYi0pa6ISLiioqFiLiiYiEirqhYiIgrKhYi4so9Uiz8GJeSGIG7fR4i965DCr/pnH8xSWxqyH6UJxWKkrirZ2SJrJoEbywzs5S+26cicld1pWUxNPIwQ63X4OGRVmv48bNFKBQiFAqRKngIr0a6cWoi0iVdaFk8xae+8AwT31wj+sIWxbrlQwSff4k5T5YXIsu80nAfaQzHJ3fiSp7w6dKjCHEzyN7OLr4pD8Ud61Pe2RIp7qTIOfZmtQZS5LxhfMcAimRWZjC2K8vD4/bK+xmWzxuksVs3x3NkRnz4jt1gd/84o8eA8RimOU1qE8KBvfL6lWOp5SH3vi60LF7h4tNrXD89R/yZYE0LwyoUEU+WtWizQlEvctpD/oqzEzKE73iWUChkvSln48S8OZbtlsgaQbsoOLaYCsK6tTy0uYtvIY7VVokwScpuxSyTwcfcor+y4bjX3u6TRM6HSBWguLNMKBQlsZ4lf8yLvzw2EmFyPM+WCoXcB7ozwFncwrhQWzCGCD4TJ+LJkogus1Xf5Kg2G8c0TUzTZPJKiOh61QHIbJSKhx8j4CG/Xfl0Ty+tkdmvOaWdtXJLgvUNMvseJmcBEkTnS/tKk87VnFhhq7JdnQTZwhDDp0rnPImnkO2LsRWRw9a9Ac7iFsYFeO7FCPFnHiBFmF99IueuUACsRwnZBSKyamJeylQ192sOxt7VTk4uzfWbMYbtR9WDqVDccb+nxJU85ukIkLBbQNG224jcC7p76bS4xcWnE1x78gKRTgpFjcR8ivyxYRqGdgPg+HQHYILhY83WBfAzNmIVGGtcojKYurzT4Qmub5AZmSRid0Gy6+03EbkXdP97FsUtLn4iRDjSQaEIGBizlYf+xSCe/T0aTgdidx08AQO/c/2atYampomUl8/hI0d6GyaOD1G8UdqzH7+39XWcxscfZXJ1ktGdDXVB5L7RH9+z2L7O8IKJec5+vN+qCwLppRkmVk1ipkkM62pIZj9YtU5xZ49J08QErO9tWPtLz6eYNGOYZgwoki+0rmiJjQzBBftqiP3dj/TlHHMLXnIbGtiU+8c9mWdx6JczAwbJWVhrUdBE7jX90bIYMJFpH7vbIRUKua+oWHRiNo55zgOFVPnKjcj94p7shohI990jd52KyGFTsRARV7paLE6ePNnN3YlIH1HLQkRcUbEQEVdULETEFRULEXFFxUJEXBmQYhEhblbSuyOrJqYyOkV6aiC/7p2YD+nWcJEe60nL4s7Tv0XkbutBsXiKT33hyw3CfEusUN8vf36Op1zuMbJqkrRDdq3/RzAumXaGZ7wcekPAIHmpEpLjnIzIv5jEdCxT10aktR4Ui+6nf9dyJnm7nXMkvbRGBh/Ts0DAIDieJzWvzo1IM70Z4OxG+ner3TuSvBNX8jAy5mhNNJPGWM8wGjAwpn3sbvbHDGgi/ap3A5x3mv7t1tU9im7nPN022Jo2CaN8CpF2envptEvp310TMAiO5MmPhInPtl9d5H7W++9ZHCT9+6C2r7PrmEHMvzjnmLnMjzHrY3c7SnQ7X5UWLiL1BuRLWQeVYGMHfAvWlZI5tsozl0VWY/hupqyZz9ajpG76iOlqiEhTXY3VO3nyJK+//nq3dicifeQeb1mISLeoWIiIKyoWIuKKioWIuKJiISKu9LRYKP1bZHCpZSEirqhYiIgrKhYi4oqKhYi4omIhIq70V7GYirL2pecIdhzHWZ3+fegCBklnfF+P+BeTdxj9FyHu4rzv/DhyL+qvYrGTIPWql7kXD1IwROQw9VexoMjWZy+w9h0vkXhMBUOkj/ThvCFWweCZOJF4DDpJ0zplkFzwWRmf+xmWzxukS8sCjmXkSYWszE3/YpLY8S1ShAmPW8fPrMyUMz2tpnsYj/0ovxkietV+MBvHPGcvKaQI2YG/kVWT4I0Mu1M+a7tCitA8lf041q0+L3v/66XjBtnb2cU35aG4s8ya82e1t2NnmZmlNM1EVk3754L8Zqp6YZPXpPG2pfOynp+8UnnMbBzzdLb8M/kXk8SmrL0Wd1LkvEFYd76mMoj6rGVRUmTrhSiJb1stDHcJVkP4ArAWslO+q8JsIsQXvORWrGWhTQg7pwgYDzN5xVq2vAO+2dIyq1CwaW+3kmGvfDwP4dPZ8vPF8WDVmMnQ1DDZUIhQKEV+PIxpTlY9LsX4+c8MO84rj+ecc0xhCN9x6xjVBSFCfMHH7mbt89X8i0krX9R+TbKnK0Wvk9cktJJh9JzLMaHZODFvjmX7mGsEHelkMsj6tFg4vOcBlysWyaxXWhKJjQzF8UkigH8xiKewVflkW8+SPzbMRGnTQqr8KZm+nKNYWjY7icexjG0Doxzs65g6YDtNbn+I4VOOs9nZsD+lE2QL9Y9HT1hvy/RStPq8an+mjdrM8TGMS2FGd5Yr50WEuFmaN8W0C1GE6Smqtk/Mp8r77+Q1YdtgqzCE90y7su3HCHjIb1d+D+mltXI6mQy2PuyGQGmagLnT11m7cJHmn50tbF9nd2G48ng8jGmGHSsU2QvAtRbb+U+MUrxRt0YDaa7fjDHcfsUGqrs5kCfbavVxH779DMtVLYoE0VCjiQx2ud6q6e/2NQGu3XDbFyyyd7X9WjJ4+rBYOAuFcfBQ38AYo/t75T/8YpO+vf9Mm7M5PgEHK1cu2OMSKyGi26XHk603KaRIESa2GiHddlKkUcYCQKlgBMYYdSzt5DWZOD7E7hU3r4PdwioXqQmGj+Hovsmg6rNuyJ0UiiF806XevpXcTS5NGqtrwdRcx9/DSF/OUXSMLxAwMLo5ZUBgjFHnp//spKOF0VxifpnMSLjNdyESZAvO1wQi05WB1LaviXMMZjZOeDxP1u6WXLtRxHPaMR5UGuQlTTpXrEpK9y8GXf1M0v/6q2XxkTlmnjxoi6JI5sYkpmlaDwspQqVPzW2DmVNxzAUTc4HK8nafzNsGMxgkF0zMc/YxVjo9r9b7XzuTJGaahAEK+Zoxi2bSGOcniJthzEtj1Vd9HBLzy4xdipW7GvnNFPnxyfKxW74mhRzMlpZZV4hKr1Z6aYtps9SFyZPazOM5XVo2w8SqScw0iWFdDcnsBzt8YaQf9TTdW+nf9yOra5UNaXrIQddn3RC510RWw3gKWRWKe0B/dUNk4Dm/kAXYX45TqbgXqFhIV6WXZg7t2pHcXeqGiIgrKhYi4oqKhYi4omIhIq6oWIiIKyoWIuKKioWIuKJiISKu9FexULp3S4eZuq1Eb2mnv4qF0r1F+lZ/FQule4v0rT68N0Tp3t1K9646j9Lr0SbRu6TqhrCq7I/q18OZttVsm+b7kkHSZy2LEqV7l3+mO0j3rjqP8wbpdq9DSU1Cd4owyUV7rdnJqtejnLZVs025ILTalwyUPi0WDkr3rvk53aZ7156Hi9fBWqsuoTtxJW9nkQLrUcfrkSZXSu6+uld53dzuSwZKH3ZDQOneLXSU7t1oe3evg+dcKUrQtr+HH0jjx7gUc8wFUiQDlZg+0yRc071pvi8ZJH1YLJTu3VJH6d713L0OteM25bUwLsUY3g4RWi89nqssXo9az8/GMS8ZXDufbrEvGTR91g1Runf30r3ruXsd0qRzznEbpwmGjznmBQn48TaabazcJWm1Lxk0/dWyULp3V9O9Gx3PzetQm9ANpas0CaKbk5Xt9/PkS2MWzitDzjTwpvty9YNKH1G6t4i40mfdEBHpVyoWIuKKioWIuKJiISKuqFiIiCsqFiLiioqFiLiiYiEirqhYiIgrKhYi4oqKhYi40l/F4sDp3gNgNu7qLlGlbEu/6q+7TncSpM6+xNyLz8HTFw9w52ltkAzWXZVXJh13RDo1z6BsKmCQXBhmq9PtRAZcfxWLUljv8y91HtZrB9HubpaCWQD8GKt+/KVQFkohts1DbkWksT4rFnCwdO9KEG11IlMaY759UYismnayd5u0akcLJWyaBFska1e3cvKkNmsWt0nZdp6TM/8hsmoyecWRBzEbxzydbZikXdxJkfMGYV1JVXLn+mvMoqzDdO/ZSTz7OdIHeEP4F5OESVmJ1KFlct6YlYzVKK16PWoleZMnVZe4XbVXjEuOVPBQlsmqbpD7tPHQSobRcy5nW6s55zWCjqxMkTvTp8XCwW26983rjrQoZ9p1q2kGI0xP4UjQTpPOFa3k7YZp1Q0EDJLlY9lv6tlpfGTYKHeHEkQ3KxlYnaSNs22wVRjCe6ZdyaxP0k4vrZHZb7mRiGt92A2BA6V7j4w5EqNLadcuAnAZwueMmQMoTLRMq66ybTBT26I5RU3xasBt2jhw7YbbgRtHPqZIl/VhsThAaO96lvy5IP4AB+iKtCgEdWnVLrMuoaZ4WdMKOHWSNj5xfIjdK26ObM9dUn4NJhg+hmNiJJGD67NuyEHTvRNs7IBvodOZ1BNkCx7C7b7X4LZLUrKeJX/Mx3Q5CTzC9FTlyyNtU7ads5vNxgmP58na3ZJrN4p4TjtmWiuPhVhdKE+gMvbhXwy6SgsXcaO/Ans/EiNx4X0knz7gfCE184ZCfZJ0/aXTBpPmrMxgnKpPqy6NMZSuVDRrHdSfi3U1JOy4alGdhk05ZduaezVHZsRnn1OruVfr91t9ZUdXQ6R7+qtYSJdZYzZZfYFMuqDPuiHSTZHVMJ5CVoVCuqIPBzjloKq+RAawn2H5vEqFdIeKxT0kvTSjyYbl0KgbIiKuqFiIiCsqFiLiioqFiLiiYiEirqhYiIgrKhYi4oqKhYi40l/F4l5O925Bid4yCPrrG5xK9xbpW/1VLJTuLdK3+qxYwL2R7h0hbgbZ29nFN+Up77Nuf/ON2yZN16vJ63BmdTTbxu0xRdrprzGLskFP9wYYwnc8S6i0Xs3+UoRJLjb4yVqs5z8z7EgEz+M5Z4cRNzrXNvsS6VSfFguHQUz3BqDo2G998nbiSp6h47V7b71eeilanQhe2qzhubo9pog7fdgNgYFP927Cc87EPOd4Yn+vYaup2XrpugHcPNnSOTQ51+b7EulMHxaLeyTdu05tlmaF39V69jjISojodumxoxDWnWu65TFFOtVn3ZB7JN27Tpp0DnyzRpvxlxbrBcYYZZfrpTf+7GTj5O7yubo9pog7/dWy+MgcM092Wigs6aUZ0gGDZE2XIr8Zavl9iMT8MmOXYo4Jf5qneyfAmiFs2nQx12n9+U2smsRMk5jj3JzJ463XM1g7kyRmmoQBCvnKmMVsk3N1eUwRN5TuLSKu9Fk3RET6lYqFiLiiYiEirqhYiIgrKhYi4kpPi4WuhIgMLrUsRMQVFQsRcUXFQkRcUbEQEVdULETElXuqWPgXk5iXDniX5WxcCdsiLfTXXad3KL00o1AXkUPSk5bF0MjDtJ4KZIiHR+6zyUJEBkwPisVTfOoLXyb+TLBJwRgi+PxLfPnzczzVZA+RVdMK0QXAj3HJdATP+jEuWaE3zsl6Sv+PrDbKx4R2OZ3+xaS9rGbbmu5KbdfHv5i0z825/05DeUT6Tw+KxStcfHqN66fnGhQMq1BEPFnWosu80mQPiSt5PKdLb9AJhilCKXg24MdLk2Tv8TCTV6xk6+UdZ2qUH+NSGDbtNOxQlknnJESzcWJTu6RKadkrObwLdkFZz5IfnywXl4njUKSUouXH74XcZWr2r2g7GXy9GeAsbmFcqC0YVoRexJMl0W5ukKt7FEtv0NlJRnM5dkuPTw1DLt14rKKQKqdCpS/nKtF4s9P4yLBRToxKEN0s5U7ZqdibjlzObYOtgofJWYBr7O2X/h9hciRH7mbp8QTD5Ehvp7l+EyslXOQe0burIXbBuPZkhPgzIULPxIk8kWtfKAC20+T2RxkLQOT0KLnLBtlC6bGH3TdcDGtuX2fX+bhq6oC6k2XvavUz127YUwQ4pwuYnWQ0l8a4ki8/9tj7Tcxbc5CYpqm5OuSe0NtLp8UtLj6d4NqTF9wXCqAUZOs9E2HM7nJcu2E/HsmTPUimpD11QIn/xKjj0RDDp6pXnzg+VC5K6cs58PqJnIDc5TRc3bMfj5K/UpmDxDhfM3GRyADr/fcsiltc/ESIcKSDeUyB9Bu7DHmDeLE+ua03bBDvzWznExSvZ8kf8zFdfgNHmC5N8We3HMqzfQEEDILjjqK0fZ3dY16CXqy07e00ObwEvbsNCpe6JHJvGJzvWaxnyZ8Lw7ZdGrbT5GZ9eG9cO8DOEkRXxqwk8HMAeVKbeTynraXppRlYdCRp180tkiBbCBOmVKjSpHNz+Lx7WGfjx7gUw3fMXr2QIqSJmGXA9TTdW0QG1z31dW8ROTwqFiLiioqFiLiiYiEirqhYiIgrPS0WJ0+e7OXhRKSL1LIQEVdULETEFRULEXFFxUJEXFGxEBFX+qtYTEVZ+9JzBDuO44wQ72V0XcAg2SCK77A5YwNFeq2/isVOgtSrXuZePEjBEJHD1F/FgiJbn73A2ne8ROIxFQyRPtKHeRZWweCZOJF4DFynaQGnDJILPivjcz/D8nmjEp0XcCxz5FP4F5PEjm+RIkx43Dp+ZsUZsBshboYpxfnmN0NES5F7s3HMUtBvIUVo3kq3iKyaBG9k2J3yWdsVUoTmqezHsW71edn7Xy8dN8jezi6+KQ/FnWXWnD+rvR07y8woK0N6oM9aFiVFtl6Ikvi21cJwlzE1hC8Aa3Yid+qmj1i5fx8hvuAlt2KnbW9C2DlzWdMUcKtQlFO6VzLslY/nIXw6W36+OB6sGjMZmhomGwoRCqXIj4cxzcmqx6WYPf+ZYcd55asTuhjCd9w6RnVBiBBf8LG7Wfu8yOHp02Lh8J4HXK5YJLNeaUkkNjLlRHD/YhBPYavSWljPki8lfUOLFPBJPI5lbBsY5di8PKl5R2rXfnVuZ3Fnw07RSpAt1D8uxeyll6LV51X7M23UhgaOYVwKM7qzXDkvkR7ow24IlKYJmDt9nbULFw82JeH2dXYXhiuPx8OYZtixQpG9ANSF8jm2858Ypegqti/N9Zsxhtuv2EB1NwfyZFutPu7Dt59hWS0K6bE+LBbOQmF0FOpbJTDG6P5euRgUm/Tt/WfanM3xCTi0GVTtcYmVENHt0uPJ1psUUqQIE1uNkJ7vOKpY5MD6rBtyJ4ViCN90qbfvx5j1lScfSl/OwdRcx9/DSF/OUXSMLxAwMLoZ6R8YY5RdKyEcrG6Pi80S88tkRsL6zoX0VH+1LD4yx8yTB21RFMncmMQ0TeuhM1F722DmVBxzwcRcoLK83SfztsEMhiMFvEhmpdPzar3/tTOOFPFCvmbMopk0xvkJ4mYY89JY9VUfkUPS03RvpX+LDK4+64aISL9SsRARV1QsRMQVFQsRcUXFQkRcUbEQEVdULETEFRULEXFFxUJEXFGxEBFXVCxExJX+KhYHTvcWkcPWX3ed7iRInX2JuRefg6cvHuDO09ogGay7S69MVrIyq1SyOF0LGCQXhtnqdDuRAddfxaIU1vv8S52H9doBtrubIULluDk/xqof/3q0/JwVpquQW5FO9VmxgIOle1cCeSup3ABpjPn2RSGyatrJ3tWJWv7FJLEpu09U00IJmyZBJWvLfaQPiwWU0r1LBeOtyHLrcJfZSTz7OTa2W63UmH8xSZgUoVAC8GNcihGfTRMlTsybYzlUHSwTuqpuiNyf+muAsxG36d43rzve1BHipolpmpgtpxmMMD2FI0E7TTpXtJK3r+5VUr5FpF9bFgdI9x4Zw08pWjdBNJTAVQAuQ/iccXsAhYlKFJ9pEj7IQKjIPaYPi8UBQnvXs+TPBfEHIN1xV6RFISgNjM7GMS8ZXFPWpdzH+qwbctB07wQbO+Bb6HQm9QTZgodwu5RsdUlE+qxlcQfp3umlGdIBO4nb0aXIb4Zadh8S88uMXYo5JiCy5zo95ZjH1H4uAbBtsDVt6mqI3HeU7i0irvRZN0RE+pWKhYi4omIhIq6oWIiIKyoWIuJKV6+GiMi9Sy0LEXFFxUJEXFGxEBFXVCxExBUVCxFxpU+KRYS42ekdo3cgYJBsGYpzOPyLScx2d7iK9Kk+KRYi0u+6UiyGRh6m9VQfQzw8oslARAZZF/IsnuJTX3iGiW+uEX1hi/oYiiGCz7/EnCfLC5FlXmm1q1NWnP8QwH6GZWcyVcCxzJFu5V9MEju+RYqwndBt51GUE7Oq5xLJb4aIXrUfzDoyKwopQvNW8oU1XUCG3SmftV0hRWieyn4c61afl73/9dJxg+zt7OKb8lDcWWbN+bPa26FMDBkQXWhZvMLFp9e4fnqO+DPBmhaGVSginixr0TaFgiF8AVgLhQiFQqRu+oiV+/eVqP9QKERoE8KXDPylTcfDTF6xli3vgG+2tMwqFGza261k2Csfz0P4dLb8fHE8WDVmMjQ1TDYUIhRKkR8PY5qTVY/js9Z6/jPDjvPK4znnHAsZwnfcOkZ1QYgQt+c4UaGQQdGdMYviFsaF2oJhReRFPFkSrub+KJJZr7QkEhsZiuOTRAD/YhBPYavSWljPknfG3BVS9qc5pC/nKhF4s5N4HMvYNjDKExDlSZVaB9tpcvtDDJ9ynM3Ohp2wlSBbqH88esIqR+mlaPV51f5MG7U5XWMYl8KM7ixXzktkAHQvVq+4hXEBnnsxQvyZB0gR5lefyLksFA1sX2d3YbjyeDzsiL4DKLIXgGsttvOfGKV4o26NBtJcvxljuP2KDdROmZgn22r1cR++/QzLalHIgOluBmdxi4tPw3MvRon8MM3aQQsFQGCM0f29cjEoNunb+8+03s3Q8Qk4tExue1xiJUR0u/S4zdQDhRQpwsRWI6TnNbmADI7uXzotbnHxEyHCkU4LxRC+6VJv348x64NcmjRW14KpuY6/h5G+nKPoGF8gYGDMttykM4ExRtnleqkbMjtJo+mXayXml8mMhPWdCxkofZTuXSRzYxLTNK2HhRShUkuiNOGPM7nbeUWimW2DGezE73P2MVa6eMrbBmtnksRMkzBAIV8zZtFMGuP8BHEzjHlprPqqj0ifUp6FiLiib3CKiCsqFiLiioqFiLiiYiEirqhYiIgrXS0WJ0+e7ObuRKSPqGUhIq6oWIiIKyoWIuKKioWIuHK4xeJ9Pv7tRy/w/jPN7sQ8ynvPRDnx0bP8m/c9eKinIiJ35lCLxY9PR3ny7FN8IBjl1JkP1iw9ygNnfpcngz7Gz/4aPz199jBPxbXIqkly0d9+RTcCBsleppaLHKIedUOO8kjwWcY//Ej5mXd/+Fl+KvgYD3S0nwhx08Qs/ytF2PkxLpmYzqi9Btt1rQjUmo03vt1822Am5MwDbeAA0xK4Lmh3acoDuTf1cMziKCd+YYnHTj/Cu08/y0/+wgc7KxSzcSspq5SnGQoRWtljsvymKVLEx3SDvAr/YtBVzoSINNezPIvbt+HIkQd5dHqFE8CRI8BtuH3ETcWKED83SmYlVP0pvW3YCVVWwcjl8vhOR4BE1bbTU7tkdkbxOp9dNe00cOqTxEvs9O9yYneThPGmAgbJhWG27PWcxyzuLDPzxnQ5XTxsmgTtNLC69coJYX6MSzF8x4DxGKY5TSqUZdIuopVz9JL7+i6+D9fvW+SgetSy+C75jW9RvG0d0SoUt3ht42VuuNl8dhLPfo50q+Y8wOUNMleP/B4AACAASURBVCPVKd1W2G+2phBEmCRlt1CWyeBjrrZZHzBI2gWqHO3fKmG8Df9iknD5mHaq93rUShYnT8p+ruF6ZWmM8yFSBauIhEJREiSIbubxBKxziUz7YGcN4/fq9y1yJ3rWDXnryuf4u699l7cAeJs3vrbIq1c6yN27ed1FmlSadI6qeD6/lwYJ2wmi5ZStNOlc7Xn47aj+ynhD24Txdmf2xi6MjLUtLm7Xq7IeJXXTx/SiQXAkw5oKgxyCnsbqvfP1z/GN7z7KEd7knf1/7Gxj+w3U7m2QXtpi2rSmEEjMTuO7uUVouz7Y17+YJDZVmeWkuFNZNjTlw1NIEaqN6m+SMO7KepTlE1YEX6xZt6eT9WokNjJW92NlRhF9cih6/KWst/nR/qudF4r1LPljXvyu3pgJNnZGCS5GMAKjDVoVlVnMSk395Z3qlkVxJ0VmJFx3xcFq+jsGWNtd6aiRXpqxjpfzOiZQOvh6TpFpH7uFXccESyLdNSDf4EywsQO+hZrvLAQM4g0uIVpp4GF8NB7nmDg+5JhPxI/fWzsP6zWM8yl2p2LlgnHQhPFGOu+SWJeG482SyWfjhEcybMxvkGlyRUjkTh1qN+T2rVv8yy2AW9xuuMYt3rl1i38BuHWr5b7SSzOkZ2sSvvczLJ9PQ+3bbttga9pk8krjJnxiPsWkGcM0Y0CRfKHR2EmC6MoYyYUY5uoEofk2CeM1XZTizjIzlyt7q+725EmF7HOzz7V0xWKNuQbr+at+wsRGhuCCfTVkZY/guVEyK1Fr2oR1P8mFJMbVGYyafWuQU+5EV9O9T548yeuvv96t3YlIHxmQboiI3G0qFiLiioqFiLiiYiEirqhYiIgrKhYi4oqKhYi4omIhIq6oWIiIKyoWIuJKb4vF+x7jvR88y9CJR3mXypTIQOlNnsX7fo4Tv/LLPPbog5XqdPtN/iH1Ob6ffa0npwBUIudWOru1XER6USyOTHIiEmF8xHp4+4dv86MjR3n3kSHe/Z63D/3wVbYNZlQkRA7k0IvFu6Z+icfsQvF//jrON7+WgSOPMvTvHqGY+wHwIO966CHYf40fNb6PXUT6wCEXi6P8+BOPWV2Pt77Fq3+SAeC9//FZju9GKQBwlsd/6yz//FKUN5r2SCLEzSB7O7v4pqzE6vxmiCjxcjp2OYEbalK4qUnnLqVt2/vczOE9Z6/rzKeoUZVHYcfdTayaBG+kyHnDVuI2RTKlLk7pWJsQts+x1f5F+t0hDzN+kB972P7vrTd56zY88B8+x4d8D3H8Yy/xgbMXePL3f4kTPMT4hf/C+Idb7WsI3/Gsnaydx3POxDztfFyZTMd/ZtiRwl29rG6fAVgLhQiFUuTHww3TqPyLSWLeHMt2nF4q59jDVBDWS8faxbfgPJaHcOkcQ8sNo/pEBsUhF4si7/xr9TNv/emzfCvzJjdevsD3/+wr5L7wMj/gTb7/lUW+97et91XO01zPkq97PMqYHXmXXopWp3C32ud6KU0rQbYAoydq38x2Qvh6JXUrsVT5f3FnzXGsDTL7HibLBSdPypEibmznGfL6lZEpA+mQuyGv8k9/fwtGH4SHPsTw2FFev/42//pnn+P7HIXb/8g7b77C6//jTX5YeJUfvdWt40aIm2HHLGR5si62unajUbzeBMPHdsm6GhhNc/1mjOFmi6/uUdS8pzKgDn2A85//5yv87585y8NHHuLxyApD33mNd97zCA95jvJ6YoE3rr9K8a9e7eIR7bGIlZA9W1mEuNlsFne37FZL24LhZ2ykyN7VJotPDTN0s3bCI5HBcPhfjfpfX6HwF69ZkwsdeYhHnvgQJ049wo8deYj3//wvdTgxsguBMUbZ5XrpjT07eYB5Tp1p2gmyhaGqiP3IYuX/Q1PTlbGSxbmaRHEPwfIYRYT4OQ/5KxrglMHUgy9lvc2//umzfP3vznJ8ysexxx7nwR/+gJvf+Ar/8Fff6v7htg3WzliT9IQBCvkWYxbuJOZDsGpaE/+AdVUDmACKO3tMmiYmUJXabT/OMWeniNuJ37UTF4kMCKV734HIqknwRpOI/ZpJkUUGne7QEBFXVCxExBV1Q0TEFbUsRMQVFQsRcaWr3RARuXepZSEirqhYiIgrKhYi4oqKhYi4omIhIq7cH8UiYJA0m6VliYgb90exEJE71pViMTTycDkct8kaPDzSeg0R6W9dyLN4ik994RkmvrlG9IUt6oPphgg+/xJzniwvRJZ5pel+/BiXYnZKtp39sDTRnVTvRsfBSuhOY91qHh53HldZViK1utCyeIWLT69x/fQc8WeCNS0Mq1BEPFnWou0LhTe3bCdhp8g59tHNVO/IagzfzRQhu1D4F5OESZUTuHPeWMOEb5H7XXfGLIpbGBdqC8YQwWfiRDxZEtFlthpl4ZYE/HjJsFb+RE9glP/fvVTvscUk4ZEMy+XE7QjTU1T2R5p0rtgg4VtEuherV9zCuADPvRgh/swDpAjzq0/k2hcK6GKQbatUbw++qSKZFaPmOEP4FkzMBcdThQlQrK5Ile5mcBa3uPg0PPdilMgP06y5KRQlI2P4uZO3aLtU7zypTQgvxIlsO6Pu8qQUfSfSVvcvnRa3uPiJEOFIB4ViPUv+mI85RxK20enMXW5SvdejLO+MEi5/5yJBtuAhvKpvYIi004N0bzcSREMQN2PlJOz8Zik/2yWXqd7ppRkmVk3CZpKxlRmM+WXGLsUwzbC9hmO+UhEpU56FiLiib3CKiCsqFiLiioqFiLiiYiEirqhYiIgrXS0WJ0+e7ObuRKSPqGUhIq6oWIiIKyoWIuKKioWIuKJiISKu9O5GsvH/xCdDp1pkdRa5aiZ4uXCnB/JjXJqD9WY3g1m3rmdb3JYeWTUJ3uhVvF7p1voe37wWMEguDLN1P9+ePxu3Utfm270Cd+l31Mpd+P31rliMfICJn3ySkaYr3OStvwTuuFiIyGHoXbHIvMTzmZ4dTUS6rHfFwv8c//W3P8qw46m9Vz7Lr/x/f+Fu88UksalybndVupVzWXHHGfZrcaZ35zdTLk94wpE2Xptx4YzvcywrNQ03IWynj1enhTdKMLcXnXIkk+9Xksf9i0lix3NkRnzWdvsZls+n8Zf241i39md1LrO6Vhl2p3x49jMsV6We1yee1wkYJGdhrby8urtX9fsppMpN+2bP151Pk+NWrVfeB5XX37HPuuO1/L1ZyWluf75G59U+Eb465jG/GSJ61fobye2M4psaKp9j+kzpvKvPudXffUVvEut7N8D51/+Vi7/7Ozzv+Hfxv3zD5cZ+/MdzLIes5O6UM91qNk7MW1m2RrD8ZoTa9O4Q2dPh+gStBoamgrBeSgrfxbdQStfyY1wKw6a9bCWHd8GZIu4hXEofX8nA1BxGoLRdiwTzAKzZz+eP+Zh2JoyPe+1zWSaDj5g5V/XYmTA26Ugqr14GQ1PDZEOhcrJ5SW3iecdqfgflN2/N8ynCJF2cT63yeqEU+fEwpjlZ9bicxj4bJza1SyrU6HdT83sLZZk85+YvoZ67RHirUFT+TjLslZd58LJGKBRieQd8CyZzzsezBn77nJv+3TuP1KPE+rt6NeS9x3+Cn/H9jP3vJ/lA09HPNMZ85Q8qcaWUgeXHCHjIb1eWpZfWyOyXtqtN74bEfKphglat4s6aIyl8g8y+h8lZYHYaHxk2Sp/M22ly+5WEcciTKr1ZttPk9ocYPkX7BPP10s+QIFugOmG8sGWfi5U+Xvt46PhEeZ/R+eqk8uqfaaPuU6k+8fwAru5RPDZck2tW/7tJXMk7zrXx+TRSWc96bWofW6+VfbxNxyfvtsFWocnvjQTRTTd/CbVcJsLPTuIppCrz1mwbGOVj59myf/fpyzmKtY/Lr2Wzv/uKXibW964b8u9/hedquiHVbvIXn/+/+YNmHzGzlYmFACiUcruL7F1tdWBHLueBpbl+M1Y592M+YqZJzLFG/hRQdx6O7TpIML92w214ab3qZisUd1qt3SzxvEPbBjOn4pimSbimqew5Z2Kec6y7v8fhTbRQ/7dw7UaR4Ak/vAHcvN6lzPb2ifD+E6MUb1y780M1/buHXifW965YpC/yK+mLB9t2No4Z2GM5FLV+3Nk45unSQvuTu1wQJhg+hqPJZ3/ql5YHxhjt+AT8jI3Yf4inqOsnlwXqn6pyxwnmrVnjG1uEQpXxgrmWWzRLPD+A9SihdazfzSWDa+fTtMoz7SBdtQO1fwswcXyI3StpYLru9fef6PwvweIuEd5qRd3Bb7vl3719Hj1MrO9dN8R3gc++9CVeqvv3HOfabOo/MVr1qRA5Xaq0VhPLEzDKn1b+xaBjTCJBtjCEb7rSz4tM+9rMy2oZmpquzHS2OIePHOltrCRyZz/ZrW4kmLcxcXzI8Wnmx+918ZPWJZ43sX2d3WNe/HZB9C/OVY0NlZW7JGnSOWf/+7DZfwvOWegCBsHxPNl1yq9/ZSwowrSjBeb652uVCB8wSNqvY/pyjqLz7yRgYHT4N9P8796hh4n1vWtZ3Pw+1/7uAd6oW/B6g+eqpZfW8DsSuPOFvGOZldZd6hYUd1Jk9oPl5Yma9O78Zor8+CTtFHf2mDRNTGsrUqHKmEJ0ZYzkgqN53WI0v6ILCeZtJOZTTJb3XyRfcNedqUs8b9htS7CxEyRmN2+rXueqprLVmkgA1PxuoNn8s92RXpqBRUfCe9UnbO3vLU9qM4+n/End4uerUfs3VW5BOVfaNpjBcByvSGal05+n+d997c/di8T6rqZ7nzx5ktdff71buxORPtIn84bcDbVTHVoO85NvEFR9T6Ok2RhNtwQc3zEp0/wt/UYtCxFxRXediogrKhYi4oqKhYi4omIhIq6oWIiIKyoWIuKKioWIuKJiISKuqFiIiCtK95Yuc//69jZF3QUlnrekdO9GSjkCB42Zow/fCCJ3SOneIuKK0r2bHsdDzDSZLt2FWnVnpPP4tUnfazBrJ2+PxzDN6eapRe0SpZsds8nz1UngzdOSOk0Mb52Y3er1re+SRFZNJq80vrO3WRJ4zVoNEtInrEmAdnbxTdnZ3ZsholRyNqruJq65y7Xxnca9ScweJEr3rpFemiG0mbfeMKHSH1GE+IKX3Eop7RvClwz8dYnRMxjbaYzzIVIF6w8qdOD+b80xncWp4bnYykngbY7rNjG8ZWL2wdPT67RJAreP1joh/bidqr6Zt7I/TzsfO875zLDj9ateVtKrxOxBonRvF/yLQTzlRG3siDYrOu76TbqSnFzvGnulZHBX52JzLmvFVWJ4m8TsLr2+bpLAgfYJ6aXzWM+Sr3tcSWBPL0WrX7+as+llYvYgUbq3W+NhR0yZfdwAjgizWJebpmmM8xPETSuWraqp3ORcupAl3UCLxGyga68vzZPAy69oBwnprdUGH+WpZGb3NjF7kCjd26XmhSCNcT5NqYkcn013MWkrQTSUwPrjTmJcnSHd4lz8Z7p1XKdWidkTdOv1dZ2MdccJ6aVJjkNEt0uPnZmsvU3MHiRK93YhfTnnmFms6Vqdd0lcJ0pXuiTuzqVb2iRmt319r7FXmpwJYDZeH9lXPk6zJHA/xiXTGh/oRkJ6YIxRZ2todrJ+jKWHidmDROnejaxvkAnEHFdD7El0nM3QQorQ/LWqkXkKKUL2J35iI0Nwoc3VkJaJ0tVN5eLOMjPrAM3O5XA+81onZrd7fdMY29OYpe5FIUWq4KHRq1/7e7T2VXuVogsJ6dsGa2ccP08h33CMpVeJ2YNEGZwi4orSvWuePYx079opBQGXc43cCaWXS3epZSEiruiuUxFxRcVCRFxRsRARV1QsRMQVFQsRcUXFQkRcUbEQEVdULETEFRULEXHlHkz37hXr69QM0tenlV4td0Dp3m7VvdFKWRMi9wele4uIKwOT7l2fom1lCURWTStIdT6BM9B15rLfaglsQrgUx1eT+9A8tTpSlRZdfOMGQyeOAxA2TYLOROmVGYxte/3NHN5zdvhLi2MVd1LkvMEmEyEpvVr608Cke1elaDsSphPzKfLjQSs5anYaX1Wgq4dwKeE5tExmxJEY3Sa12pkWPfP/fJLQSoYieVKhUJM30RC+AKzZqdP58XAl/blNAnn1z6n0aulPg5HubReBjdKn43aa3H4prTlBdHMX37SBERgls+7MiMiTmq8kMhvbeYa8fivCv2VqNVSlRbtSdBw7QbZQithrl0DuoPRq6WODk+59zFcVuQaQLwXJrm+QKXU/WsWcXd2jWM6ubJdafWeu3Sg6HrVLILcpvVr62GCke0PrnMnZaXw38+Sn5jAC6ea5iI43o79tanU3tUsgd1B6tfSpgUj3Zj1bPQZQJUL83CiZjSgbO1QlTYOHoCMJOn7OQ/5Kgvap1d3UJoE8YJAspUgrvVr62ECke0OC6MoYyQXHJDTl+TnDjO4sW5+i21YKeHLxGjOXAfLkmCsnQVcSstunVtfZNtiaNh1XQ9z/6O0SyKt+TqVXS5+6dzM4+/rbivUTBov0O90bchdEVsN4ClkVChko9/FUAL1TNxXAfobl8yoVMlju3W6IiHSVuiEi4oqKhYi4omIhIq6oWIiIKyoWIuKKioWIuKJiISKuqFiIiCtK926j/O3L/Ur83KEKGCQXvOQG/iauiCN28G6fi3SD0r1bshOkVkKH9wc/G8cM7FUK0bbROsBH5C5RundbjmwIkfvYgKR719/SHVk1mbxip1ZXpVk7cilaPj9MbmcU39RQ4/Rrx7aeUobFZT/JWVgrd0f8GJfm7JTuzhK+2c/wJzkvPz81BHiImSbTmyGiV2tvra+JyHPs07+YJHZ8ixRhO5W7OoOi6nhNksZqz2n5vMHEqknwRobdKZ913EKK0DyV86jaV/X5NUsFt5LDK78DN+cm/WVA0r1biRBf8FbSrJ1vMufzmxC+VEmrAg9e1giFmswotm0wE0qRb5noXat5wrd/MVmV8J3KQW5phtBm3nqTNjwPK9V8dKeU9h0ihSOhHGA8zOQVa9nyDvhm7Z+xJlG8aaGoOafyTzI1TNbxc5jmZNXjSnL5pCN1PQNTc1bSes1xwiMZlku/m5pzq/uZpC8NRrp3S9fY27czLh38i0E8ha3qlOtjw47MqTxbXZ8Xo3nCt99LVfJ4YsnFYGnd1AaQ2MiA118peoVUucikL+coln7Gq3uV/zfU+pyKOxvlmdeyhfrH5eTv9WilyG2nydWmlp+xp1xwtsZq0s4TV/IMHe927ql02+CkezeVxjg/Qdy0IvequhTjYUdMHECRvUCjfRyOSsL3BMPHdskeZOzj5vXqorJ9nd2FSSaAa7Xrbl9nd8F+hbcNZk7FMU2TcMPIwDs4pyrVkyJBkcrQ1BC+KQ/5zVBd0I/nnCMiEWB/7w6DiuWwDU66d0uleUcjxM0kxtUZ0rSYVauHBaPCntej0zdnbdp3YIzR/b36QtHIepTQOtYVl0sG1+ou/R7wnMqsQjG8HbKOUxrDKSuS2czhPWf9TipXlJTvOYgGI92ba+ztOyYAmo2Xp9mrX8/qkqQv5xr2n+/I9nV2j3nx2/v0L841mVmsVoJsYagyngBEFp3jJ03UpX1DZNoHuXRnn8COLklk1bTHBw54TlUmGD7mmBMl4Mdb+3pcNZjZ3MW3kLR/F2nSOaqOK4NhQNK90xjb05ilpmshRargwZoNo8Fo/DqA3Qx3Tpxzx6PuCTZ2gsTsfTZP6W6w5XwIHAnfFFKEwJogKRBzXA2pPl5t2rfrOUhnK/Oglj7JrbZX+3NyP3qQILo5WXmN9/PkG820th5l+USS2IJJ/FSIaE3aOTSbj1X6iWL1RMQVBfZSPXt4ma79i1RRy0JEXNFdpyLiioqFiLiiYiEirnR1zEJE7l1qWYiIKyoWIuKKioWIuKJiISKuqFiIiCv3fbHwLyYxVyPtVxS5z933xcK1gEHSjHNHZcXOldCt2TKIulIshkYebjEfCMAQD48cKDNPRPpEF+46fYpPfeEZJr65RvSFLYp1y4cIPv8Sc54sL0SWeaXpfpy5FHlSmxA+na3c+VmV1F2f61B952htjFybfTs1SgR3ZEOES0nfS+ma/VanPznPp7izzBpzdpq1I8lb+Q0yQLrQsniFi0+vcf30HPFngjUtDKtQRDxZ1qKtCoWVYl1OiQ5lmSwHt4CV1O1jt7x8mZw3VpWcbaVHN0rybrdvao7TIBF8PUpoJUOxKum7Zr8rObwLVjfFv5gkTKqcyD2zlCbdNslbpL91Z8yiuIVxobZgDBF8Jk7EkyURXWarvslRYadYb5TfQAmim/nyYiupO+V4g6UxtvN4TkcozxrmSKlmfYMMdvxdm307tU8Eb3HO22ly+1amZfqN3XJ2psi9onvhN8UtjAvw3IsR4s88QIowv/pErn2hKKlNsa7d/Y2aiNqrexQDY/i5Tv2sYWmu34wxWZoeoM2+q3SSCH7MVxUNB5A/RSVGzjSJ9WqOVJFD1t2krOIWF5+G516MEvlhmjW3hQLqUqz9J0arFlvzSjjecqeGGbqZJQ1M16VU+xkbsYNkT7Xfd9WP0EkieIs0rfSSlTDuX0wSW42QVuqWDLjuXzotbnHxEyHCkQ4KhZ1iPV1K7ybC9FRl9CN9OUfROQtWaaKaKwkapVRbXYQc6e32+3bqKBF8PVs9M1cT6pLIvaJ/blGvvQrR5mpIbRp01dWQ2qZ/i32X5gstH6cqFZuq1kPpGOXWR805lY6Lcx7PqiszlQl5lGYtg6Z/ikUN/2KSOdZczjHaP/sWuVf15zc4AwZzU5C7fAhv5sPct8g9rE+mAqieKAisZnp3prc7zH2L3D/6thsiIv2lP7shItJ3VCxExJWuFouTJ092c3ci0kfUshARV1QsRMQVFQsRcUXFQkRcOdxi8T4f//ajF3j/mckmKxzlvWeinPjoWf7N+x481FMRkTtzqMXix6ejPHn2KT4QjHLqzAdrlh7lgTO/y5NBH+Nnf42fnj57mKfiWmTVJLnYpXtEAwZJM+nuLlaRPtejbshRHgk+y/iHHyk/8+4PP8tPBR/jgY72EyFumpjlf6W0bT/GJbNFcra1XdeKQK3ZeOPpBLYNZkIzrb9afoDUcNcFrRuJ5CK2Ho5ZHOXELyzx2OlHePfpZ/nJX/hgZ4ViNm4lWJWzNEOEVvaYLL9pihRx5lZU+BeDNEvdFBF3enYj2e3bcOTIgzw6vcIJ4MgR4DbcPuKmYkWInxsls1JzA9i2QXQbsNsTuVwe3+kIkKjadnpql8zOKF7ns63yL0rsbIty9kSj5O9Wpx0wSC4Ms2WvV5v4PfPGdMPU8Lr1yrfSV/IwGI9hmtOkQlkm7SJaOUcvua/v4vtwo0RykYPpUcviu+Q3vkXxtnVEq1Dc4rWNl7nhZvPZSTz7dvJVK5c3yIwEq8YIrBDebE0hiDBZTt9eJoOPudpmfcAgaRcoK6SmSfK3m/OnceI3DVLDG65XlsY4HyJVsIpIKBQlYQcQewLWuUSmfbCzhvF7jRLJRQ6uZ92Qt658jr/72nd5C4C3eeNri7x6xW3uHi5Dd9Okc+CbLvXS/fi9kNmo/fxPEC1nYqZJ52rPw29PPVAZb+go+bvRmbmM1ztQDN96lNRNH9OLBsGRDGsqDHIIeppn8c7XP8c3vvsoR3iTd/b/sbONa0J3m0kvbTFtThIBErPT+G5uEdoG/5nq9fxV0XdQ3KksG5ry4SmkCNXG3nWS/F3LbeL3AZPBExsZq/uxMqMkcTkUPf5S1tv8aP/VzgvFepb8MXsekLYSbOyMElyMYARGG7QqqORu2k395Z3qlkVxJ0VmJFx3xcFq+jsGWNtd6aiRXpqxjpfzEmsxGbPb9Zwi0z52C7vVwcUiXTQg3+BMsLEDvoWa7ywEDOINLiFaKd3hSsJ3jYnjQ455SPz4vbVp39cwzqfYnYqVC0ZHyd9tdN4lsS4NN00Sn40THsmwMb9BpskVIZE7dajdkNu3bvEvtwBucbvhGrd459Yt/gXg1q2W+0ovzZCejWMumJgL9pP7GZbPW1MJVtk22Jo2mbzSuAmfmE8xacYwzRhQJF9oNHaSILoyRnIhhrk6QWjeYOZUzfGd84bUdFGKO8vMXK7szV+X+G2fm32upSsWlTlRnev5q37CxEaG4IJ9NWRlj+C5UTIrUdJAet1PciGJcXUGo2bfGuSUO9HVWL2TJ0/y+uuvd2t3ItJHBqQbIiJ3m4qFiLiiYiEirqhYiIgrKhYi4oqKhYi4omIhIq6oWIiIKyoWIuKKioWIuNLbYvG+x3jvB88ydOJR3qUyJTJQepNn8b6f48Sv/DKPPfpgpTrdfpN/SH2O72df68kpAJXIuZXObi0XkV4UiyOTnIhEGB+xHt7+4dv86MhR3n1kiHe/5+1DP3yVbYMZFQmRAzn0YvGuqV/iMbtQ/J+/jvPNr2XgyKMM/btHKOZ+ADzIux56CPZf40eN72MXkT5wyMXiKD/+xGNW1+Otb/Hqn2QAeO9/fJbju1EKAJzl8d86yz+/FOWNpj2SCHEzyN7OLr4pK7E6vxkiSrycjl1O4IaaFG5q0rlLadv2PjdzeM/Z6zrzKWpU5VHYcXcTqybBGyly3rCVuE2RTKmLUzrWJoTtc2y1f5F+d8jDjB/kxx62/3vrTd66DQ/8h8/xId9DHP/YS3zg7AWe/P1f4gQPMX7hvzD+4Vb7GsJ3PGsna+fxnDMxTzsfVybT8Z8ZdqRwVy+r22cA1kIhQqEU+fFwwzQq/2KSmDfHsh2nl8o59jAVhPXSsXbxLTiP5SFcOsfQcsOoPpFBccjFosg7/1r9zFt/+izfyrzJjZcv8P0/+wq5L7zMD3iT739lke/9bet9lfM017Pk6x6PMmZH3qWXotUp3K32uV5K00qQLcDoido3s50Qvl5J3UosVf5f3FlzHGuDzL6HyXLByZNypIgb23mGvH5lZMpAOuRuyKv8HjZd0QAAIABJREFU09/fgtEH4aEPMTx2lNevv82//tnn+D5H4fY/8s6br/D6/3iTHxZe5Udvdeu4EeJm2DELWZ6si62u3WgUrzfB8LFdsq4GRtNcvxljuNniq3sUNe+pDKhDH+D85//5Cv/7Z87y8JGHeDyywtB3XuOd9zzCQ56jvJ5Y4I3rr1L8q1e7eER7LGIlZM9WFiFuNpvF3S271dK2YPgZGymyd7XJ4lPDDN2snfBIZDAc/lej/tdXKPzFa9bkQkce4pEnPsSJU4/wY0ce4v0//0sdTozsQmCMUXa5Xnpjz04eYJ5TZ5p2gmxhqCpiP7JY+f/Q1HRlrGRxriZR3EOwPEYRIX7OQ/6KBjhlMPXgS1lv869/+ixf/7uzHJ/yceyxx3nwhz/g5je+wj/81be6f7htg7Uz1iQ9YYBCvsWYhTuJ+RCsmtbEP2Bd1QAmgOLOHpOmiQlUpXbbj3PM2SniduJ37cRFIgNC6d53ILJqErzRJGK/ZlJkkUGnOzRExBUVCxFxRd0QEXFFLQsRcUXFQkRc6Wo3RETuXWpZiIgrKhYi4oqKhYi4omIhIq6oWIiIK31SLCLEzSSGnfUQWTUxVyPl/ytdSuTu681UAB1KzId085VIn+lKy2Jo5OFyOG6TNXh4pPUaItLfutCyeIpPfeEZJr65RvSFLeqD6YYIPv8Sc54sL0SWecXFHutv/Z7AuBSrT9CuSf0u7iwzszRRFalnPZeuX/daASZ+VHULuX8xSez4lhK4RRroQsviFS4+vcb103PEnwnWtDCsQhHxZFmLuisUjbRO0K6kfs8spWF2EjbtdVcyMDVXHgupWvdT/41cVbiuHcy7oUIh0kh3BjiLWxgXagvGEMFn4kQ8WRLRZbYaZeG63X3LBO1i9Rt8PVqZP2Q7TW6/ak+OddOkc8VKmnfAj7cqEk9EnLo3wFncwrgAz70YIf7MA6QI86tP5O64UNRrk6CN39FlASiSabanyznmZv34ScMZL+TWFKYr0kR3L50Wt7j4dIJrT14gciiFAlonaFuFYng7VJnYZ7/RerZtg62bXvwBqwuSu6xSIdJM9y+dFre4+Imtru7SStBOk6CSoL3csLswwfAxRyEJ+PEeg1yjVW2JK7skp6fh5pYmTRZpoS+/Z1GrdYK2U4Lo5iTmgom5AOznybdqWQCsZ9k1w7AZ7e5Ji9xjlGdhT0KUVQq3SEt98nXvu8e/GGR0Z0OFQqSNgeiGHIqAQXLBx9B+huXzGtgUaUfdEBFx5b7vhoiIOyoWIuJKV4vFyZMnu7k7EekjalmIiCsqFiLiioqFiLiiYiEirqhYiIgrvS0WU1HWvvQcwY7jOCPETZP4bPs1m/EvJsuJ4R2bjR98W5F7RG+LxU6C1Kte5l7stGAkiIZClQQsEem5HndDimx99gJr3/ESiccO0MIQkbvlLtxIZhUMnokTicfAVZqWncxtp3pb6d8pct6wHZ+XJ+W8xXw2jnmulO9tLbvm3F3AIDkLa+dLuRh+jEtzsO5MDS8lhOdJbdacTukmNMf+ddeq3Ovu0gBnka0XoiS+bbUwDjLfmDPxO1XwEC6NKczGMc9BKmQtW97Z63DPfoxL4UpCeCjLZLnwAESIL3jJrZTSxiF8yTjQzyAySO7+1ZD3PHCgzZyJ34kreRgZww9ETnvIb1Y+6dNLRmef+rPT+MiwUR4fSRDdzJcX+xeDeApbjrTxLPljw0wc6KcQGRx3Kc/CmiZg7vR11i5cvPNE7at7FAPQOsy3Azevtz6n8TCmGXY8UWQvACjDU+5hd6FYOAuFcQjp30MMn+LO3rh2K6VUMPwnRqsWV2Y5E7l/9LgbctiFwpo4yHOuMmOZf9Gg7hsS29fZPebFHyitM1eZZ2Q9S/6Yj+nydzoiTE9VLtukL+dqZjkTuT/0tmXxkTlmnjysQmFJL83AYpKYaRIG2M+wXLdWgo2dIDE7Bby4kyKzHywvi66MkVwwMc+BdTUkj+e0vXjbYOZUvJIgDlBIaX5Uued1NVbv5MmTvP76693anYj0kbt/NUREBoKKhYi4omIhIq6oWIiIKyoWIuKKioWIuKJiISKuqFiIiCsqFiLiioqFiLiiYiEirgxIureI3G0Dku4tIneb0r1FxJW7dIu6FYITeSJHwlW6tzVJUKwUQmPnR/gXk8SO58iM+PAdK6Vs+zEuxcphNkq1EumOu5TBaaV7l6YDeCuy3DrzcjZOzJtjOWTUrzfuhZUQoW3ALhTe3DKhpTQQwVg8pB9B5D5z96+GuEn3vrpHsVmCtjNpO+DHS4a1cksigaFWhUhX3KViUcniTDztIt1722BmE8KmiWnG6zM1S04NM9QumVtEDuQuFIsDhvauR91N6mMnc4tIdw1eunerLomdzD23WCoXEYxFlQ6RbhiMdO+quUuLZFZmSECDFkSCaAjiZgzTjAGQ3wzd8WmLiNK9RcSlu381REQGgoqFiLiiYiEirqhYiIgrKhYi4oqKhYi4omIhIq6oWIiIKyoWIuKKioWIuHK4xeJ9Pv7tRy/w/jOTTVY4ynvPRDnx0bP8m/c9eKinIiJ35lCLxY9PR3ny7FN8IBjl1JkP1iw9ygNnfpcngz7Gz/4aPz199jBPxbXIqkmyW3eqBgySZhIj0J3didxNPeqGHOWR4LOMf/iR8jPv/vCz/FTwMVzkZDlEiJsmZvlfKQjHj3HJxGyac2Ft17UiUGs2jrnaIJJn22AmNFNJ8mokYJBsFejTgOuCdoB9izTTwzGLo5z4hSUeO/0I7z79LD/5Cx/srFDMxjHNMGyGrBCcUIjQyh6T5TdNkSI+pmfrN/UvBvHUPy0iHehZnsXt23DkyIM8Or3CCeDIEeA23D7ipmJFiJ8bJbMSqv6U3jaI2kG9ALlcHt/pCJCo2nZ6apfMzihe57OrJuFx+8F+huXzDcKA7RyN/GaI6DrWJ/WCDytjvJQm3kLAILkwzJa9nvOYxZ1lZt6YLud0hE2ToJ1EXrdeOUfUkVw+HsM0p0mFskzaRbRyjl5yX9/F9+H6fYscVI9aFt8lv/EtiretI1qF4havbbzMDTebz07i2c+RbtWcB7i8QWYkWDVG4F8M4ilkawpBhElSdgtlmQzOdC1bwCBpF6jourVNfMFLbiXkLt6vhn8xSbh8zJD1xl2PElrJUCRPyn6u4XplaYzzIVIFq4iEQlESJIhu5vEErHOJTPtgZw3j9+r3LXInetYNeevK5/i7r32XtwB4mze+tsirVzqIy3IVxJsmnQPfdKmX7sfvhcxG7ed/guh8wrFN7Xn4iS/42N2sjDdYRceRJL6eJd8s3q/Rmb2x6yof1O16VdajpG76mF40CI44081FuqensXrvfP1zfOO7j3KEN3ln/x8729h+A7V7G6SXtpg2J4kAidlpfDe3CG2D/0z1elWTFgHFncqyoSkfnkKK0HrNzsfD1rhJZSv23F7pWI+yfCJJzDSJNev2dLJejcRGxup+rMwo3VwORY+/lPU2P9p/tfNCsZ4lf8yL39UbM8HGzijBxQhGYLRBq8IuFMe3yk395Z3qlkVxJ0VmJFx3xcFq+jsGWNtd6aiRXpqxjpfzEmt09aTD9Zwi0z52C7v4Zt13jUQ6MSDf4EywsQO+hZrvLAQM4g0uIaYv52AqjI/G4xwTx4co3rhmP/Lj99ZOunoN43yK3alYuWBY+5zryncmOu+SWJeG4w2u9AAwGyc8kmFjfoNMkytCInfqULsht2/d4l9uAdzidsM1bvHOrVv8C8CtWy33lV6aIT0bx1wwMRfsJ/czLJ9PU5fzvW2wNW0yeaVxEz4xn2KynABeJF9oNHaSILoyRnIhhrk6QWjeYOZUzfHtOVeBui5KcWeZmcuVvVV3e/KkSlMx2udaumKxxlyD9fxVP2FiI0Nwwb4asrJH8NwomZUoaSC97ie5kMS4OoNRs28NcsqdULq3iLgyIN0QEbnbVCxExBUVCxFxRcVCRFxRsRARV1QsRMQVFQsRcUXFQkRcUbEQEVdULETEFRULEXGld3kW4/+JT4ZOUXt/Z0WRq2aClws9OyOHCHEzjAfIb6bgnCOmrk+Ub6ufbxnk13p7b851PoZIrd4Vi5EPMPGTTzLSdIWbvPWXQMti8f+zd/+hcZx5vu/fiX9pp7UaRcpKSljd2FKIt5mDtQN918xMcqe162hDXItpLazA3jAMjcAKWMaoc+FmVzdlPCcXTtor3IbIjKbPcM4em+35w42Y8jAoBvUyZhaxzV3a7NA4E7e8VzAjaSNFo6gycmQ794+q7q5qdUslqSVVyd8XDJuuH0+VzPa3n+epqk8Vv9QGBzmYDhgpWJYnSEe22qL7pC5JKI7Ymp0rFulr/F16C/tbwnMLCVb5PIsqPHpdzLcQQpSzc8Ui+C7/6//8P2iwLJr/5X/lb3/wCwc7r5fubW5j7XVYewr5lO1RCJlp2vqqJG1rWnYX85eLKVjWtG1jmNJBpmyPxn4OuVGF/k+MY2cnmgkc9wE66cs9pF7N51sYn4tZn6W5F2WOY6aMU8iosB7X3l6ebRizxr+HEJXs3ATnv/4v3v+//y/+zvK/9//n/+ts33XTvYOoN0I0W2LvkpTG4rUROpYx3zeSLqRexc8ZsXrFtOySlkvStjPHQhXeQWJ8YQvvNbmcZt5ybD/DZoQfBAY0+qyfC1F4QYJNWaL5v2GyjdCqWL2wGSacT+w2/vbicbP4B5y8WKj8v4cQlezq1ZBDTa/wzcA3zf99g/+t8uzn2unevd0EsKdax2+mwW9NmMqRzPc0xlNkF300vLzeGYbpPm5PB4+fS5Irew4dtE0mi5Oi4ypqYYI0x5h5bqk7WfTSz4WU8BTqueIEZPxu6ZFaC0WxcBzzb79ZOG6K7GIzret+8Tfz7yGeZjs3DPnf/5Z3S4YhdnP84r+d4f+pVBHWS/cuLSbjU8wMdNBedp8UU3ORNc7FaoYpB6G8wZbm6sx7mHMzBZOZ4n8fCRBYTBMtHS7UBYw0cMui3MuA4zDhjfx7iKfVzhWL1Pv8ber9ze07kiF3qotgJ5WHIqXFpLOV5sV5tv71NX+l88ftbKW5wpa+pvKlybHeGFrnPFHFyNOkN4Z2zLJ+MkmSEJGrYVLWS6jW+RkhtsnODUMCZ/mv137ItVX/e5dT6+68Trr3SIZcnf2tYuHuAGRTW7xcGCcz6bO8tMhotzBasrx4OHUni34kVEzg7lRRN5iyHWxptvWQwsdWz47Ez0VJN4aKL2IeyZCzHteqN7bGy6KF2Jid61nM/X/c/9VBplet+G2ZZautne6dol+BWCGxu3qz+/FzUVpvRArJ3bnRJLkjHas3HFfpQSUxoKGdAuOqxMaOlbo0TNB6rMlysyMp1NPtxLQQ2o1WoqdVM4U8f1wqv7tViC2QdO+N6lRJ9MKwfBnFU0aeDdmQIGpvNYY3QnjPjr7r1IusN2QBxmSi3LwknkIyDBFCOCLDECGEI1IshBCOVHUYIoTYu6RnIYRwRIqFEMIRKRZCCEekWAghHJFiIYRwRIqFEMIRKRYAJ5bQLi7Lo9xCrKEqxcLX+Nwa7wMB8PFc49pbCCHcrQo3ZX2bd//HO7T/+zD9H4yhr1rvo+vvrtHXluGDcJRflm1jhdiQzvytGvwnF4zCs1hP9L0a4+nOo8skzj4im35EILBM7lYL/bchfH6a0GGjBT3dRM91o/YFzywQCSwbKx40olw5UHG5bRms27YQT6vq3MHp60K91kfr3dKCYRSKcFuGeH+UsdWVxLRCbGiONkuBCJ+fJoT5RT+6TOLsApQWhOd9ZiF4gnpxloZftNDPEtpr+4uFJu+EfXn4/DRdn5rtlayzty2EgGrNWehjqGeHmTrWR+ydLnNI4qPrnZiDQpFXQ/pG8Qse/3k9+uGHlkj7WsYKv+4rdAcg/fP8l/lZUh/X0Nz8BKb2o9c9MtOy856gvrZE7heW9n9Vi+/5x2XPJDWzHxoeyxyGEBbVy7PQx1DPwrsfhom9c5AkId76k6zDQlHGvX3M8GiNDZYJnJ1Gsy564IN7NfTcWkIbmiZELckLtYV3gbSdnEY7adl+cT9BDqwOsrldS7R5gcjQAhHrcEiIp1h1w2/0Md5/G979sJ/woxTDmy0UAEcf07y4f410bnshsLldi3K7tnCV4/57B4Ea0tfqUe85O3zqej2p6+aQ5Pw+UjIkEU+56s/a6WO8/z2FUHijhWKZwBsr5n8/QT29AB8frPCLfoDMgyVC51fKri0oDEmeJfUxBE5v/PKoDEmEMLgoVq+G9KcP0YbmjI8PGlHWuAIRv9JE68VZtCHL/tfqUVuX0E4u2ZbFAa7X035+msgQhZfx5K98cPtrpF+bJTIE3bdauNlsvUJSS/KCDEOEcEmehXnpdAPDBCHEzpKbB4QQjkixEEI44pJhiBDC7aRnIYRwRIqFEMKRqhaLF154oZrNCSFcRHoWQghHpFgIIRyRYiGEcESKhRDCESkWQghHPFIsVogNLaAeNT6Fz0+jrffEqRCiqlz01Klz8Sst5XMshBDbZkd6FpL+LYT37UCx+Dbn/+G/W7I5Sxmhvv/9v/XxbYcths9PkzjzxPLfK6gXp9GGptGGloq5nUeXSdjeB/IE9aIxnAmeWbC9K0SGNkKsbQeKxS95/+3SMN+8Yvr3cH+l1wSszxfQ4UYLyoUWkk4StIDU9TrSLNB9Aji6TNfhWpISnSdERTszwVmV9O81mk/XFUJz4r+qdRiD9yzqjXqaX1tGfWOBmVsV8jyFEMBOTnBWO/27kqn9ZV50VMG9GsbmzfeT3K7iOQixB+3spVN9jPffjnP/v5wlvB2FYqOOLtPVUEuuYY7YiV08DyE8YOcvnepjvP+9sZ051r19zNTpBI/WkLoHwTOLBOogDeQTxGd+0UI/oL22TPC2BPMKUYlHbsrarAPcTGO8jGhomj58pBeNNeHzswTmG81071qS8wtE5GqIEBVVNVbvhRde4Le//W21mhNCuMge71kIIapFioUQwhEpFkIIR6RYCCEckWIhhHBkR4uFpH8L4V3SsxBCOCLFQgjhiBQLIYQjUiyEEI5IsRBCOLJHikWYmJZA7dyhw3WqJLRYMb5vhwQHE2hXd/qoQhj2SLEQQmw3VxQLSf8Wwv1c8N6Qb3P+H96h/d+H6f9grEwknhHq29eW4YPwOqG+L6skBgJG4VlMEz2tFsNsOi3ryJFU+oljdO0jTWMkCRE6AqCTvtyDOp7fMUxMC9FmfsqNKvR/Yn7ojaGdMtdMJlHOGSme4asaXbNpZo4HjP0mkyjnKLZj2dZ+Xmb7I/njdjE/MUPgeBv6RJRh699q7sdElJ5LEtkjtp8LehbVSv/2EeiEYUVBURSScwEihfF9mNiAn+xlY50yCqEbajHU90iIjrvGuugEBHrz64xCwai53+U084XjtRE6liks14902eZMfMcbyCgKipIkdySEpnXYPsd6je2CrzZYzitH2ynrXIiPQJNxDHtBCBMbCDAzWrpciO3jgmJBldK/ddIjxZ5E/GYa/UgHYSA42EXb5FixtzCSIVfXQHt+18mk+WsOqTtZ9Py63g7aLOsYV1Hz/02OZL53MJ4iu+ij4WXL2UzcNNPC42QmV39ubjHKUepSv/28Sv+mm6WZ462oN0I0T0SL5yXEDnDBMMRU7fTv8SlmBhqKn4+E0LSQ9YDMd8L9NfYLtjSjz67aoowUU3MRGtbfsAz7MAdyZNba/EiAwGKaqPQoxA5zT7EAM/0b3v2wn/CjFMNbSf/ubKV5cb5QDPQKY/vgq2s342tqh22L8TXnJS4r9I/nP3esvctkkiQhIlfDpM7Jm07EznHHMMRKH+P97ymEwhstFD4C3fnRfhC1NwDZFCmMoQXH+zZ8H0bqThbdMr9Ap4rau+YuG9PZSjMzTOWHIb0dlh5GZfFzUdKNIbnnQuwod/UstkQnPduBpmnGx8kkSr4nMa7S83IMbUBDG6C4fr1f5nGVHlQSAxraKfMYl6t4yuMqw68miGgaIYDJXMmcRSUp1NPtxLQQ2o1W+1UfIbbJjqZ7S/q3EN7lvmGIEMKVpFgIIRyRYiGEcESKhRDCESkWQghHXFUsJP1bCPdyVbEQQriXFAshhCNSLIQQjkixEEI44olnQ5777tfo+dND8OvPuPYzc+E3fQz8xTNM/esSP/nnXT09IZ4K7u9ZvNnAcOQlTn6rtiQv4hna/+yPeSvSzg/eXK+RraR/h4lpWuHJ0/BVjcRgcI1ty6R+d6okdjJ9XIht4P6exYsH8bFM+kdTvH/bsvzflnj7h7P80/lm/vDF7TyBOP3KFnMjxlV6xtffTAg3c3/PAoBDNLSWWex7hoM7fi5CPJ3c37P4zZfoPAP7yqz7owMc4BGfz5dZV06l9O9OlUQvDBdyIYKoN/pgpAd1PJ9mZU38Lgpf1cxUcMiNJssft1MlMdDAmDVR/LgZTWzJ1bAtt6WMm+cwmsV/yjx/J3kcQlSRu3sWb36dD8804Vv5jMxHZdZ/9Dm5lf10/PWLDKw7b7FW+vfmBAcThEgaydyKQuZYaP2kq94YEX+WqLlP4QvfGyNyfIZkfvnlLP6BkqTvwvnbE8KF2AnuLha/f2L+3xWWym7wFZ///itWVpzk91RO/96cMN3HsaVvx88l10+6+mS+mB5eEETtbCM32k+htXGVsck2OgoFwXr+9oRwIXaCu4vF+Oe8/eNZ9LomvvN6mfWv19FR9wxTd37L5Z+VWb9m21PMbPkELfmZjo+r0jMKIU1Ds1050Zn/xL7p/Vm9YkG4P7vZJGMhNsfdxQLMScxHfPm7Muv+c4WVzbZbkv69Oc20Wi+HdrbS7GS3kf4yLzuyv3cEoL3Jx8y0pGsKd3B/sTAnMZc+K7NO/4ovHTdUOf2b8Slm6vwEzS9+cLCPQN167cXJTFrbhHB38TWEjt60XhiSpEhldfvbyDpVuo7kyMiLhIRLuP9qyP2H6DxH4PsvMnDwN8Xhxjd9fPD9Jnx8wbyj7sEa6d/EuTnRRcRM/9YnkqQXu9ZtMX4uSuuNSOHlRbnRJLkj67z3w/p+VPOKRxzgUg8MWpK+Le9jFcINXJXuXWn9sb/6On/z53/AZx9NF4vFSwd46y8P8fCeB273XnVpVgjvcX/PArj7099x96clkxb/scI//nDTMxY7KviqH9/cmBQK4WmeKBZeVbzJKkdyq7eMC7HLpFhso9SlHulNiD3D/VdDhBCuIMVCCOGIFAshhCNSLIQQjkixEEI4IsVCCOGIFAshhCOeuM9C0r2F2H3uLxZvNjDc14xPX+Jffm199NRI9w5+d4Vjvvv8/UbzLKoiTEwz0rFyo0k4FYJRhf6NPCnaqZIY8JOtENsnhFu4v1jserp3ZcHBLtqsWZgjm7ilW5K/hUd4ZM7Cvene+uzW4nOE8Ar39yyqlu4dRL0RKYTa6BNRei6lsA4lgNVp201jJAmZCd7FxO1iqncETesmqWToKEkBX5X8faqDTGlGRUnyt3Wf4jnal9uzLiT5W+wMd/csqpbubRQKfzZqJnEnyRaWh2ieiBYSupOE7G8cOxKi466xLjoBgV4jBi9+TiE6oaNPRFHKhNRsJvm7dJ98oQgOJgg1pouJ4LY4PpDkb7ET3F0sqpXu3RnET5phSzKWeikFvd0EbMuN1G/8weIXcTJZmLBM3cmWSeYuZ3PJ36npGWhsxR7Ra7ZlSSZn5CZpijGAkvwtdoK7i0W10r1fbsA3N1X+cfHS5eNTzFQqCBtKBN9E8vdIP9Gsn4imodl6DqVtpZiaWx3wmyfJ32I7uLtYQPXSvVf9YldYXpXUb9hs8nfqUo8x5Mn6LS9BKmmLIK2Nq18dIMR2cn+xqEa690iGXF2AvsJcRBh1MFhmuZHQXUj93rR1kr97YyU9h9WKQxKzrV7L9r3dBMiSkkuuYge5/2pIVdK94/QrENMiaFoEgNyoAqRWLbdegdiKzSR/2991miOpGPMQqXMKXNWIaBoRsL+nVYgdIuneO6VSwrckfwuPcH/PAu+nexdfahRdVRAk+Vt4hSeKhRfZb6Ki5KVGkvwtvMcTwxAhxO5z/9UQIYQrSLEQQjgixUII4YgUCyGEI1IshBCOSLEQQjgixUII4YgnbsqSdG8hdp/7exZvNjAceYmT36qlwbbCSPd+K9LOD9ZMydoe4auaPVFrhwQHE+s+sSrEdnB/z8LF6d67IXWpR54jEbvC/T0LwM3p3kI8Ldzfs6hKuneZBOySTAjbg18l62w5E+Y6m94Y2qk2cuYLhtZqa+3Eb2vSeDFJ3CqfOJ5P75Y0cLFT3N2zqFq6N9gTsBWScwFLbF2YjkKqdpQ0xfSs4GCCiD9bSNZOZkua7VRJnGomfTn/JrK126qc+G0kjTNqJnhfzuIfiBGmMkkDFzvJ3cWiWunegD0B20jx1o90mF/GOP2FX9YUqWw+8DZI0G9P1o5fsobUBIkNBJgZtfYAKrW1TuK3mTR+M//qw/EU2cXS7E07SQMXO8ndw5Dxz3l7nzGJ+Z3X5/jJj0rWm+neudF10r3Ltj3FzEDx+oo90g70CYB2GupmyFTIuvQdDxivLyx5t2n5tmDdxO+6QDE6z5R7Gai0z0g/0ZaEsY9tuFMuDTxCR4W2JA1cOOHuYgHVS/cuZUnxLswDKMU3kfUVNjR/3ct8yfSJJFl/iMTgfdsQwHFbpYnfm5g7yF8dCQ4miFwNkzpX7pwlDVxsnbuHIVCddG8ArGnb+Zg7I8W7vclneWdpkKA/3ytYnawdHrSO/e+jnk4yczxSuOdi3bYqJX6PZCrPHUgauHAB9/csqpLuDaCTnu1A0zTjoyXmLn4uSUch4VsnN1nslsdLk7UnkyhgeQlRnP7LrSQGImhX21HWbGutxO98OxraKXPROinekgYudpInYvW2nu5tXi4scylyV20i2dsY1gxX5XUFQmyE+3sW7IUXzIBPAAAgAElEQVR073IqJ36vtU/Q72NmXAqF2HmeKBZ7xXqJ35UZb4EP1Jn7jKy7gxBV54lhiBBi97n/aogQwhWkWAghHJFiIYRwRIqFEMIRKRZCCEekWAghHJFiIYRwxBM3ZUm6txC7z/09C5eme4OZtH21UpZVmJimoWkasd4wMS2BukaQzeYZx5GkK7Hd3F8srOne1oAbM91b56Ar072Dg11GMI6Sj9vbLnH6t/0YQnihWABeTfcu5loI4X3un7OoQrp3+KpGx938r6/xUJY/m0/CDqLe6IMR4/F1e0aENWHbfMx9YobA8Tb0iSjD1oN0qiQGAjARZawpYj4wFkHTukkqmbLntDp9234u+bRvRothwDHNmgZuOa/8eZrn4bO1W7p8dRJ416yR+hWoK9lPCJO7exZVSveO383Rdiw/t9BOAzo0mfE1nUH8+RSp3hiR4zMklUoJ2z4CTRlbkrYhbAb3Gsvj5xSiEzr6RBSlzJeucvp2ilQW/K+aGVedrbCoF8N0eztom8ys8SUOExvwk71stmuN/zfPL586nvVHbPMcvuNdMGImmE+2Eao4FyOeVu4uFtVK9/5kvpjk3dtBczbLTP7zyw1mvF4QtbON3Kjlyz2uMjbZRkfhS6Xb0rkNrag3QjRPRB3OG6ydvp2ansHnDxIEgq/6IZuF/OeWZnJ31/q9v8/8oo+Gl+1L8/MnxfNLoY5bCyjoE8OFYKD43VyZ1HDxtHN3sRj/nLd/PIte18R3Xi+z3kz3nrqzTrq3JVY/fKyZ7B2VzGT+cxsz0/mv7epQ2/uz+tox+UcCBEgzvKHkqnLp2+aXfCRDrq6BdoIE/TNkLqXIkv/MOqG7KdTTSTiVvwpTXLNq/uSTefRKBeGTeSTvW5Ryd7GAKqV757v3YVrNIcf9WfNzY45M4Rd39a9ye5PPUkzKmEyWvLDIidL3gVjTt+NkJtvo6G2nYS5DnBRTc+ZnR6G7xtURRUnCqeLlWl9Tu32zlxvwzU1JLqdwzP3Fokrp3kb3vgs/xhckdScL/i78c/k5AOOFQG2nLHMUnSpdR6zFpLz4uSjpxtAa91zYtl43ffv+rE5zZxfNZm8gfjdnfDbTyI1J2fXurSgOSVJ3sui25HBzyLXmkEYIO/dfDalWuvdIhtypEIybX5DxFNneAH5L9zx1qQcGjZf2mPnbDq8KpFBPtxPTQmg3Wle/C7XEqsTwkvTt1J0sfcf9ZO+kCuc+cyoEa/VwAPu7Us0rHiMAKj2otuTw3KjcmyE2xhOxeltP997Lyl1OFaL63N+zYK+me1dJbwdti/Pc3O3zEHueJ4qFKKM3hnaqDePGsX6ZqBTbToqFV430yysBxI5y/9UQIYQrSLEQQjjiqmIhLxgSwr1cVSyEEO4lxUII4YgUCyGEI1IshBCOSLEQQjgixWKLgmcW0M7Lbedi75NisVOOLpMYWmJLYXUnltAuLkuCldgVrigWvsbnCkGyFbbguca1txBCbC8XPBvybc7/wzu0//sw/R+MlYlz89H1d9foa8vwQTjKLyu2s0JsaM7McqgleQtC3ziEcuWAsfroMomzC8V063QTPdeLtTJ8fprQ4fynWpIXai2PfK/TtpXtOGY7J5bQThopoqGhJboKx7a2W0P6Wj3qvdXno6ebGGaRSGAZgMgQdN9qof92xX8MIarOBcXil7z/9jDqtT5i71BSMIxCEW7LMNy/VqF4gnpxDm61oNyG/JeQB4fM9SvEzi4wU/iCPUG9OEvshPE5eGaBUEM90Qs1xtObZnf//ns1pNZt22qF2NllstdajC99oZ1alKn9JM4+YqxQhEraPbpM4uwS4Qu13D+zQIhGlAvWYlRPamYJ7bX9RN+rkadMxY5zxTAEfQz17DBTx/qIvdNl/ir76HonRrgtQ7w/ythaCbInviBAPTcLv7QH6L9VW1gdPKPT9qDR8kv8LOovamn7xgqwQncA0jcsX8DbXyPNMsGj67dtZRzHV+gdcPsQubpHtJfbuLTdewfJLj6i9SikZvZDw2OZmxCu4oKehUkfQz0L734YJvbOQZKEeOtPsusXirz5fWv+2uqflrylaGo/+muPCbIP2M/UPevKZ5maX6Yj/xa0ddq2OTyHNmRdUMP80Qrb1i0QGcKI1jPlWoHbtUSbF4gMLRBZrJeehHAF9xQLAH2M99+Gdz/sJ/woxbDTQgHmL/GBwpcq2PwIKA4VfM8/xtaRan2Eb/4QKaAb4xedQsF4QmtDDfNTQOv6bdv+hJK5kIJyBeNBY/l5DyB1vZ7UdWOIFDm/j1SF7YTYKe4YhljpY7z/PYVQeAOF4vYhcnULdJ/IL1ih25wMBEila9APzxErrH+C+toSuV8dAA6QebBM4LTlkuSJLwhQQ+re+m1bpdI1EFhErdSTKD1n2zmVJ0MS4RauCuzdktKrEOtcDcmVXE2wXQ0p7fqv0XbwzAKR533F41iufAC23kP+GIXeR8k55Y/LmYXClQ/7lRljYjZQt/r8hdhue6dYlAieWaCPuvJDAhe3LYRb7c3/bz+6TF8Asult+PO2s20hXMxdE5ybZr25yZC71VK8hOnatoXwjj07DBFCVJf0pYUQjkixEEI44qpi8cILL+z2KQghKnBVsRBCuJcUCyGEI1IshBCOSLEQQjjiiZuynvvu1+j500Pw68+49jNz4Td9DPzFM0z96xI/+eddPT0hngru71m82cBw5CVOfquWBtuKZ2j/sz/mrUg7P3hzvUbCxLQEaudmTiBMTNOI9ZqfrmokBis9AxompsVWh/J2qiQ2fXwh3MH9PYsXD+JjmfSPpnjf+pTlvy3x9g9n+afzzfzhi9t5AnH6lfj6m61lXKVnvDpnI8RucX/PAoBDNLSWWex7hoM7fi5CPJ3c37P4zZfoPAP7yqz7owMc4BGfzzts62WVxEDAyI9YTBM9rRqZFZ0qiV4Yzn8miHqjD0Z6UMfDxLQu5i/3oJbpHYSvaoSOGP+dG02WP26nSmKggTGlnzgQHEwQOW6mWEwmUc4ZPRfbcnTShWOa5zCaxX/KPH/LfkLsBHf3LN78Oh+eacK38hmZj8qs/+hzciv76fjrFxlYd97CR6AThhUFRVFIzgWIXN3SK38IDiYIkUQx28wcC9meTi2rN0bEnyVq7lP4wvfGiByfIZlffjmLf8A6/2E9/yS5I6HCPIoQO8HdxeL3T8z/u8JS2Q2+4vPff8XKipMHZ3XSI2oh/Sp+M41+pGMLbwgL030c0jeLv+7xc0ly6+32yTx6XUNJ4ncQtbON3Gh/8V0l4ypjk210FAqC9fzjZCahuUXC9sTOcXexGP+ct388i17XxHdeL7P+9To66p5h6s5vufyzMuvXbHuKmS2f4AxTG524HFfpGYWQpqHZrpzozH9i3/T+rF6xINyfdRpQKkR1uLtYgDmJ+Ygvf1dm3X+usOlXEne20rw4z/0tnBo002q9HNrZSrOT3Ub6jaHGKIRuqGYYr4+Gl+2btTf5mJmWlwAId3B/sTAnMZc+K7NO/4ovHTfkI9Cd/x0PovYGIJsyuvXjU8zU+QmaX/zgYB+BuvXai5OZtLYJ4e5AMXy3UyVR7p4Lq8KQJEUqq9N2yrJ9p0rXkRyZEcd/oBDbyv1XQ+4/ROc5At9/kYGDvykON77p44PvN+HjC+YddQ900rMdaJpmfJxMolwqzGBwc6KLyICGNgD6RJL0Yte6LcbPRWm9EUHTQoBxNSR3pGPtnXpjaKfy06DGFY84wKUeGEwQ0TTM1kgqljkMIXaZq2L1Kq0/9ldf52/+/A/47KPpYrF46QBv/eUhHt7zwO3eqy7NCuE97u9ZAHd/+jvu/rRk0uI/VvjHH256xmJHBV/145sbk0IhPM0TxcKrijdZ5Uhu9ZZxIXaZFIttlLrUI70JsWe4/2qIEMIVpFgIIRyRYiGEcESKhRDCESkWQghHpFgIIRyRYiGEcMQT91lIurcQu8/9xeLNBob7mvHpS/zLr62Pnhrp3sHvrnDMd5+/32ieRVWEiWlGOlZuNAmnQjCq0L+RJ0U7VRIDfrIVYvuEcAv3F4tdT/euLDjYRZs1C3NkE7d0S/K38AiPzFm4N91bn91afI4QXuH+nkXV0r2DqDcihVAbfSJKz6UU1qEEsDptu2mMJCEzwbuYuF1M9Y6gad0klQwdJSngq5K/T3WQKc2oKEn+tu5TPEf7cnvWhSR/i53h7p5F1dK9jULhz0bNJO4k2cLyEM0T0UJCd5KQ/Y1jR0J03DXWRScg0GvE4MXPKUQndPSJKEqZkJrNJH+X7pMvFMHBBKHGdDER3BbHB5L8LXaCu4tFtdK9O4P4STNsScZSL6Wgt5uAbbmR+o0/WPwiTiYLE5apO9kyydzlbC75OzU9A42t2CN6zbYsyeSM3CRNMQZQkr/FTnB3sahWuvfLDfjmpso/Ll66fHyKmUoFYUOJ4JtI/h7pJ5r1E9E0NFvPobStFFNzqwN+8yT5W2wHdxcLqF6696pf7ArLq5L6DZtN/k5d6jGGPFm/5SVIJW0RpLVx9asDhNhO7i8W1Uj3HsmQqwvQV5iLCKMOBsssNxK6C6nfm7ZO8ndvrKTnsFpxSGK21WvZvrebAFlScslV7CD3Xw2pSrp3nH4FYloETYsAkBtVgNSq5dYrEFuxmeRv+7tOcyQVYx4idU6BqxoRTSMC9ve0CrFDJN17p1RK+Jbkb+ER7u9Z4P107+JLjaKrCoIkfwuv8ESx8CL7TVSUvNRIkr+F93hiGCKE2H3uvxoihHAFKRZCCEekWAghHJFiIYRwRIqFEMIRKRZCCEekWAghHPHETVmS7i3E7nN/z+LNBoYjL3HyW7U02FYY6d5vRdr5wZopWdsjfH6axJknO37c4JkFtIvLaz6xKsR2cH/PwsXp3rshdb1eniMRu8L9PQvAzeneQjwt3N+zqEq69wqxIZ35WzX4Ty4YITSL9UTfqyn8SofPTxM6bH4oWRc8s0AksGxbZ3NiCe3kErlbLfTfXrst67rcrUY4+ZDMhVoz8HeF2NCcGexbQ/paPeo9+6GCZxaIPO9DuXJgVXt6uome68+u/nuoJWk7Rsm/xYPGQntCVOLunkXV0r0Blgm8BsMXWlAutJCcXyByPv+I+wodNKJcaEG50ESaBfrM+YjgmQUir9QQze/3cUmzR5dJnHxE+ppRKNZrK1RY10LmG3OWxO8nqBfn4JaxTrlWg//sEmEqK20vXyiCZxYINdQXzlm5BSHbPIf136KR3OE5YifW+/cTTzt3F4tqpXsDUEP6RvEXPv7zevTDD80v4wH6C7+sz5L6ON9zeELwFez7Xa+xzBl8SezsAjO3rD2ASm2t0B2A9M+Lv+DxK43FxO8TXxCgnpv5eZl7B8kuPqL1aOW/KDWzHxoel0x2msexnDO3v0aaZYKFtqz/FgfIPIDm5p2frBXe4u5hyPjnvL3PmMT8zutz/ORHJevNdO/c6Drp3uXc28cMjwofbUMNQE/XAY9pqNtP5l6Z/QFfYIG2B40ot+3Ly7cFsJ+pCm0BULdAZAgjOs+UawUq7XO7lmjzApGhBSK24U7pcZ5lan6Zjgpt3f+0ZvVCIUq4u1hA9dK9Sx19TPPifu5jmQe4UA/m577Chuave5kvmZ5uJPvKHIkzTbYhgOO2jj62J35vYu4gdb2e1HXzuOf3kbpS7pyf0NpQw/zUhpoWwsbdwxCoTro3AMsE3siXlieopxfg44OkgPbnl9E/3VdYF3wl3ys4QObBMoHTxfF++Ix17L8P9b1GZgKzhXsu1m3rjWJ5C7+xUEz8vn2o8tzBiaV1760oDklWn7MxxKkhtVavRoh1uL9nUZV0b4Aa0p8+RBuaMz4+aEQxewPxK410DM2iBYztcg+K3fL4lRY4P10cHjxoRAHLS4gO0H+tnsTZWbTnG1HWbKuJ1ouzaEPG59ytRnKHH5a0M4120lxUciWllH24U0vygrFtqvSc12lHCCc8Eau39XRv83JhmUuRu+roMonTMLyBL7IxrKkrDHuE2Cnu71mwF9K9y8kPhZo28ItvDGtmflG/jeclRHmeKBZ7hf1GKWxDobU9Qb04S6DO3Of2ujsIUXWeGIYIIXafDHyFEI5IsRBCOCLFQgjhiBQLIYQjUiyEEI5IsRBCOCLFQgjhiCduypJ0byF2n/t7Fi5N97YLE9M0Yr27fR5CbB/3Fwtrurc14MZM99Y56CjdO3xVIzG4lQD9IOqNSgUhTr+i0D+yheaFcDn3FwtA0r2F2H3un7OoQrq3ekMzHsI6EkHTukkq/cSB4GCCyHEzfmYyiXLOyL+mUyUxEDCDaXIklQwdWsgI1z2loXWmiZ5WLU+LholpXcxf7kEdr9yubTk6aXN7MHo+XbNJsv6Qca7kCucphBu4u2dRpXRv9bRCchL0iShK/gvYGyPizxJVFBRFIUnIHKaEiQ34yV42lhvbx+lXoqQXITeqoNgKRYmSdgsFqDdG5PgMyfzyy1n8AzFberfveBeMmOcz2Ubo6lrZ3kLsLHcXi6qme1sFUTvbyI0Xv/Txuzl8Te3AfeYXfTS8vMlz/mQeva7BkqRlOd6opacwrjI22UaHZQ5Enxgu9DTid3PQ2CqvKRSu4e5iMf45b/94Fr2uie+8Xma9me49dWcT6d5A2ykNTTP/d6rN/HKmUE8njeHGZq5wjKv0jEJI09A0a89BZ/4T+6b3Z3WaWyqUg0/m0Td4aCG2k/vnLLYr3btkzsAuTr8Sx5iLSKB+Umm7Ckb6UUaA3hjaDZX7p1OA2VuxtNPe5GPmriRjCm9wd88CqpjubZUilYVAr7pON3+tIclal1JNhSFJilRWp+2UpafRqdJ1JEdGLrcKj3B/z6JK6d7xm2m6BixXQy710H5VI6JphZf65EYV+kfCxPJXPjAmRXtGAFKo491ohashFXoEvTFjSGPsTfpyjzFPcakHBhNENI2QcTS52iE8xROxeltP995uYWJaBxn58os9zP09CzyQ7t3bQdviPDd3+zyE2EaeKBauVRhy6KQv98tLfMSeJsViK/JXPYR4Crj/aogQwhWkWAghHJFiIYRwRIqFEMIRKRZCCEekWAghHJFiIYRwxBP3WUi6txC7z/09CxenewcHE2gV06yMxG8jE8N81L1zO85CksXFznB/sahSuvdOCw520TaZRNn21G9JFhc7w/3FAvBqurc+6+DZeSE8wv1zFlVI9w5f1ei4m//1DaLeiODPRum5lDI/98FImWRuW5qWmeA9MUPgeBv6RJRh60HMRHAmoow1RQgdAcjnZ2TKnpOxDRSzLeznYhwzBKP5cy/3KLw9WXx1Mrm5rW25mdNxKVU4F0kWF+txd8+iSune8bs52o7l5xbaaUCHJjNStzOInyypcRwkcPsINGVQFKXwRTOEiQ0EmBk1lsfPKUQndHuauEVwMEGoMV1MAB+F0A2VoJng5X/VzO/qbIVFS05nbwdtk5k1vsTlksnt52csj5L1R2zzHJIsLtbj7mJRrXTvT+bRj3QYX/reDpqzWWbyn19ugGyKlKMEbp30zdKvaivqjRDNE1GH8wZhuo9DesTyOoGRm6TxE+yE1PQMPn+QIBB81Q/ZLOQ/tzSTu7vW7335GMD8/Enx/FKo49YCKsniYn3uLhbVSvceT5FdbKa1E8LHmsneUclM5j+3MTOd/9puMIEb4EiAAGmGL20kzWKGKVsAcIqpOfNLPpIhV9dAO0GC/hkyl1JkyX9m1fnZVU4mXzV/8sk8eqWCIMniogx3FwuoUrp3vnsfptUcctyfNT83WkNzV/8qtzf5LMWkjMkkybkAkQ11241CVRSktTFfqOJkJtvo6G2nYS5DnBRTc+bn/HBpTcbVEUVJwqni5Vpfk/1NJrzcgG9uSgJ7hGPuLxZVSvc2uvdd+DG+IKk7WfB34Z/LzwFsPoE7fi5KujG0xj0Xtq3JTPrsyeK93QQsheD+rE5zZxfNZm8gfjdnfM6mzC+3g2Rxy5AkdSeLfiRk2d4ccq05pBHCzv1XQ6qU7s1IhtypEIybX5DxFNneAH5L9zy16QTuFOrpdmJaCO1GK9HT6ppbx88pYE0WX7S/OzV1J0vfcT/ZO6nCuc+cCsFaPRwgf/VkdTK5Sg8qiQEN7ZSxLjcq92aIjZF0b8+TZHGxM9zfs8AD6d67SZLFxQ7xRLEQZUiyuNhhUiy8SpLFxQ5z/9UQIYQrSLEQQjjiqmKx1pUSIcTuclWxEEK4lxQLIYQjUiyEEI5IsRBCOCLFQgjhyB4pFivEhhZQjxqfwuen0c6vFP47cebJLp6bEHvDnryDM36lRR6qEqLKXNGz8DU+VwiSrbAFzzWuvYUQYnu5oGfxbc7/wzu0//sw/R+MlYlz89H1d9foa8vwQTjKLx20GD4/TdenTfRcz9fCx6gXZ83k6hrS1+pR74ExfNGZT+8nEFhCTzfRc/0xsaG5YiZEOt9OybYf18ErTxi7UFvoxQTPLBB53ody5cDW/kmEcCEX9Cx+yftvDzN1rI/YO10lPQyjUITbMgz3OysU5fgCOtxoQbnQgnJrP4GzS5bE7mUCzx9CudBiFIUTD+GWue21eggsFuZCbNsO15BdXKLjRH7dE4KvQPrnUijE3uSCYgHoY6hnSwuGj653YoTbMsT7o4xtIUFWT9eZPQng9tdI277kNfYv+O1a+m+b/33vINlFa0vWbZ8l9XENzc3m5OnRL/FTQ+oeQuxJLhiGmPQx1LPw7odhYu8cJEmIt/4ku+VCsdqzTM1T8t5UqyeWIQtADekKW6bSNfSd/pIgNRBYho/rJFdC7FnuKRYA+hjvvw3vfthP+FGK4aoXCoAntDbUMD9Vfp16cZaGX7Sg3M5/Xiy3oeFeDWPzCwSPHoRXIHvDHR01IbaDu4oFGAXje2NVbdIX+ILwdWMiMnhmkQA1RMsOFx7TUGcpJEe/xF8H2TXajv9qP4k3voB5Hz0yBBF7mPuKxTbQ0/vpGJpGA6CW5IWaCsOFA/Tf2o921tx2sZbcGh0LAG4fYubkHNyqreo5C+E2rkr39qYVYkMPyVguoQqxF8kge4uCZ3Sa01+TQiH2vKdiGLItji6TOLuAb7Ge6HtSc8XeJ8Vis+7V0HOhZbfPQogdIz+JQghHpFgIIRxxVbF44YUXdvsUhBAVuKpYCCHcS4qFEMIRKRZCCEekWAghHJFiIYRw5KkuFsEzC4UU8J0+riSOC695qouFEMI5TxQLSf8WYvd54NmQ6qR/B88sEAksGx8eNNoSuMPnpwkdNv47d6ulkMFpXc5iPdH3jBwMI8W7hnTDAoG6WpIXaomzYkkFtyaIU3zozGwn+fEW/jmE2CUe6FlUIf37xBKRV2qIXjBTu61R/Yfn6PiVsTyarqHttWWCAKzQQaOx/YUm0izQZ51nOLxsJobXEucJ6sU5Syp4Df5CgvgKsbPLZK+Z625AV75oCeEhHigWbD39e2o/et0j2sute9BY6Emk0jWW7Q7Qf8We5G3fz1fsOZz4ggD13LSlgj+i9aiRd9Fm3fZeDcPpkraE8AAPDENMW0n/vldDz60ltKFpQuSHDeW228cMjwofbUMXjFcKVFS3QGQIIpZFuVZzv0/3rffXCeF63ikWsLX079u1KLdr4cQS2sVl7r+39q974e1iF+oLn/vW2qFkHqTYDvief4y1E9f+/DJ8ukbhEcKFvDEMsdLHeP97CqHwJl8TsNaQxKL9+WVLj+AJwVfWmGe4fYjc4TliJ1avSqVr0A/rxbeaHV2m6/Dq7YRwO2/1LDbrxBLaySXzg3GlIg7mRGZ58SuNdAzNogWMfXIP1uqJHKD/Wj2Js9NoJ81F+asn92roufXIkhheTzJdQ9eW/yghdpar0r33Zvq3EHuD94YhQohdIcVCCOGIFAshhCNSLIQQjkixEEI44qliIenfQuweTxULIcTukWIhhHBEioUQwhEpFkIIR/bEsyHPffdr9PzpIfj1Z1z7mbnwmz4G/uIZpv51iZ/8866enhB7gvd7Fm82MBx5iZPfqqXBtuIZ2v/sj3kr0s4P3lyvkTAxLYHauZkTCBPTNGK95qerGonBSo+ohYlpMTNBy6JTJbHp4wuxM7zfs3jxID6WSf9oivdvW5b/2xJv/3CWfzrfzB++uJ0nEKdfKRul49y4Ss94dc5GiO3i/Z4FAIdoaC2z2PcMB3f8XITYm7zfs/jNl+g8A+WS6/7oAAd4xOfzDtt6WSUxEDBTuNNET6ukwBgm9MJw/jNB1Bt9MNKDOh4mpnUxf7kHtUzvIHxVI3TE+O/caLL8cTtVEgMNjCn9Rs7GYILIcTOaeDKJcs7oudiWo5MuHNM8h9Es/lPm+Vv2E6IavN2zePPrfHimCd/KZ2Q+KrP+o8/Jreyn469fZGDdeQsfgU4YVhQURSE5FyByddXswoYEBxOESKKYbWaOhcxXBayhN0bEnyVq7lP4wvfGiByfIZlffjmLf8A6/2E9/yS5I6HCPIoQ1eDtYvF7M5r/9yssld3gKz7//VesrDjJ99FJj+R7DhC/mUY/0rF6MtKxMN3HIX2z+OseP5ckt95un8yj1zWUxP4FUTvbyI32F4OGx1XGJtvoKBQE6/nHyUxCc8taWWBCbIy3i8X457z941n0uia+83qZ9a/X0VH3DFN3fsvln5VZv2bbU8xs+QRnmNroxOW4Ss8ohDQNzXblRGf+E/um92f1igXh/uxmAkqFqMzbxQLMScxHfPm7Muv+c4VNv/a4s5XmxXnub+HUoJlW6+XQzlaanew20m8MNUYhdEM1s0J9NLxs36y9ycfMdKpMA0JUn/eLhTmJufRZmXX6V3zpuCEfge7873gQtTcA2ZTRrR+fYqbOT9D84gcH+wism+QfJzNpbRPC3YHiG9U6VRLl7rmwKgxJUqSyOm2nLNt3qnQdyZEZcfwHCrEl3r8acv8hOs8R+P6LDBz8TXG48Q047tIAACAASURBVE0fH3y/CR9fMO+oe6CTnu1A0zTj42QS5VJhBoObE11EBjS0AdAnkqQX18/njp+L0nojgqaFAONqSO5Ix9o79cbQTuWnQY0rHnGASz0wmCCiaZitkVT6y78sSYht4Kl070rrj/3V1/mbP/8DPvtoulgsXjrAW395iIf3PHC796pLs0K4j/d7FsDdn/6Ouz8tmbT4jxX+8YebnrHYUcFX/fjmxqRQCFfbE8XCq4o3WeVIbvWWcSG2mRSLXZS61CO9CeEZ3r8aIoTYEVIshBCOSLEQQjgixUII4YgUCyGEI1IshBCOSLEQQjiyJ+6zkHRvIbaf94vFmw0M9zXj05f4l19bHz010r2D313hmO8+f7/RPIuqCBPTjHSs3GgSToVgVKF/I0+KdqokBvxkK8T2CbFTvF8sdj3du7LgYBdt1izMkU3c0i3J38Il9sichXvTvfXZrcXnCOEW3u9ZVC3dO4h6I1IItdEnovRcSmEdSgCr07abxkgSMhO8i4nbxVTvCJrWTVLJ0FGSAr4q+ftUB5nSjIqS5G/rPsVztC+3Z11I8reoDm/3LKqW7m0UCn82aiZxJ8kWlodonogWErqThOxvHDsSouOusS46AYFeIwYvfk4hOqGjT0RRyoTUbCb5u3SffKEIDiYINaaLieC2OD6Q5G9RDd4uFtVK9+4M4ifNsCUZS72Ugt5uArblRuo3/mDxiziZLExYpu5kyyRzl7O55O/U9Aw0tmKP6DXbsiSTM3KTNMUYQEn+FtXg7WJRrXTvlxvwzU2Vf1y8dPn4FDOVCsKGEsE3kfw90k806yeiaWi2nkNpWymm5lYH/OZJ8rfYDG8XC6heuveqX+wKy6uS+g2bTf5OXeoxhjxZv+UlSCVtEaS1cfWrA4TYCu8Xi2qke49kyNUF6CvMRYRRB4NllhsJ3YXU701bJ/m7N1bSc1itOCQx2+q1bN/bTYAsKbnkKqrI+1dDqpLuHadfgZgWQdMiAORGFSC1arn1CsRWbCb52/6u0xxJxZiHSJ1T4KpGRNOIgP09rUJUiaR7u0WlhG9J/hYu4f2eBd5P9y6+1Ci6qiBI8rdwiz1RLLzIfhMVJS81kuRv4T57YhgihNh+3r8aIoTYEVIshBCOSLEQQjgixUII4YgUCyGEI1IshBCOSLEQQjiyJ27KknRvIbaf93sWbzYwHHmJk9+qpcG2wkj3fivSzg/WTMnaHuHz0yTOPNnx4wbPLKBdXF7ziVUhNsP7PQsXp3vvhtT1enmORGwL7/csADenewuxV3i/Z1GVdO8VYkM687dq8J9cMEJoFuuJvldT+JUOn58mdNj8ULIueGaBSGDZts7mxBLaySVyt1rov712W9Z1uVuNcPIhmQu1ZuDvCrGhOTPYt4b0tXrUe/ZDBc8sEHneh3LlwKr29HQTPdefXf33UEvSdoySf4sHjYX2xNPL2z2LqqV7AywTeA2GL7SgXGghOb9A5Hz+EfcVOmhEudCCcqGJNAv0mfMRwTMLRF6pIZrf7+OSZo8ukzj5iPQ1o1Cs11aosK6FzDfmLInfT1AvzsEtY51yrQb/2SXCVFbaXr5QBM8sEGqoL5yzcgtCtnkO679FI7nDc8ROrPfvJ/Y6bxeLaqV7A1BD+kbxFz7+83r0ww/NL+MB+gu/rM+S+jjfc3hC8BXs+12vscwZfEns7AIzt6w9gEptrdAdgPTPi7/g8SuNxcTvE18QoJ6b+XmZewfJLj6i9Wjlvyg1sx8aHpdMdprHsZwzt79GmmWChbas/xYHyDyA5uadn6wV7uLtYcj457y9z5jE/M7rc/zkRyXrzXTv3Og66d7l3NvHDI8KH21DDUBP1wGPaajbT+Zemf0BX2CBtgeNKLfty8u3BbCfqQptAVC3QGQIIzrPlGsFKu1zu5Zo8wKRoQUituFO6XGeZWp+mY4Kbd3/tGb1QvHU8XaxgOqle5c6+pjmxf3cxzIPcKEezM99hQ3NX/cyXzI93Uj2lTkSZ5psQwDHbR19bE/83sTcQep6Panr5nHP7yN1pdw5P6G1oYb5qQ01LZ4y3h6GQHXSvQFYJvBGvrQ8QT29AB8fJAW0P7+M/um+wrrgK/lewQEyD5YJnC6O98NnrGP/fajvNTITmC3cc7FuW28Uy1v4jYVi4vftQ5XnDk4srXtvRXFIsvqcjSFODam1ejXiqef9nkVV0r0Bakh/+hBtaM74+KARxewNxK800jE0ixYwtss9KHbL41da4Px0cXjwoBEFLC8hOkD/tXoSZ2fRnm9EWbOtJlovzqINGZ9ztxrJHX5Y0s402klzUcmVlFL24U4tyQvGtqnSc16nHSFgj8TqbT3d27xcWOZS5K46ukziNAxv4ItsDGvqCsMeIarF+z0L9kK6dzn5oVDTBn7xjWHNzC/qt/G8xNNqTxSLvcJ+oxS2odDanqBenCVQZ+5ze90dhNiwPTEMEUJsPxnYCiEckWIhhHDEU8VChiBC7B5PFQshxO6RYiGEcESKhRDCESkWQghHpFgIIRyRYrFpK8SGpiVBSjw1nu5icXSZxNDa0XSVtz1A/4V8VJ4Qe58nioWv8blirkP5LXiuce0thBBb44FnQ77Nu//jHdr/fZj+D8bQV+3lo+vvrtHXluGDcJRfVmjblu3woBHlVw/RThaTO/PJ16szIGqJm+nc9m0flzzWbnmYC3uSthB7gQeeOv0l7789jHqtj9g7lBQMo1CE2zIM91cuFJxYMhO4rS/gOYAytZ/E2UeMFWLwnxB8vrhd+Pw0ofOHiF+pLbPtY8sBjELh/7jJfEp0BfVMVf8RhNh13vjp08dQzw4zdayP2Dtd5pDER9c7McJtGeL9UcZWdzmKpvaj1z2ypFdV8izqFUtS969qnZ3f0S/xU89woSdxAFV6FWKP8UDPwqSPoZ6Fdz8ME3vnIElCvPUn2fULBcC9GnpuLaENTROyvVCnjJIhBw8OrX9urY/wzR+SWDqxp3nr508f4/2349z/L2cJOy0UebdrK7xQx+LEEtpr+y0v33HYs4Ay7+cQYm/xVrEAo2B8TyEU3kChsFpjSBJsfgTz+4qvEvxG+VcXrXL7ELm64pvFjDkLeSmP2Fu8MwzZCtvQwnhHaBzgXg1jD6YJDS3RlW6i53odQWu69gNLz2LVttYDHKD/QiOxQmo35G61bPufJcRO8sClUyGEG3hvGCKE2BVSLIQQjkixEEI4IsVCCOGIFAshhCOeKhYvvPDCbp+CEE8tTxULIcTukWIhhHBEioUQwhEpFkIIR/bEsyHPffdr9PzpIfj1Z1z7mbnwmz4G/uIZpv51iZ/8866enhB7gvd7Fm82MBx5iZPfqqXBtuIZ2v/sj3kr0s4P3lyvkTAxLYHauZkTCBPTNGK95qerGonBSg+rh4lpsdUBwZ0qiU0fX4id4f2exYsH8bFM+kdTvG9N2v63Jd7+4Sz/dL6ZP3xxO08gTr9SMUrHmXGVnvHqnI0Q28X7PQsADtHQWmax7xkO7vi5CLE3eb9n8Zsv0XkG9pVZ90cHOMAjPp932NbLKomBgJHxuZgmelo1gnA6VRK9MJz/TBD1Rh+M9KCOh4lpXcxf7kEt0zsIX9UIHTH+OzeaLH/cTpXEQANjSj9xIDiYIHLcfLXBZBLlnNFzsS1HJ104pnkOo1n8p8zzt+wnRDV4u2fx5tf58EwTvpXPyHxUZv1Hn5Nb2U/HX7/IwLrzFj4CnTCsKCiKQnIuQOSqo9cPVRQcTBAiiWK2mTkWom29nXpjRPxZouY+hS98b4zI8RmS+eWXs/gHrPMf1vNPkjsSKsyjCFEN3i4Wvzej636/QvkAvK/4/PdfsbLiJN9HJz2iFpO9b6bRj3Q4e1tZWWG6j0P6ZvHXPX4uSW693T6ZR69rKIn9C6J2tpEb7S8GDY+rjE220VEoCNbzj5OZhOYWSQUV1ePtYjH+OW//eBa9ronvvF5m/et1dNQ9w9Sd33L5Z2XWr9n2FDNbPsEZpjY6cTmu0jMKIU1Ds1050Zn/xL7p/Vm9YkG4P7uZgFIhKvN2sQBzEvMRX/6uzLr/XGFls+12ttK8OM/9LZwaNNNqvRza2Uqzk91G+o2hxiiEbqhmariPhpftm7U3+ZiZlhcQiJ3h/WJhTmIufVZmnf4VXzpuyEegO/87HkTtDUA2ZXTrx6eYqfMTNL/4wcG+wmsKK4uTmbS2CeHuQPGdrZ0qiXL3XFgVhiQpUlmdtlOW7TtVuo7kyIw4/gOF2BLvXw25/xCd5wh8/0UGDv6mONz4po8Pvt+Ejy+Yd9Q90EnPdqBpmvFxMolyqTCDwc2JLiIDGtoA6BNJ0otd67YYPxel9UYETQsBxtWQ3JGOtXfqjaGdyk+DGlc84gCXemAwQUTTMFsjqfRXflmSEFXmqXTvSuuP/dXX+Zs//wM++2i6WCxeOsBbf3mIh/c8cLv3qkuzQriP93sWwN2f/o67Py2ZtPiPFf7xh5uesdhRwVf9+ObGpFAIV9sTxcKrijdZ5Uhu9ZZxIbaZFItdlLrUI70J4RnevxoihNgRUiyEEI5IsRBCOCLFQgjhiBQLIYQjUiyEEI5IsRBCOLIn7rOQdG8htp/3i8WbDQz3NePTl/iXX1sfPTXSvYPfXeGY7z5/v9E8i6oIE9OMdKzcaBJOhWBUoX8jT4p2qiQG/GQrxPYJsVO8Xyx2Pd27suBgF23WLMyRTdzSLcnfwiX2yJyFe9O99dmtxecI4Rbe71lULd07iHojUgi10Sei9FxKYR1KAKvTtpvGSBIyE7yLidvFVO8ImtZNUsnQUZICvir5+1QHmdKMipLkb+s+xXO0L7dnXUjyt6gOb/csqpbubRQKfzZqJnEnyRaWh2ieiBYSupOE7G8cOxKi466xLjoBgV4jBi9+TiE6oaNPRFHKhNRsJvm7dJ98oQgOJgg1pouJ4LY4PpDkb1EN3i4W1Ur37gziJ82wJRlLvZSC3m4CtuVG6jf+YPGLOJksTFim7mTLJHOXs7nk79T0DDS2Yo/oNduyJJMzcpM0xRhASf4W1eDtYlGtdO+XG/DNTZV/XLx0+fgUM5UKwoYSwTeR/D3STzTrJ6JpaLaeQ2lbKabmVgf85knyt9gMbxcLqF6696pf7ArLq5L6DZtN/k5d6jGGPFm/5SVIJW0RpLVx9asDhNgK7xeLaqR7j2TI1QXoK8xFhFEHg2WWGwndhdTvTVsn+bs3VtJzWK04JDHb6rVs39tNgCwpueQqqsj7V0Oqku4dp1+BmBZB0yIA5EYVILVqufUKxFZsJvnb/q7THEnFmIdInVPgqkZE04iA/T2tQlSJpHu7RaWEb0n+Fi7h/Z4F3k/3Lr7UKLqqIEjyt3CLPVEsvMh+ExUlLzWS5G/hPntiGCKE2H7evxoihNgRUiyEEI5IsRBCOCLFQgjhiBQLIYQjUiyEEI5IsRBCOLInbsqSdG8htp/3exZvNjAceYmT36qlwbbCSPd+K9LOD9ZMydoe4fPTJM482fHjBs8soF1cXvOJVSE2w/s9Cxene++G1PV6eY5EbAvv9ywAN6d7C7FXeL9nUZV07xViQzrzt2rwn1wwQmgW64m+V1P4lQ6fnyZ02PxQsi54ZoFIYNm2zubEEtrJJXK3Wui/vXZb1nW5W41w8iGZC7Vm4O8KsaE5M9i3hvS1etR79kMFzywQed6HcuXAqvb0dBM9159d/fdQS9J2jJJ/iweNhfbE08vbPYuqpXsDLBN4DYYvtKBcaCE5v0DkfP4R9xU6aES50IJyoYk0C/SZ8xHBMwtEXqkhmt/v45Jmjy6TOPmI9DWjUKzXVqiwroXMN+Ysid9PUC/OwS1jnXKtBv/ZJcJUVtpevlAEzywQaqgvnLNyC0K2eQ7rv0UjucNzxE6s9+8n9jpvF4tqpXsDUEP6RvEXPv7zevTDD80v4wH6C7+sz5L6ON9zeELwFez7Xa+xzBl8SezsAjO3rD2ASm2t0B2A9M+Lv+DxK43FxO8TXxCgnpv5eZl7B8kuPqL1aOW/KDWzHxoel0x2msexnDO3v0aaZYKFtqz/FgfIPIDm5p2frBXu4u1hyPjnvL3PmMT8zutz/ORHJevNdO/c6Drp3uXc28cMjwofbUMNQE/XAY9pqNtP5l6Z/QFfYIG2B40ot+3Ly7cFsJ+pCm0BULdAZAgjOs+UawUq7XO7lmjzApGhBSK24U7pcZ5lan6Zjgpt3f+0ZvVC8dTxdrGA6qV7lzr6mObF/dzHMg9woR7Mz32FDc1f9zJfMj3dSPaVORJnmmxDAMdtHX1sT/zexNxB6no9qevmcc/vI3Wl3Dk/obWhhvmpDTUtnjLeHoZAddK9AVgm8Ea+tDxBPb0AHx8kBbQ/v4z+6b7CuuAr+V7BATIPlgmcLo73w2esY/99qO81MhOYLdxzsW5bbxTLW/iNhWLi9+1DlecOTiyte29FcUiy+pyNIU4NqbV6NeKp5/2eRVXSvQFqSH/6EG1ozvj4oBHF7A3ErzTSMTSLFjC2yz0odsvjV1rg/HRxePCgEQUsLyE6QP+1ehJnZ9Geb0RZs60mWi/Oog0Zn3O3GskdfljSzjTaSXNRyZWUUvbhTi3JC8a2qdJzXqcdIWCPxOptPd3bvFxY5lLkrjq6TOI0DG/gi2wMa+oKwx4hqsX7PQv2Qrp3OfmhUNMGfvGNYc3ML+q38bzE02pPFIu9wn6jFLah0NqeoF6cJVBn7nN73R2E2LA9MQwRQmw/GdgKIRyRYiGEcMRTxUKGIELsHk8VCyHE7pFiIYRwRIqFEMIRKRZCCEc8cVOWpHcLsfvcXyzebGC4rxmfvsS//Nr6aKmR3h387grHfPf5+43mVVRFmJgWog3IjSbhVAhGFfpHNtBEp0piwE/2cg/q+HadpxBb5/5i4eL07uBgF22TSZRzRnolI/GNNzKu0iNFQniAR+Ys3Jverc86ev5dCM9zf8+iKundAEHUGxHjYStAn4jScymFdSgBgKWnEBxMEGkaI0mI0BEAnbQ5XAhf1cxlETStm6SSoUPrYt4ynChukx+mdJBR+rH1PzpVEgMNjJnLrfsUz9G+HHIkC+2EiWldzI9m8Z8KGGE51t6OEFXi7p5F1dK7jULhz0ZRFAVFSZItLA/RPJFfrpAkRGLQkjl1JETHXWNddAICvSpBIH5OITqho09EUUoLAEahCZEstJs5ZilIlc6yZJ98oQgOJgg1pomay5VRCN1QLclYPgKdMGz+bbkjIWK96xxMiA1yd7GoVnp3ZxA/aYYvFTK4US+loLebgG05xG+mwR8sfhEnk4UJy9SdLHpdgyUFq5Iw3cchfbNYQuLnksWk7gpS0zPQ2FoSj2e2NaIWcy1GbpLGT7Azv0C3rI+TmYTmFnmBoagudxeL8c95+8ez6HVNfOf1MuvN9O6pO+ukd7/cgG9uqnyITOny8SlmKhWE8SlmHJ/8DFMbnbgc6Sea9RPRNDRbz6G0rRRTcz4aXi7fzP1ZfYMHFmJ97i4WUL307lW/2BWWd7bSvDjP1qctm2nttHzsbLUndVeQutRjDHmyfiJX868QKmmLIK2NOvOfbPkkhXDM/cWiGundIxlydQH6CnMRYdTBYJnlEO4OQDa1xfDaOJlJH4Hu4vvCwt2BYlJ3b6yk57BacUhittVr2b63mwBZUnLJVewg918NqUp6d5x+BWJaBE0zXtGTG1WA1Krl1isQWxE/F6X1RgRNC5nHS5I70rHmPsHBBJHj+ZKSI6kY8xCpcwpc1YhompnGnSZ6WpU0brGjPBGrt/X0bhfoVEn0wnDpl7zSciFcxv09C/ZCencQtTcA2eiqghB81Y9vbkwKhXA9TxQLL7LfRIVxo5RleFMccuRIKnIDlXA/TwxDhBC7z/1XQ4QQriDFQgjhiBQLIYQjUiyEEI5IsRBCOCLFQgjhiBQLIYQjnrgpS9K9hdh97u9ZvNnAcOQlTn6rlgbbCiPd+63/n72zC20lv+/+d0l3l1apw+pQe3epWSyfiwrKUQOiJtkDGbWsCycqRi7UcMpSghCsD1h7Ye1NWsGAw148K/dChnWIoicXBRMFHguRIRfegKZgUkwFRaYwlBzLFEN65GIv8dlpmj1L97mYF81II2ksjyzN+PuBkKN5+Wu8MF/9X2Y+v9wivjfQkjU+hHwF0k66z940ipIESZJQzKRRlCoQE30OvRHa99CMRcbN9IeF1e5tFdzodm8Vr0zM7j0I0/ydvGZpgGtTRnbs30GIH8ICwDTbvQdB8zcJEtM/Z+GB3Tu9IyF2bPz6duS9mrdCgLi3DpQ0K7fdKdGxeZsW7aM24ksRqEcF7Fq/JCGishkHjgo4mM31mL+drqnX1m2/FsM83ilclEZR6jaE69dlXKd+HSFbu93be83hy+dVKNGUbj+32sMJ0ZjunoVHdu/ycQuRB8bcwiLCUIFZ3bKZEBA1rFOZInJLbVQNi/a2guhmEZ1ZiRDis02beVsjjeJmHO2att2V+dvR1i1DVoDoQ92JlZgHrtSOfDcTQ+S0OeAmTqO4GYWyrbdrLRegX5+2vQAlmrPNc4SWloGSbjg/jSDVdy6G3FWmOyy8sns/vYS6ENNu+kwMc4qCtvH5fljX6AkQExG0apabuy7i4DSCmHlTqTZjt8a8WU7A3bzBYFu3/KyNkG4XFx5GAUUxbePC63NoHQ/6vT/B5VWvyNeYP+lcnwyxbg1QQD3aNeudlI9b/Z2l5M4y3WHhld27LkO50qS36QdzUA5FNE+NzxG0nxm3ba8E9+RcHazVX4j3lBMYzgBbd6mJ1kwYixAgRNtobslQYHzGEEmvDPFxFVgxVmE6e3rmT55eQu0XCE8vQT846Wa6wwLwyO5tdO/TmNeHHCfn+ud7LTTNX9zeX+XF2ZAlTBw4raJ6EbeYuN0wyNZdRvM0glhmEeGLJsqQcXahf3Yl6dVWR5LJKrDSWa4NzXYVNxhUHoEQB6Y/LLywe8Po3i8jCu0GkQ8VILqM6IUxByBDVlREVixzFAkRywvWMHGmvFFA415qwDMXtqOH2rpPzlXMJZYxp/cGysct7bNpHRcg7g17tqIzJJEPFai2KmX6kGvgkIYQO9O/GuKJ3Rta934lBdT1G6QuQ8nEEbV0z+WtNSBfQU6SoDu5Xa4KyBAfL6IopSDtzaPwWBx4dHmIrVs+VLC+FIVyKJvX3l5JAYN6OAC667aqRwWslQBAxBpEVDYlSCvavlaNz2aQ6+ELrV4g7N5jw2k5lRDvmf6eBYJg9x4jmRgiV5fYn/R1kMDji7AgDmSKkFYi0B4cy3KikowdhoVfKWWR5JwDuUWmfzWEEDIVMCwIIa6YqrBggSFCppepCgtCyPTCsCCEuIJhQQhxBcOCEOKKqXjOgvZuQqafyfcsptTeLeQrkPbEQApggvy3kfEx+Z6F1d79c8t23d794/fnJmLvlrfW/P0IdUJEZTOMA4cXzHz/t5GJMPmeBQC/2rsJuUtMvmfhgb1bw+pysFi5jV/YGpBa0fcaZutMEVLi0uaSMEzg+69XkJs9QHKjrBm/ZxU07sURnzEcF3Z3BE6rSG7ov+GDvrPLEg7obgkYL4b1uiasJvCedmoKoiu6tdu4hkynrZQkYdli8gZ0g7n+t/Vvv5+BHIO/mwSWyfYsPLJ3a+YoTZnvbOWOIPWgqe9rAEvrmm6u1ERrRhPlaqQR62fGWojq9mtD2a9JepO6obuKFCp56yxAn+8EYLWEJ2stRFYkSA+snzvXLuQrSKHax8odQjwB7OoavZZhwyplkdxuQEUL1R4Tedd/OVv7nWP7G8iHfDcJLJMNC6/s3ZlVxNHAvnGTWwS9Gi1UNyyGLNOArSnuTO/mINX+6YFpvza+zyrpLe83TAv34O8EbJbwUhOtns/GtesmcNMorqn/OgJh1WIJL6N5isFyYQfkZ20Hk/dgA7lX3038xWTDwit7NwDMxJHTa4tKUg7xmV75roaMs4vOp05NEQFiYs5B9d+Hbtlt/QztmTAWHQ+2f+f1CCG+afxdEnJLoV75rs7J+QhO7lIWBSWq/bez9RwGGMi9+m7iKyY/Z+GJvRv9x8zDihGXmmhJMaQT84hCwe5Qe7aO/mtsBkZiHnNXl/C+YGE/D6h3RYCM1REhX0FuJw15AzAN5OZ/D6uBnNxFJr8a4oW9u9S8wZhZV++vGsWGXH7fTBzrljmK9Grc/fnXvDZPqoNlikOfregMSYYbyMndY/I9C0/s3WVkt+dt9upuY/bAs49bkFbm0Nh3e6uXkU0CRSkHScoBsK8ieEl5o4D5vRwkKaVvsdZfHUBdxMGq1FkNeeZ8mL22awvVpPbfTB5iICd3j6mwe9PefbsI+QrWsTuWcCPBZfI9C9DefbsIEKIhtOsMCnI9piIsyG0gQNzLIT4DbTKYsl9yTRgWdwYZ4mP2JsjoTH41hBDiCxgWhBBXMCwIIa5gWBBCXMGwIIS4gmFBCHEFw4IQ4oqpeM6Cdm9Cpp/J9yw8sXunUZQqpokqvSNB8uJNzWEkRFQs30tIkJl8z2IMdu/yRtLZduU1dRFrfGWb3BEm37MAQLs3IdPP5HsWntm9O6R3JCyfa34J7d9VKNGU9hKV1TyVEFHJALump0GAuLcOlNYgP6wgF1VMh0N6R9LEtlYbV1dtDpsbwmLusjsjrD4KWrKJfwiI3XswoaVl3cydRNWleUre2kUDcaxmACRELC9YBLxOZIpauBg2bOPYTBG5pTaqyX7mcVqyiT8Iht17COrRrmmWKh+3HGzWTsgQSw3MJUSIq3G0a04eTAtPL6H2CHsFiIkIWtZz6yIOTiOImYFASzbxB8Gxe7vl6SVce6jrIg4u4oijaiv60+/YtZpW1EeSrD2HXsntybnaNxBoySbTyuQnOL2ye4+DhIjley207rkcGpSyDgV5evX5i7MhtJ/RLUH8xeTDwgu796jUz9C2VCQT8uv6JCgACBAzcbTrJM5hQwAAIABJREFUWWTrLUQS+s2fEFGx9RwcMIckWlEga4UxY/7DseoZIVPM5FdDPLF7j0oZ+0fLyG1KkDYB9aiKxtUyACC9k0P8wtDPZVF9IGk1Nfb7NGWpL2qseJQBYGsNyFeQkyRofu5+dUAImW5o974JPUuvhASXyfcs4F+7t/AwitDFAYOC3AmmIiz8RuchqxaqSQ4oyN2AYTECRm1QQu4Sk18NIYT4AoYFIcQVtxoWg1ZKCCHTDXsWhBBXMCwIIa5gWBBCXMGwIIS4gmFBCHFFoMJCyFcgma+GX5NM8XaM4IT4lEA9wcknKwkZH7fSswjdew2hwUfgtXuDjyCETJZbCItv4v1/+L8ofrDcJzBCWP677+P//p91fLNPC+kdyWKqEiDuSajkBctnrdCPkK+YQwnj3+kdCZIkQeopBpRGUTL29cpshHxF39d1btdwpXvoI+Qr+rVZ22chIuJ/biEsfoEPn+zi7MG6Q2BoQZGONLGbLeAXfVooH7cQeWDcoIsIQwVmdTVuQkAUCmSnYj8LKcSONat24QiIZ4ybWoC4lwJqunE72UTMFNdgsJG71ERrIWaGy+IsoMIQ9QoQooByiK7210xhMCF+5XYmONUDiO91B0YIyx8UkY40Uc4WcDDIU/v0Eqpxg2ZimFMUtI3P98OAIjvPVZx2RLvyodKxb2dWEUcD+6baroxsraX/e5iR+wSXV8a/04jdU6BcGJ8XEYYCuS7j7IKWbhIsbm81RA+Mkz9Oo/hBEskPikj/kTI8KACgLkO5msN8Akg/mINyKKJ5anyOuJPf1s/Qtn6+OBswGTrIyK15NedeF/TgkiEet8zPEb3d8kYBSjQHSbIOmQjxL7e7dKoe4MMnZZz88XvugwKAdoMC0YdpzOtDjpNz/fO9EeW3XbVDhNfnLJ8GG7nlQwWICki/DiiHMvD0Uv88h9ax0R+RIT5OIpnUQoOFg4jfuf3nLNQDfPi3SaTSboNCQ37WRii6jCi0X27thl1G9KJ5ffltqYnWjF5tDACQxqpZXtCFkVu3gi9HgbM6tJ4PoliOth2Ci0MSEgz885xFqYnWSgqo69FQl6Fk4oiej6L+LiO7PY/KpgRpBQBaqNZaiDzQ9spDjdxlNE9TSMEIKhmyso549BLa1QgQ93KdsgKnVSS3+AQI8Te3avcmhPiXQD3uTQgZHwwLQogrGBaEEFcwLAghrmBYEEJccath8cYbb9zm1xFCPIQ9C0KIKxgWhBBXMCwIIa5gWBBCXMGwIIS4gmFBCHGFf946vQWEfAU581X17jdN0yhKKWjyPRWN7W5Vnr7/tIrkhuWl+YSIymZct4M5nUeIP5iKnsV02L/TWJ090J2ZSRSO5pDa6+PsrLUR3+z4LjS5bwyXR92CjjSKm3G0redlRqxrQsiEmYKw8Mb+bVfXpVE0jN0JEZUBFu8OZWQtPQKbszMhIGp1dpb20TA9nJr/IpnM9mr6MjFELB5QlPbRQBQCTd/Eh0xBWHhj/w5Fhc4vdiaGyGkTZaRR3IxC2TYs21n3Vq37YYROdbnN/TBCNmfnqPYrGWcXvco+QvzAFIQFbm7/LjXRMnoB0CS+mgvzBJdXDjenrbfhUNMjIaKyMofGvhYtdj+nxsm5Cyfg00uoC8ud9hMilheGn0bINDI9E5zqAcT3gO9+nEbxg1dQRQrvupb6ltE8lbRhwVMRy/ca2C0BmjR3USv2swK0akltSFAXsdZnklHIV5CLKigkO6UQ5Wdt5Gbtxy3OhoDzIZdVF7F2vwhpU4K0CeCqgcYpEB725xAyhUxHz8JgZPt3pxCR8DDaVUekjGwyiWSyCqwMrgwm5CtYxy6Sj8Xe+QebDVzA/D24K0FQypqTpsnHZwgvjGgjJ2TCTFdYACPbv41KYauzup6/hz5DEoOEiPWogl0nsW5pHw1YbOA9RYrckd5JYe5o//o2ckKmgOkZhtwYbSiSutfAvjnEsD4bAahHBaz1u8HvhxGaiSAnSchZNmtDFxliSbDbwJMOvY8e7JZv9aiANVq+iU+5Vbs37d+E+JfpG4YQQqYShgUhxBUMC0KIKxgWhBBXMCwIIa6YqrCg/ZuQ6WWqwoIQMr0wLAghrmBYEEJcwbAghLiCYUEIccUdCYs0ik6Sm3GREFEZqPAbD0K+Amnntr+V3BXuSFgQQm6KL8JiOuzfhNxtfOCz+Cbe/4cPsPhvu8h+dIBeH44m9V2PNPFRur/UFwBw31LD46qBgtWIZavv0akZIuQryM0eoIoUUgtAb+0PuzOjVUsi+1T/kClCWtH3WOqJpHckLJ830F6Ka+edVpHcQKcda+0R23VZ1IBIoygt4/KojfhSBOpRAbvWv1U/D3RoEI/wQc/i5vZv49h4AtjVFXfVizhy5vi+ywJeg6VmCICFFGLHRj0RWGp/aEFh1hPZbuDS/L4IUg+a5nabuBdAaCmMpq77ay2kIEkx2+eibuUSHoYt19VCZMU6FxJCfFb7DnsgdOqVMCiIV/ggLHBz+7fWCBqlTk+ivN+AuhBDGoCQX0bk9KDTW+iyhcNS+8NWT6S7LkhdhGiauFqoGr2DugylS+mnmnq9MpqnvZ+NMgPyVtZ+Xd1/0363pG8e4l4Kc0eFznUR4gE+GIbo3Mj+7UD9DO1Ni2d7IQVJSlm/EJcJ4GTAecLrc1DPe45wQMbZRW5Eq7d9mAO00Bx0+EIc8asGCuxREI/xT1gAuv0b+O7HWaS/kLE7alAAQGIec1eXZhj082MKDwc3E5pdBFzYOEdDn5fYTiJbNz7HBp9yWkUVKeR20pA3qAYm3uGPYYiVUe3fCCG+alYnhZiJmyUD5EMFWFq/9nMY8qEC1TK/gIQIMTPwlOuRmMcc2jgzhiGZmKWH0Z/yRgGNeyk+c0E8xV89ixuhonEegyRJ2sfTKpJGT6K7GJCxf9gvc13EGkSL9VtFY9vDS66L2H1YQU6SkAKA01bXnEU/jOJKKUh78/ZVH0JGZKrs3rR/EzK9+G8YQgiZCAwLQogrGBaEEFcwLAghrmBYEEJc4auwoP2bkMnhq7AghEwOhgUhxBUMC0KIKxgWhBBXBOLdkNe+9XtY+5NXgV9+iu//TN/49RA2//wlnP3LZ/jJP0308ggJBP7vWTwKYzf3Fr79ja92+SJewuKf/iHezS3ie4+GNXIT+3caRUky3zxN70io5IUBxzpYvxMiKrdpHydkBPzfs3jzFYTwP2j88Awf/tyy/V8/w5MfnOPH78/h998c5wWUkU3e0BtRF7FWH34YIZPE/z0LAMCrCM87bA69hFdu/VoICSb+71n86nOoeAn4isO+P3gZL+MLPL902OdEP/t3QkQlA+yaXggB4t46UFqDWDdsVlbjd4f0jqRbwYFWrer8vQkRlc0wDqxG8SVdTWzxati22yzj+jXUFERX9Ot34+Mg5Br4u2fx6Gv4+G9mEXrxKZqfOOz/5DlaL34Hsb96E5tD5y0G2b9HQ8hXkEJVM3Mnk2g+SA03XWWKyEUVFPRzzBs+U0RuqY2qsX1bQXSzy/RtXr/dEE6IF/g7LH7zv/r/v8Bnjgd8iee/+RIvXrjx+/S3f49GGqtLsNm3yxvV4aarp5cde7iJADERQauWhdlaXcTBaQQxMxCs1283hBPiBf4Oi/pzPPnROdSZWbz9jsP+d2YQm3kJZ4f/ie2fOewf2PYZ2je+QIs/0/X3ilirASlJgmRbOVFx+dR+6Mm52jcQTs5HNRkT4oy/wwLQJzG/wOe/dtj3Xy/wYtR2u+zfozGHeetyaGIec25OK2Udih3Z644AwOJsCO1ntGuS28H/YaFPYn72qcM+9Ut87rqh/vZv1M/QnolC0G98Ib+O+Myw9sponlrbBNKrnTKEriqtm0MSGbKi2quRJUQsL7TQZCEhckv4fzXk5LdQ8Rri33kTm6/8qjPc+HoIH31nFiH8Ny5ddQ8G2L9Rxv7RMnK6/Vs9qqJxtTy0xfJGAfN7ObN4UatWRWthSN0Pa31UfcWjDABba0DeYvq21GMl5Dbwld273/4Hf/k1/PWf/S4+/eRZJyzeehnv/sWr+O2/++Bx756lWUKmD//3LAAc//TXOP5p16TFf7zAP/5g5BmLW0V4GEXo4oBBQaaaQISFX+k8ZNVC9aaPjBMyZhgWE0TeWmNvgvgG/6+GEEJuBYYFIcQVDAtCiCsYFoQQVzAsCCGuYFgQQlzBsCCEuCIQz1nQ7k3I+PF/WDwKY3d9DiH1M/zzL62vnmp2b+FbL/AgdIK/v67PwhPSKEqaHatVqwIrKaCWRPY6b4omRFQ2o1D6aPsIuS38HxYTt3v3R8gvI2J1YZZGeKSb5m8yJQRkzmJ67d7q+c30OYRMC/7vWXhm9xYg7uVMqY16VMDalgzrUAJAr2179gBVpHSDd8e43bF65yBJq6gmm4h1WcB7zN8rMTS7HRVd5m/rOZ1rtG+3uy5o/ibe4O+ehWd2by0ookpBN3FXoZjbU5g7KpiG7ipS9opjCynEjrV9hSMgntE0eOWNJApHKtSjApIOkppRzN/d5xhBIeQrSN1rdIzgNh0fQPM38QJ/h4VXdu+EgCga2LWYscQtGcisIm7brlm/ERU6N+Jp1ZywlA8VBzO3E6OZv+VnbeDePOyKXr0ti5kcpX000NEA0vxNvMDfYeGV3ft+GKGLM+fXxbu318/Q7hcI1zKCj2D+LmVRUKLISRIkW8+huy0ZZxe9gl8Dmr/JKPg7LADv7N49v9h9tnti/QZGNX/LW2vakEeJWoogdbUFAfP3eksHEHIT/B8WXti9S020ZuJYN+ci0hDzgsN2zdBtWr9HZoj5O1Ps6jn00hmS6G1lLMdnVhGHAplLrsRD/L8a4ondu4xsEihKOUhSDgDQqiUByD3brSsQN2EU87e91mkL1aQ2DyFvJIEdCTlJQg6w12klxCNo954W+hm+af4mU4L/exbwv927U9So0BMINH+TaSEQYeFH7A9RoauoEc3fZPoIxDCEEDJ+/L8aQgi5FRgWhBBXMCwIIa5gWBBCXMGwIIS4gmFBCHEFw4IQ4opAPJRFuzch48f/PYtHYezm3sK3v/FVhG07NLv3u7lFfG+gJWs8pHcku1HrlhDylaFvrBIyCv7vWUyx3XsSyFtrfI+EjAX/9ywATLPdm5Cg4P+ehSd2bwcDdpcTwvbiV9c+m2dC32cjU4S0EkFLLzA0qK3Bxm+rabxjErdiGMcNezdt4MQr/N2z8MzuDdgN2ElUL+IWbV0aMdOqXUADHXuWkK8gF1VMs3ZV6Wo2IaKyMofGtlGJbHBb/Y3fmmkcNd3gva0gullEGv2hDZx4ib/Dwiu7NwC7AVuzeKsLMf1mLCNr/rLKkBVDeCtAiNrN2uUtq6RGQHEzjnbN2gPo19YQ47duGt83Sh/WZShX3e5NO7SBEy/x9zCk/hxPvqJNYr79zgV+8sOu/brdu1UbYvd2bPsM7c3O+opdaQeoRwCwiPBMG80+rsvQUlwrX9hV29S5LWCo8Xsm3lHn6bTuA+h3TimLwusV7RzbcMfJBp5DrE9btIETwO9hAXhn9+7GYvE25wGSnUpk6+aB+q+7w02mHlWhRFOo5E9sQwDXbXUbv0eYOzBWR4R8BbmdNOQNp2umDZwMx9/DEMAbuzcAwGrbNjR3msV7cTZkqVkqQIgavYJes3Y6bx37n0B8XEV7KWc+czG0rX7G71Kz/9wBbeDkFvB/z8ITuzcAqGicxyBJkvbRorkrb1QRMw3fKlqnnW55udusfVpFErAUISojuz2PymYO0s4ikgPbGmT8NtqRIK3om4ZYvGkDJ14SCK3eze3e+nKhw1LkRBnB7K0Na3Y9KVdAiBX/9ywQBLu3E/2N34POEaIhtOsMCuI9gQiLoDDM+N0frQp8fEY/pzT0BEKuTSCGIYSQ8eP/1RBCyK3AsCCEuIJhQQhxBcOCEOIKhgUhxBUMC0KIKxgWhBBXBOKhLNq9CRk//u9ZTKndG9BN2zv9XFZpFCUJkiShmEmjKFUgDhDZjI72PTRdkZvi/7Cw2r2tghvd7q3ilam0ewv5ZU2MkzR0e+OijOzYv4PcBfwfFgD8avfueC0ImX78P2fhgd07vSMhdmz8+movZUUVw4QtQNxbB0ra6+t2R4TVsK2/5n7URnwpAvWogF3rlyREVDbjwFEBB7M5/YWxHCRpFdVk0/Gaeu3b9msxbN+odWTARclqA7dcl3Gd+nWEbO12b+81gS+fa9av+EzXeeTO4O+ehUd27/JxC5EHxtzCIsJQgVldX5MQEDUsUpkickttVJP9DNshxGebNpO2RloX92rbyxtJFI5UqEcFJB1uuv72bRmyAkQf6o6rxDxwpXZkupkYIqfNATdxGsXNKJRtvV2r/l+/PsM6rkRztnmO0NIyUNIN5qcRpPrOxZCg4u+w8Mru/fSyY/LOxDCnKGgbn++Hdb2eADERQatmubnrIg5OI4iZN5Vqs3NrzEPcS2HuqOBy3mCwfVt+1kYoKkAAIDyMAooCGJ9fn0PreNDv/Qkur0II37dvNeZPOtcnQ6xbAxRQj3ZNMVD5uOVgDSdBx99hUX+OJz86hzozi7ffcdiv273PDofYvS1a/fSDOSiHIpqnxucI2s+M27ZXantyrg7W5C/EEUcDu9cyVznZt/WbvNREayaMRQgQom00t2QoMD5jiHRXhvi4CqwYqzCdPT3zJ08vofYLhKeXoO/77uHvsAA8snsb3fs05vUhx8m5/vleC03zF7f3V3lxNmQJEwdOq10Fi9zQXQ/Eat8uo3kaQSyziPBFE2XIOLvQP7uS7mqrI8lkFVjpLNeGZhfth90PI3RxRi8nMfF/WHhk99a698uIQrtB5EMFiC4jemHMAWgFgSIrljmKhIjlBWuYOFPeKKBxLzXgmQvb0UPt2yfnKuYSy5jTewPl45b2WbeRa5Oyw56t6AxJ5EMFqs0crg+5Bg5pyF3D/6shXtm9S020VlJAXb9B6jKUTBxRS/dc3loD8lrRHt2/7XJVQIb4eBFFKQVpb763FmoXPcbwLvu2fKhgfSkK5VA2r729kgIG9XAA2Gul6iseJQAQsQbRZg5v1fhsBrETCK3eze3eQcZpOZWQ6+P/ngWCavf2iEwMkatL7E/6OojvCURYEAcyRUgrEWgPjmU5UUluDMMiqJSyLAlAPMX/qyGEkFuBYUEIcYWvwoIFhgiZHL4KC0LI5GBYEEJcwbAghLiCYUEIcQXDghDiCobFmBls+CbEPzAspoWEiIpkVfSNQKYIaU+kwYqMBV+ERejea6ZIts8ReO3e4CMIITfDB++GfBPv/8MHWPy3XWQ/OnDQuYWw/Hffx3qkiY/SBfyibztWl0ML1RqQetBEckN/cXuA3RroZ9t22bYVJ7u2+dIXkJIkLJvfbW3XahK3X49mEl/XreMR5CQJq/RREI/xQc/iF/jwyS7OHqyj+MFyVw9DC4p0pInd7KCgECDuacp8zV7dRGwlYtk/2G7d37btpm10fY/Frm20U8oiud2Aihaqphm8q12LSVzIV5BCVf8+7Xh5aw3JWksT5bCoEBkDPggLAOoBxPe6AyOE5Q+KSEeaKGcLOBhkkM2sIo4G9s0bqIxsrWXuHmy3HmzbHta2Fe17DszeQUe+6+KaLVJh+Vmbdm1y6/hgGKKjHkB8D/jux2kUP3gFVaTw7h8pw4PCYIh81tFunZiHgDM427ZziBny3uuIbRdSkKSU9Ztx2a/G6Uy8o9bTad0HUMqi8Lqm98t1KfcIGRf+CQsAUA/w4RPgux9nkf5Cxq7boADMX2LjphJen7Pt1uzWllvufhihiyZkAKuGbdsMDItt+/7wtm1/QtdciIlTYJxWnec9oPlAZegV0nbSkPscR4hX+GMYYkU9wId/m0QqfY2gKDXRmolj1bRXp7G61Jn9GGy3HmLbHtK2FflQAZbW3VVLLzXRsl2TMxySkNvCV8LeG9G9CjFkNaTbbm1bDenu+g9oW8hXkJs96HyPZeUDgK33YHyH2fvouibje2Grt2pdmdHqtMZnaOcm3nN3wqILIV/BOnadhwRT3DYhk8J/wxAvSIhYX0Kn7oZf2iZkgvhrgnNk7MV1AK2bLg4t9TfptgmZHu7sMIQQcj3u5jCEEHJtGBaEEFf4KizeeOONSV8CIXcWX4UFIWRyMCwIIa5gWBBCXMGwIIS4IhAPZb32rd/D2p+8CvzyU3z/Z/rGr4ew+ecv4exfPsNP/mmil0dIIPB/z+JRGLu5t/Dtb3wVYduOl7D4p3+Id3OL+N6jYY2kUZQq7t4GdTxXMt8OTe9IqOT7vQOaRtFJypsQURn5+wm5Hfzfs3jzFYTwP2j88Awf/tyy/V8/w5MfnOPH78/h998c5wWUkU3e0CVRF7HGx8PJlOP/ngUA4FWE5x02h17CK7d+LYQEE//3LH71OVS8BHzFYd8fvIyX8QWeX7ps677FH2F1ViREVDLArumwECDurQOlNYj1NIrSMi4t5m0rVg9Gq1Z1/t6EiMpmGAe6l0Kw+iosvgvbdpvtW7+GmoLoin79AyxbhIyCv3sWj76Gj/9mFqEXn6L5icP+T56j9eJ3EPurN7E5dN4ihHgC2NWN2dWLOHI3rCTWbeFuPrC/nepIpohcVOmYxC3SnNxSG9Vkr+279/qrrixbhFwHf4fFb/5X//8X+MzxgC/x/Ddf4sULNy/WqjaDd3m/AXUhdoMKYboVfL/z617eqMLZ+23h6SXUHuO3rvmrWWqV1EUcnEYQMwPBev1lNE+Budcp2yPe4e+wqD/Hkx+dQ52ZxdvvOOx/ZwaxmZdwdvif2P6Zw/6BbZ+hfeML7LaCu/leEWs1rdiQZFs50QXBFk7O1b6BcHLuVlBKiDv8HRaAPon5BT7/tcO+/3qBF6O2m5jH3NUlToYfOQDdCm5t081ppaxDMaMQwvfthy3OhtB+RiMXuR38Hxb6JOZnnzrsU7/E564bCiG+avyOCxAzcUCRtW59/QztGb2oEAAhv474zLD2dCv4aqdvkF61yHfdFEI2hyQyZEVFZMVyfELE8kILTUp5yS3h/9WQk99CxWuIf+dNbL7yq85w4+shfPSdWYTw37h01T1Q0TiPQZIk7eNpFUlTuFvG/tEycpsSpE1APaqicbU8tMXyRgHzezmzqFCrVkVrITb4JJv9W1vxKAPA1ppm9ZYk6K111VslZLz4SqvXb/+Dv/wa/vrPfheffvKsExZvvYx3/+JV/PbfffC4d8/SLCHTh/97FgCOf/prHP+0a9LiP17gH38w8ozFrSI8jCJ0ccCgIFNNIMLCr3QesmqhetNHxgkZMwyLCWLUKyXED/h/NYQQciswLAghrmBYEEJcwbAghLiCYUEIcQXDghDiCoYFIcQVgXjOgnZvQsaP/8PiURi763MIqZ/hn39pffVUs3sL33qBB6ET/P11fRaekEZR0uxYrVoVWEkBtSSy13lTNCGishmF0kfbR8ht4f+wmLjduz9CfhkRqwuzNMIj3TR/kykhIHMW02v3Vs9vps8hZFrwf8/CM7u3AHEvZ0pt1KMC1rZkWIcSAHpt27MHqCKlG7w7xu2O1TsHSVpFNdlErMsC3mP+Xomh2e2o6DJ/W8/pXKN9u911QfM38QZ/9yw8s3trQRFVCrqJuwrF3J7C3FHBNHRXkbJXHFtIIXas7SscAfGMpsErbyRROFKhHhWQdJDUjGL+7j7HCAohX0HqXqNjBLfp+ACav4kX+DssvLJ7JwRE0cCuxYwlbslAZhVx23bN+o2o0LkRT6vmhKV8qDiYuZ0YzfwtP2sD9+ZhV/TqbVnM5Cjto4GOBpDmb+IF/g4Lr+ze98MIXZw5vy7evb1+hna/QLiWEXwE83cpi4ISRU6SINl6Dt1tyTi76BX8GtD8TUbB32EBeGf37vnF7rPdE+s3MKr5W95a04Y8StRSBKmrLQiYv9dbOoCQm+D/sPDC7l1qojUTx7o5F5GGmBcctmuGbtP6PTJDzN+ZYlfPoZfOkERvK2M5PrOKOBTIXHIlHuL/1RBP7N5lZJNAUcpBknIAgFYtCUDu2W5dgbgJo5i/7bVOW6gmtXkIeSMJ7EjISRJygL1OKyEeQbv3tNDP8E3zN5kS/N+zgP/t3p2iRoWeQKD5m0wLgQgLP2J/iApdRY1o/ibTRyCGIYSQ8eP/1RBCyK3AsCCEuIJhQQhxBcOCEOIKhgUhxBUMC0KIKxgWhBBXBOKhLNq9CRk//u9ZPApjN/cWvv2NryJs26HZvd/NLeJ7Ay1Z4yG9I9mNWreEkK8MfWOVkFHwf89iiu3ek0DeWuN7JGQs+L9nAWCa7d6EBAX/9yw8sXs7GLC7nBC2F7+69tk8E/o+G5kipJUIWnqBoUFtDTZ+W03jHZO4FcM4bti7aQMnXuHvnoVndm/AbsBOonoRt2jr0oiZVu0CGujYs4R8BbmoYpq1q0pXswkRlZU5NLaNSmSD2+pv/NZM46jpBu9tBdHNItLoD23gxEv8HRZe2b0B2A3YmsVbXYjpN2MZWfOXVYasGMJbAULUbtYub1klNQKKm3G0a9YeQL+2hhi/ddP4vlH6sC5Duep2b9qhDZx4ib+HIfXnePIVbRLz7Xcu8JMfdu3X7d6t2hC7t2PbZ2hvdtZX7Eo7QD0CgEWEZ9po9nFdhpbiWvnCrtqmzm0BQ43fM/GOOk+ndR9Av3NKWRRer2jn2IY7TjbwHGJ92qINnAB+DwvAO7t3NxaLtzkPkOxUIls3D9R/3R1uMvWoCiWaQiV/YhsCuG6r2/g9wtyBsToi5CvI7aQhbzhdM23gZDj+HoYA3ti9AQBW27ahudMs3ouzIUvNUgFC1OgV9Jq103nr2P8E4uMq2ks585mLoW31M36Xmv3nDmgDJ7eA/3sWnti9AUBF4zwGSZK0jxbNXXmjiphp+FbROu10y8vdZu3TKpKApQhRGdnteVQ2c5B2FpFr++lZAAAgAElEQVQc2NYg47fRjgRpRd80xOJNGzjxkkBo9W5u99aXCx2WIifKCGZvbViz60m5AkKs+L9ngSDYvZ3ob/wedI4QDaFdZ1AQ7wlEWASFYcbv/mhV4OMz+jmloScQcm0CMQwhhIwf/6+GEEJuBYYFIcQVDAtCiCsYFoQQVzAsCCGuYFgQQlzBsCCEuCIQD2XR7k3I+PF/z2JK7d520ihKEm1TxNf4Pyysdm+r4Ea3e6t4xZXd++bqfgHiXr9AKCObNLR6hPgT/4cFANq9CRk//p+z8MDuLe5J2ktYCzlI0qppurb5IKyWqoSIyqYhpmmhmmwiZli3VyRIiW4/hP0V+H7t2v0Tdnt3ekfC8rlm3orPGN9rGLkJGT/+7ll4ZPcWHydRPdVU+UnjBswU7dZupPRhShrFzSiUbd2MncyijDKyyQIaV0CrlkRykH+iq10zgDJF5JbaqCb727tDS8tASb+e0whSO4Pc3oR4i7/DwlO7txUBYiKCVt1i7T5uITS7COAEl1chhO+PeM1PL6HOhC0mLcv31Sw9hbqIg9MIYpY5EPVo1+xplI9bDuZuQsaHv8Oi/hxPfnQOdWYWb7/jsF+3e58djmD3BhBZkSBJ+v9WIvrNKUN8XNWGG6OscNRFrNWAlCRBkqw9h15h7sm52l/B//QSdG6T28T/cxbjsnv3qfilUUY2WYY2F1GB+PSaOr5SVhPU6KLdk8cyAL23YmlncTaE9jGtV2Q68HfPAvDQ7m1FhqzAbsB2ZNCQZNBSqo45JNGKDUVWLD2NhIjlhRaaXG4lU4L/exYe2b3L+w0sb1pWQ7bWsGg1YAN6rVJrvVG9fmgJAGSI9VVI5mpInx6BXvdUPxuN7TVtnmJrDchrBYF0tzdXO8hUEQit3s3t3uMmjaJkLXBMiP/wf88CPrB7Z2KIXF1if9LXQcgNCERYTC3mkENFYzvLIj7E1zAsxomx6kFIAPD/aggh5FZgWBBCXMGwIIS4gmFBCHEFw4IQ4gqGBSHEFQwLQogrAvGcBe3ehIwf//csptjuLeQrkPrarDTjt+bE0F91T4zjKmgWJ97g/7DwyO592wj5ZUROq0iO3fpNszjxBv+HBQC/2r3VcxfvzhMyJfh/zsIDu3d6R0Ls2Pj1FSDu5RBVCljbkvXP60DJwcxts2npBu+jNuJLEahHBexav0Q3guOogIPZHFILAGD4M5qO16QdA3TcFvZr0b4zBdSMa3d6Fd5uFu81k+vH2rbrno4t2bwWmsWJv3sWHtm9y8ctRB4YcwuLCEMFZnWlbkJAFArkOlwYuEOIzzaRTCbNG00jjeJmHO2atr28kUThSLXbxC0I+QpS9xodA3gNSO2JEHSDV/Sh7u9KzANXFk9nJobIaXPATexkJrdfn7a9ACWas81z0CxO/B0WXtm9n15CXYhpN30mhjlFQdv4fD8MKDJkVwZuFY397lt1HuJeCnNHBZfzBmmsLgGNkqWcQGkfDUQhJAD5WRuhqAABgPAwCigKYHx+fQ6t40G/984aQGP+pHN9MsS6NUBpFid+Dwuv7N51GcrVHOYTQPrBHJRDEc1T43ME7WfGbXtNAzcALMQRRwO7W9exWbRxZhMAyzi70G/yUhOtmTAWIUCIttHckqHA+Iye67PT30zeM3/y9BJqv0CgWfxO4u+wADyyexvd+zTm9SHHybn++Z5Vmtv7q7w4G7KEiQOnVVQv4shdq9uuBVUHAfP3jKAqo3kaQSyziPBFE2XIOLvQPxvDpYFoqyPJZBVY6SzXhmbtlUxwP4zQxRmFPcTE/2Hhkd1b694vIwrtBpEPFSC6jOiFMQcwuoG7vFFA415qwDMXtqPRPA3ZzeKZVcQtQXByrmIusYw5vTdQPm5pnxVZv7ldmMUtQxL5UIG6kLIcrw+5Bg5pyF3D/6shHtm9UWqitZIC6voNUpehZOKIWrrn8sgGbhni40UUpRSkvXkUHosDjy5vJAGrWfzKXjtVPlSwvhSFciib195eSQGDejgAjNWTXjO5iDWIqGxKkFa0fa0an80gdmj3Djw0ixNv8H/PAj6we08SmsWJRwQiLIgDNIsTj2FYBBWaxYnH+H81hBByKzAsCCGu8FVYDFopIYSMF1+FBSFkcjAsCCGuYFgQQlzBsCCEuIJhQQhxxR0JC7s9O70jmW+ApnckVPLUuBAyjDv5BGd5I8mXqgi5Jr7oWYTuvWaKZPscgdfuDT6CEHIzfNCz+Cbe/4cPsPhvu8h+dOCgcwth+e++j/VIEx+lC/iFixY1W3XBItVdhLiX083Vg43da1uLvU6ILbn32JNTYPFLHFheDRfyFeRmD5DcYL+G+A8f9Cx+gQ+f7OLswTqKHyx39TC0oEhHmtjNugsKJ6zm6mStjfggY3cmBhgW7O0GsLRuqSRmOfb9/wflyirz1RyZvUJfQvyBD8ICgHoA8b3uwAhh+YMi0pEmytkCDm5gkLWaq1HaR+NqgLG7lO0YpOoylCtbS5ZjNQ2fKfO1lhQgxIf4YBiiox5AfA/47sdpFD94BVWk8O4fKTcOil5knF3kuuqmWhEsQxYAUNHo19KhgvWMAAEy8DAKKLv0ShDf4o+ehYF6gA+flHHyx+8hPZagAOwm7d594l4O4XqnGE/jyuk4nbqIg4sohIQ2BDGdmYT4EP/0LAzUA3z4tweeNhlaWkUaMsoAhPw64lBQcBwuLCI8YwmShIDoDKAMaLt83EZldRW4OMAahyDEx/gvLMaAenSJmCRBAqAZu8U+w4UysrUYpE0J0iaAqxZag3oWgGbellJALevtRRNyy/jK7u1PaNcmwcBfcxY+RMgvY+5on0FBfA+HIeMiIaKyGUfoqoHCY05sEv/DsBgXdZETmiRQcBhCCHEFw4IQ4gpfhcUbb7wx6Usg5M7iq7AghEwOhgUhxBUMC0KIKxgWhBBXMCwIIa5gWAxAyFdMC/htfy+N42TaYFgQQlwRiLCg/ZuQ8ROAd0O8sX8L+QpyS3qgnFZtBu70joTUgvbvVi1pOjit23HVQOGx5sHQLN4KGvfiiM+0UE1mUUbaYgW3GsTReelMb6c6yKZDyIQIQM/CA/t3pohcVEEhqevyrKr+hRRix9r2wpGKSEKENpuQRgzVjl4Pcaxb5xkWoroxPIsyBIh7KYsVXEHUNIinUdyMQtnW95WA5SX2gsj0EYCwwM3t308voc6Esei077Rq9iTkQ8VyXBnZDbvJ237eQafnkFlFHA3s26zgc5hPaL6LiPXYuojdI8/FooTcmAAMQ3RuYv+ui1i7X4QkSUjBGDY4HXeG9mbH+20bugBQjwZ8x0wcOUlCzrKpdV8/7/xkyAUSMnmCExaAbv8GvvtxFukvZOxex/5dyiJZApApQtoTcfJYHHi4WV0sWTY/rw86oWsepNMOEJpdBCzWz8XZEHDu8roJuSWCMQyxoh7gw79NIpUesUzAoCGJhcXZkKVHIECIDphnKDXRWkihmOndJR8qUBeWO1XNEiKWF3qPI2TSBKtnMSqZIqQVs3opGttrWlmAAaeUN6qISTlIUg6AitbpoGQqI7s9j8qmBGlF32SsnhhDINMY3kD1SMWyB38WIV7iK7t3MO3fhPiD4A1DCCFjgWFBCHEFw4IQ4gqGBSHEFQwLQogrAhUWtH8TMj4CFRaEkPHBsCCEuIJhQQhxBcOCEOKKO/FuyGvf+j2s/cmrwC8/xfd/pm/8egibf/4Szv7lM/zknyZ6eYT4guD3LB6FsZt7C9/+xlcRtu14CYt/+od4N7eI7z0a1kgaRanSeTP0WqRRlCTzjdP0jjTA3J1GUTIMWhYSIiojfz8h3hD8nsWbryCE/0Hjh2f48OeW7f/6GZ784Bw/fn8Ov//mOC+gjGzSUaXjnrqItfrwwwgZJ8HvWQAAXkV43mFz6CW8cuvXQog/CX7P4lefQ8VLwFcc9v3By3gZX+D5pcu27tst3IbNGwkRlQywa3yGAHFvHSitQaynUZSWcWm1eVuwm8Orzt+bEFHZDONA1/31M5HbNX9Wg7h+DTUF0RX9+vuYuwjpR7B7Fo++ho//ZhahF5+i+YnD/k+eo/XidxD7qzexOXTeIoR4AtjVDeDVizhyN6xWJuQrSJmG8CSaD4xSAQPoZyLPFJFbaqOadDKId19/ta+5i5B+BDssfvO/+v+/wGeOB3yJ57/5Ei9euPH/qGiURNOUWd5vQF2I9U5GuiaN1SWgsd/5dS9vVNEadpqj9k+AmIigVbOIhusiDk4jiJmBYL3+MpqnwNzrLJFI3BPssKg/x5MfnUOdmcXb7zjsf2cGsZmXcHb4n9j+mcP+gW2foX3jC2zj7LoTl3URazUgJUmQbCsnKi6f2g89OVf7BsLJOcsNkOsR7LAA9EnML/D5rx32/dcLvBi13cQ85q4ucTOJv1Y7xNamm9NKWW2oUQNSe0bRoxDC9+2HLc6G0H4mOzRAyPUJfljok5iffeqwT/0Sn7tuKIT4qvE7LkDMxAFF1rr19TO0Z6IQ9BtfyK8jPjOsvTKap9Y2gfRqvFNRLSGi4vTMhRVzSKIVOYqsWI5PiFheaKFZGtQAIe4J/mrIyW+h4jXEv/MmNl/5VWe48fUQPvrOLEL4b1y66h6oaJzHIEmS9vG0iuSWOYOB/aNl5HRDt3pUReNquJ+7vFHA/F4OkpQCoK2GtBZig0/qYyLH1hqQryAnSdBb618siZARCJTdu9/+B3/5Nfz1n/0uPv3kWScs3noZ7/7Fq/jtv/vgce+epVlCbp/g9ywAHP/01zj+adekxX+8wD/+YOQZi1tFeBhF6OKAQUEmyp0IC7/SeciqhepNHxkn5IYwLKYYeWuNvQkyNQR/NYQQ4gkMC0KIKxgWhBBXMCwIIa5gWBBCXMGwIIS4gmFBCHHFnXjOgnZvQm5O8MPiURi763MIqZ/hn39pffVUs3sL33qBB6ET/P11fRaekEZR0uxYrVoVWEkBtSSy13lTNCGishmF0kfbR4hXBD8sJm737o+QX0bE6sIsjfBIN83f5Ja4I3MW02v3Vs9vps8h5LYIfs/CM7u3AHEvZ0pt1KMC1rZkWIcSAHpt27MHqCKlG7w7xu2O1TsHSVpFNdlErMsC3mP+Xomh2e2o6DJ/W8/pXKN9u911QfM3cUewexae2b21oIgqBd3EXYVibk9h7qhgGrqrSNkrji2kEDvW9hWOgHhG0+CVN5IoHKlQjwpIOkhqRjF/d59jBIWQryB1r9Exgtt0fADN38QNwQ4Lr+zeCQFRNLBrMWOJWzKQWUXctl2zfiMqdG7E06o5YSkfKg5mbidGM3/Lz9rAvXnYFb16WxYzOUr7aKCjAaT5m7gh2GHhld37fhihizPn18W7t9fP0O4XCNcygo9g/i5lUVCiyEkSJFvPobstGWcXvYJfA5q/iRPBDgvAO7t3zy92n+2eWL+BUc3f8taaNuRRopYiSF1tQcD8vd7SAYQMIvhh4YXdu9REayaOdXMuIg0xLzhs1wzdpvV7ZIaYvzPFrp5DL50hid5WxnJ8ZhVxKJC55EquQfBXQzyxe5eRTQJFKQdJygEAWrUkALlnu3UF4iaMYv621zptoZrU5iHkjSSwIyEnScgB9jqthLiEdm8/2L2B/oZvmr/JLRH8ngX8b/fuFDUq9AQCzd/ktrgTYeFH7A9RoauoEc3f5PZhWEwp5Y3kwGpiNH+T2yb4qyGEEE9gWBBCXMGwIIS4gmFBCHEFw4IQ4gqGBSHEFQwLQogr7sRzFrR7E3Jzgt+zeBTGbu4tfPsbX0XYtkOze7+bW8T3BlqyxkN6R7IbtW4JIV8Z+sYqIU4Ev2cxxXbvScAnP8moBL9nAWCa7d6E+IXg9yw8sXs7GLC7nBC2F7+69tk8E/o+G5kipJUIWnqBoUFtDTZ+W03jHZO4FcM4bti7aQMnbgl2z8IzuzdgN2AnUb2IW7R1acRMq3YBDXTsWUK+glxUMc3aVaWr2YSIysocGttGJbLBbfU3fmumcdR0g/e2guhmEWn0hzZwch2CHRZe2b0B2A3YmsVbXYjpN2MZWfOXVYasGMJbAULUbtYub1klNQKKm3G0a9YeQL+2hhi/ddP4vlH6sC5Duep2b9qhDZxch2APQ+rP8eQr2iTm2+9c4Cc/7Nqv271btSF2b8e2z9De7Kyv2JV2gHoEAIsIz7TR7OO6DC3FtfKFXbVNndsChhq/Z+IddZ5O6z6AfueUsii8XtHOsQ13nGzgOcT6tEUb+N0g2GEBeGf37sZi8TbnAZKdSmTr5oH6r7vDTaYeVaFEU6jkT2xDANdtdRu/R5g7MFZHhHwFuZ005A2na6YNnAR9GAJ4Y/cGAFht24bmTrN4L86GLDVLBQhRo1fQa9ZO561j/xOIj6toL+XMZy6GttXP+F1q9p87oA2ceEDwexae2L0BQEXjPAZJkrSPFs1deaOKmGn4VtE67XTLy91m7dMqkoClCFEZ2e15VDZzkHYWkRzY1iDjt9GOBGlF3zTE4k0bOLkOtHu7snvry4UOS5ETZQSztzas2fWkXAG5WwS/Z4Eg2L2d6G/8HnSOEA2hXWdQkOtzJ8IiKAwzfvdHqwIfn9HPKQ09gZAe7sQwhBByc4K/GkII8QSGBSHEFYEKCw5BCBkfgQoLQsj4YFgQQlzBsCCEuIJhQQhxBcOCEOIKhsXYSKMoSTRIkcDAsBhEQkRFGqym639sGdmkocojxP8EIixC917reB2cj8Br9wYfQQgZTABeJPsm3v+HD7D4b7vIfnSAXsFbCMt/932sR5r4KF3AL/q0YnM7nFaRPI5BWtF0uClJwrJuvu51QGRR1u3c9mMXu15rt7zMBbtJmxA/EICexS/w4ZNdnD1YR/GD5a4ehhYU6UgTu9n+QYFM0WbgTm6UgVIWye0GVLRQNc3XAoRZi6n7NILUTrrPsVa0oIgqBd2kXUW35JuQaScAYQFAPYD4XndghLD8QRHpSBPlbAEHg5yyTy+hzoQt9qp+yBA3LKbu49bAo00SAqJoYNcMkTJE9iqIzwjAMERHPYD4HvDdj9MofvAKqkjh3T9ShgcFANRFrN0vQpIkpGwFdRywDDkAAKfN4dd2P4zQRZNaOuJrgtGzMFAP8OGTMk7++D2k3QaFQSnbp6COhUwRUuLSUnzHZc8CcKjPQYi/CFZYAFpg/G0SqfQ1gsLKgCGJ8PoccHHWKSX4IOJwlAOlJlozncpiQBriBCqoE3ITgjMMuQm2oYVWI7QMAHURB6uSZYVjF4LVrn1q6Vn0HGv9gjKySaBoWruBVi15C38YId4RKK0eIWR8BG8YQggZCwwLQogrGBaEEFcwLAghrmBYEEJcEaiweOONNyZ9CYQElkCFBSFkfDAsCCGuYFgQQlzBsCCEuOJOvBvy2rd+D2t/8irwy0/x/Z/pG78ewuafv4Szf/kMP/mniV4eIb4g+D2LR2Hs5t7Ct7/xVYRtO17C4p/+Id7NLeJ7j4Y1kkZRqkBMjHIBdst3ekdCpe8bp2kUnQTBCRGVkb+fEG8Ifs/izVcQwv+g8cMzfPhzy/Z//QxPfnCOH78/h99/c5wXUEY22Vel4466iLW6N1dDyKgEv2cBAHgV4XmHzaGX8MqtXwsh/iT4PYtffQ4VLwFfcdj3By/jZXyB55cu27ovorIZ1xyfVw0UHus+zoSISgbYNT5DgLi3DpTWINbTXZZvO+kdCakF7d+tWtX5exMiKpthHOi6vx4T+YbWc7GbxzUvh/ad+jXUFERX9Ou3nEeIG4Lds3j0NXz8N7MIvfgUzU8c9n/yHK0Xv4PYX72JzaHzFiHEE8CuYfa+iCO346r8UF+EfAUpVHXjdxLNBykMdW85mciN7UttVI3t2wqim9b5D+v1V9FaSLFaGrkWwQ6L3/yv/v8v8JnjAV/i+W++xIsXbvw/Kholi9l7vwF1IeauWpkjaawuAY39zq97eaOKoVZPR+2fADERQatmEQ3XRRycRhAzA8F6/WU0T4G516n2I+4JdljUn+PJj86hzszi7Xcc9r8zg9jMSzg7/E9s/8xh/8C2z9C+8QW2cXbdicu6iLWaVsxIsq2cqLh8aj/05FztGwgn56MISsldJthhAeiTmF/g81877PuvF3gxaruJecxdXeLkBpcGzGHeuhyamMecm9McTeQhhO/bD1ucDaH9jAUIiDcEPyz0SczPPnXYp36Jz103FEJ81fgdFyBm4oAia936+hnaM1EI+o0v5NfNMoX9KaN5am0TSK/GOxXV3BRlNockMmRFRWTFcnxCxPJCC00WZiYeEfzVkJPfQsVriH/nTWy+8qvOcOPrIXz0nVmE8N+4dNU9UNE4j0GSJO3jaRVJS4Wx/aNl5DYlSJuAelRF42p5aIvljQLmrbbwWhWthdjgk/qZyLfWgHwFOUmC3trgYkmEXJNA2b377X/wl1/DX//Z7+LTT551wuKtl/HuX7yK3/67Dx737lmaJeT2CX7PAsDxT3+N4592TVr8xwv84w9GnrG4VYSHUYQuDhgUZKLcibDwK52HrFqo3vSRcUJuCMNiipG31tibIFND8FdDCCGewLAghLiCYUEIcQXDghDiCoYFIcQVDAtCiCsYFoQQV9yJ5yxo9ybk5gQ/LB6Fsbs+h5D6Gf75l9ZXTzW7t/CtF3gQOsHfX9dn4QlpFCXNjtWqVYGVFFBLInudN0UTIiqbUSh9tH2EeEXww2Lidu/+CPllRKwuzNIIj3TT/E1uiTsyZzG9dm/1/Gb6HEJui+D3LDyzewsQ93Km1EY9KmBtS4Z1KAGg17Y9e4AqUrrBu2Pc7li9c5CkVVSTTcS6LOA95u+VGJrdjoou87f1nM412rfbXRc0fxN3BLtn4ZndWwuKqFLQTdxVKOb2FOaOCqahu4qUveLYQgqxY21f4QiIZzQNXnkjicKRCvWogKSDpGYU83f3OUZQCPkKUvcaHSO4TccH0PxN3BDssPDK7p0QEEUDuxYzlrglA5lVxG3bNes3okLnRjytmhOW8qHiYOZ2YjTzt/ysDdybh13Rq7dlMZOjtI8GOhpAmr+JG4IdFl7Zve+HEbo4c35dvHt7/QztfoFwLSP4CObvUhYFJYqcJEGy9Ry625JxdtEr+DWg+Zs4EeywALyze/f8YvfZ7on1GxjV/C1vrWlDHiVqKYLU1RYEzN/rLR1AyCCCHxZe2L1LTbRm4lg35yLSEPOCw3bN0G1av0dmiPk7U+zqOfTSGZLobWUsx2dWEYcCmUuu5BoEfzXEE7t3GdkkUJRykKQcAKBVSwKQe7ZbVyBuwijmb3ut0xaqSW0eQt5IAjsScpKEHGCv00qIS2j39oPdG+hv+Kb5m9wSwe9ZwP92705Ro0JPIND8TW6LOxEWfsT+EBW6ihrR/E1uH4bFlFLeSA6sJkbzN7ltgr8aQgjxBIYFIcQVDAtCiCsYFoQQVzAsCCGuYFgQQlzBsCCEuOJOPGdBuzchNyf4PYtHYezm3sK3v/FVhG07NLv3u7lFfG+gJWs8pHcku1HrlhDylaFvrBLiRPB7FlNs954EfPKTjErwexYAptnuTYhfCH7PwhO7t4MBu8sJYXvxq2ufzTOh77ORKUJaiaClFxga1NZg47fVNN4xiVsxjOOGvZs2cOKWYPcsPLN7A3YDdhLVi7hFW5dGzLRqF9BAx54l5CvIRRXTrF1VuppNiKiszKGxbVQiG9xWf+O3ZhpHTTd4byuIbhaRRn9oAyfXIdhh4ZXdG4DdgK1ZvNWFmH4zlpE1f1llyIohvBUgRO1m7fKWVVIjoLgZR7tm7QH0a2uI8Vs3je8bpQ/rMpSrbvemHdrAyXUI9jCk/hxPvqJNYr79zgV+8sOu/brdu1UbYvd2bPsM7c3O+opdaQeoRwCwiPBMG80+rsvQUlwrX9hV29S5LWCo8Xsm3lHn6bTuA+h3TimLwusV7RzbcMfJBp5DrE9btIHfDYIdFoB3du9uLBZvcx4g2alEtm4eqP+6O9xk6lEVSjSFSv7ENgRw3Va38XuEuQNjdUTIV5DbSUPecLpm2sBJ0IchgDd2bwCA1bZtaO40i/fibMhSs1SAEDV6Bb1m7XTeOvY/gfi4ivZSznzmYmhb/YzfpWb/uQPawIkHBL9n4YndGwBUNM5jkCRJ+2jR3JU3qoiZhm8VrdNOt7zcbdY+rSIJWIoQlZHdnkdlMwdpZxHJgW0NMn4b7UiQVvRNQyzetIGT60C7tyu7t75c6LAUOVFGMHtrw5pdT8oVkLtF8HsWCILd24n+xu9B5wjRENp1BgW5PnciLILCMON3f7Qq8PEZ/ZzS0BMI6eFODEMIITcn+KshhBBPYFgQQlwRqLDgEISQ8RGosCCEjA+GBSHEFQwLQogrGBaEEFcE4qEs2rsJGT/+D4tHYeyuzyGkfoZ//qX11VLN3i186wUehE7w99f1VXhCR3OnKfA0k1X2Ok9QJkRUNqNQpu29FHLn8H9YTLG9W8gva3IbwzFRGsFTWRexxpAgU0BA5iym197dcVMQ4m/837PwxN4N2F62gtV0bTVmw2ajMqxWVaT0F7w6Ru3OS185SNIqqskmYl2vuQ82deskRFQ2wzjQt9PGTSaFv3sWntm7taCIKgXddF2FYm5PYe6oYBqwq0jZK4ktpBA71vYVjmAapsobSRSOVKhHBSS7AwDDTN19rpI2bjJB/B0WXtm7EwKiaGDXfN27DHFLNo3Zu5bXwMv7DSAqdG7E06o5YSkfKlBnwhYLVj+GmLr7QBs3mST+Dov6czz50TnUmVm8/Y7Dft3efXY4xN59P4zQxZmzRKZ7e/0M7X6BUD9D2/XFDzF1O1HKoqBEkZOkLqemk407hPB952Zo4yaj4O+wALyzd/f8YvfZbrF634yumh7dpu4+yFtr2pBHiVqKHHXXB6GNm3iP/8PCC3t3qYnWTKfyF5CGmBcctmtGbcPqPTpDTN20cZMpxP+rIZ7Yu8vIJttvuVMAAB3TSURBVIGiadUGWrUkALlnu3UF4iYMNnU7Qxs3mSSB0Ord3N49BfQzdY9g8CZkHPi/Z4Eg2Lv7m7qFh1GELg4YFGTiBCIs/MgwU3dnyNFCNckHqMjkCcQwhBAyfvy/GkIIuRUYFoQQVzAsCCGuYFgQQlzBsCCEuIJhQQhxBcOCEOKKQDyURbs3IePH/z2LR2Hs5t7Ct7/xVYRtOzS797u5RXxvoCVrfAj5CqSddJ+9aRQlCZIkoZhJoyhVICb6HHojtO+hGYvcFP+HhdXubRXc6HZvFa9MzO49CNP8nbxmaYBrU0Z27N9B7gL+DwsA02z3HgTN38RP+H/OwgO7d3pHQuzY+PXtyHs1b4UAcW8dKGlWbrtTomPzNi3aR23ElyJQjwrYtX5JQkRlMw4cFXAwm+sxfztdU6+t234thnm8U7gojaLUbQjXr8u4Tv06QrZ2u7f3msOXz6tQoindfm61h5O7gr97Fh7ZvcvHLUQeGHMLiwhDBWZ1y2ZCQNSwTmWKyC21UTUs2tsKoptFdGYlQojPNm3mbY00iptxtGvadlfmb0dbtwxZAaIPdSdWYh64Ujvy3UwMkdPmgJs4jeJmFMq23q61XIB+fdr2ApRozjbPEVpaBkq64fw0glTfuRgSVPwdFl7ZvZ9eQl2IaTd9JoY5RUHb+Hw/rGv0BIiJCFo1y81dF3FwGkHMvKlUm7FbY94sJ+Bu3mCwrVt+1kZIt4sLD6OAopi2ceH1ObSOB/3en+Dyqlfka8yfdK5Phli3BiigHu2a9U7Kx63+zlISWPwdFl7ZvesylCtNept+MAflUETz1PgcQfuZcdv2SnBPztXBWv2FeE85geEMsHWXmmjNhLEIAUK0jeaWDAXGZwyR9MoQH1eBFWMVprOnZ/7k6SXUfoHw9BL0g989/B0WgEd2b6N7n8a8PuQ4Odc/32uhaf7i9v4qL86GLGHiwGkV1Yu4xcTthkG27jKapxHEMosIXzRRhoyzC/2zK0mvtjqSTFaBlc5ybWi2q7jBoPII5E7i/7Dwwu4No3u/jCi0G0Q+VIDoMqIXxhyADFlREVmxzFEkRCwvWMPEmfJGAY17qQHPXNiOHmrrPjlXMZdYxpzeGygft7TPpnVcgLg37NmKzpBEPlSg2qqU6UOugUMactfw/2qIJ3ZvaN37lRRQ12+QugwlE0fU0j2Xt9aAfAU5SYLu5Ha5KiBDfLyIopSCtDePwmNx4NHlIbZu+VDB+lIUyqFsXnt7JQUM6uEA6K7bqh4VsFYCABFrEFHZlCCtaPtaNT6bQewEQqsXCLv32HBaTiXk+vi/Z4Eg2L3HSCaGyNUl9id9HcT3BCIsiAOZIqSVCLQHx7KcqCQ3hmERVEpZJDnnQDzE/6shhJBbgWFBCHGFr8KCBYYImRy+CgtCyORgWBBCXMGwIIS4gmFBCHGFL56zoL2bkMkz/T2LKbZ3Tye0eZPxMP1h4VN79/Vw80q5W2jzJuNh+sMCgF/t3YQEiemfs/DA3q1hdTm0UK0BqQdNJDf0F7f7WK+FfAW52QNUkdJt21aj97DzFDTuxRGf0bd3GbQ1Z4TlulYkSImOu8LZ8G18ZxjK0RziS6Eu98TNbd5D/2ZyJ5nunoVH9m6tm68p8zV7dROxlYhlf5f12rRp6yykEDvW9hWOYLFYDTsvqhux9QB5GLYc29KtW2VkkwU0rrTwSOpB0d/wbRBBFLtDihSNbvPu/zeTu8p0h4VX9u7MKuJoYN+8qcrI1lrmbs1ufdD55TSluDoW87V8qEDV9w0/78D2ayxvZe3H9r3gwYZvjRYOhkqAR7d59/ubyd1luoch9ed48pVz/Pj9Obz9zgV+8sOu/bq9u1UbYu8GgGHy2YUUJCll2aDiMgH0GPnqZ2hvhq9/HoBurR3QQm95IQMnw3cOsfsABhq87edoOj9Nl2cdrjjavBN9bN7dfzO5k0x3WAAe2bth1rkwAkN4fc622zpmtyI8HNys+/OMuYQksmY1sdiAlnXDtxkYVsP3dSgjmyzr31eB+HQNMgybt+W674cRumhqQ6DrfgW5E0z3MATwxt5daqI1E8eqOSZPY9UsQaibvJfWr13F/FrnJeYxZ+0tZGKI9D14uOHbDm3eZPxMf8/CE3t3GdnteYu9uoVqrYXIA313XcTa/SKkTQnSpr7ttNpZKenHdc6ri9h9aDGDn7YscxYyxPoqJMtqyDDDtzto8ybe4Qu79zjs3UK+gnXsOg4h/A1t3mQ8TH/PAmOwdydErC8BynbQggK0eZOx4YuwuDndqxBatztQDxnR5k3GjC+GIYSQyTP9qyGEkKmAYUEIccVUhQWHIIRML1MVFoSQ6YVhQQhxBcOCEOIKhgUhxBVT8VAW7d2ETD+T71lMqb1byFcg7QXTDhXkv42Mj8n3LKz27p9btuv27h+/PzcRe7e8tebvR6Z1T+eBwwtlvv/byESYfM8CAO3dhEw/k+9ZjMXebbFRG7+wNSClS3pNu1WmCOn/t3e/sW3c9x3H33aqBA5jpZFryfWmpZbcdUQTM12JGWuMjtwSDuiuEKgBE+ChAwqCwBzA3APxQZ9oO8DDUGDSExmYhqpEHwwwpj4QIeSwAe4AcoAfTB3blUI3oohFtVDXRs6stHLo/FHi7MEdyeOJpE4U9defF2DA5P2VgPvq9/vd3ecXXW/IiUjctAgtGcyfsxOujeuZ5knd3pfT3DkW7Y5ZTcxaXCN82ckaXzBIUX0RbGu2hDvle8t+FkoER5yU7uo5JOv7ilsWMU+aVzW9u3q+zfffJl283bHl2DrYlsVepXdPlQiOT1OPnx2yY/8NA2OqUE+3mi1S7nWH4CYIXShTbBYC05DUbR9vYHHSScc2yBJnbsI9CtDimAAECPcXXSnfFtaloif12/nJJuaIk22Rwh0gHIUZw8AwspSr6VezKYypAhXKZA2jbWZH4/6NhukA2qeLtzi2HFsHWyz2Kr07l6e04WRYAlAmW/2rl8tTqiVe2/F1tfTrZIihlWLz0Bh3UrdzvBnXRZiZL0Aw4rqYWh0ToEJh3lk2W6S85XP13J2U7+oy8uRLFQbORer7qSWAZyiu4FrmT/7NtVo+aZ2fdPHdH1uOloMtFrkHvPade1R6+3n51SbLnfTu1Ts+0rt7w6QtC8uysKw04d6tEfi2PKv3658yS9UI/AhmdMB1YW7DmxaeW2WtZVx+4zF3JkB4vPpzWaQvB5yw3a2W71V2vvvZFJOloP27a2g5NEsXb/U77fDYcqQc/JhFt9K7W/WZtwvTnS1StkIkooMEKTHjNxDHkxZOdJCBjfUWUwDshnuswC3RZN3OVO+ORCbmSN9MkL8O3UsXl+Pi4O+GdCu9u+M+c4biyhCh0T4o5f3dUnTSwq+5xigSo2H/2+/w3OI3u1AYktPbPltR75LsNF1cHgcH37LYk/RudpSGnVkqY40MUJj3e6lnSBkwbaWxrDTQev6Q3cpcn2TwVto1kZHPeUdzJrdHrfrdkDebrxaZmCNdmxahTNawf2f5rqSLy3FyKGL19iK9W1o7vsnmspcOvmXBHqR3SxsRIsEAazkVCtmZQ1EsZD9EMG+lCfdiDwZrQiHZIRWLx0Ye86paE9K5g78bIiJHgoqFiPiiYiEivqhYiIgvKhYi4ouKhYj4omIhIr4ciucslO4tcvgdfMtiH9O9d5VqnZzG6sbbn74lmLYspU/JoXHwLYt9TPc+WqnWGVKGMi3l8Dj4lgWgdG+Rw+/gWxZdSPeuJnLbidj2C1PBUjVfIoJ56xrMjpG/4k3svk2WuJNg7c2JcKd3l8kuNB6zMQfCtW1y2g7fdVK7IhNzpIOlWhZE/fXw4eZp5PWfyk7Qdr5vOJ4rFazleTi/l9i9LKVg3H6BrGXqlsj2jkW6dz1HE2CYPipQzamMRgi2Sni6ECe0ZKdXTy7iSobypIUbRUIjQ/XtktOkL6+RNZqkic8WKV8I1ULvhvuhQjWbM0IkCKU7ePa/TZhNctouONXjVeMD252HI3A55qSSG2S7lbolj6Xjke59d51K9QJNhhgolVirfr7YJi5vJVubnyN/p0SlGrjrTQsnQ2qh7Pw/ghkdorzg+gudM7m9MkQoCbDM+kb1/wlCZ0qU7lc/D9NHiXzODvD1nYZ9d71+bjXbnYetsjhTK0SZpXKTJG8Rf45Hurcr+j9xaYDSHZPiSvXzEGtv+hjWzK2y5v7sTe9usDW4dvleNaLfFdefDDFQymMulWufh5z9Zq7bc4BYluWZb6TZuZmMLdgTBlmWu+XQ7jyauLuOMrilUwc/wNmVdO88+RIEryQYdLocy/ecz2daTBq0Hc9f4Mi5AfdJb4nEH+4P1IpS/k4JghES56B0Jw93153PA5SX6nOAmFebTRzUwmyqyWQ/7c9DpJsOvlh0I90bO5k6EIwRxP7LbV+wMYL3W0wa1I6T3j1au4ATjNYGEe2Wg3vWMKImMfdMZrlV1nqDxILYc2/k8pQIEguuNSlcri5J1GTOmm4f8l/rkvg4D5EuOvi7IV1J98a+wEfikHPNApYME7zXyUwe3rTwMtmFMkOX7KX5G2MwMUfasrAzt713GTIUV+LEqRaqPPnSNcLB6rwirog7sO9u3MhDtEX3wTV3afWORwZg2/MQ6R6lex9aCaatEEVd/HJIHHzLAqV7N5UMMbSxzvxBn4eI41AUC3GpdTkqFKZSR+jxdDnuDkU3REQOv4O/GyIiR4KKhYj4sq/FQl0QkaNLLQsR8UXFQkR8UbEQEV9ULETEl315KEvp3SJH3963LPYxvXtfRE3mrDnM6EGfiMj+2vuWxT6md++LnMlYuwg8kWNqn8YslN4tctTtfcuiC+ndtaTrhRLBkTABaEi4JmoyN+58D5QXqknfznaLa4QvD9WXUc+HqK/rHOmm5aR9Q2WxmhDuEjWZG+/jtvPq+M5Tt7f5WUQOqb1tWXQpvdsWIByFGcPAMLKUL8RrUXSRK32UppyE64VyY3oUAcL9Rdcyy47qb7JuZGKOOFkncdtH3F3HqdutfxaRw2pvi0W30rsBqFCYNZ1XtjMUV+rp2PkbqXqU/myRsne7+YxrmfezHexrR+dRX+YO3m2l49Tt1j+LyGG1t92Q3ANee8IexHz51ft899ue5U56d3lhm/TuJpbvuXOq3RMCAZQpdnTCAcLjFta466uVYWiVKpEzGbs4jWVZxBsi7ZqnbsdaFITGn0XkcNr7MYuupHe3U525yyBVGxMIdbivDjIsZ1MYs9ihNbdMlq/mqaVuu+6aDPcHWFvKg6cdInJU7P3dkC6ld7cUHWSANTtFG+w4uo52lKHYasYupW6L7EPLolvp3a3kTGauuBKuV8qeMQv/MtcnGbyVxrLizjfOXYxWGyh1Wx4j+xKrd6zSu6Mmc0mYuWoqH1MeK/vybshxSu+OXAkSuH9bhUIeO0r39qn+kFWZrKEOhTx+9jXdW0SOLuVZiIgvKhYi4ouKhYj4omIhIr6oWIiILyoWIuKLioWI+KJ0bxHxRenegP1au6W0KpE29r5YuNO93QE3Trp3hSd9pXsnblrMTewmTSqCeatVQciQMhqzOEWkkdK9RcSXI5Hubd6yCPcCF9JY1mgtG6JVsnZj2neZrFEkVI3dG7GwogUmG14xr6Zt2QncO0/stls+sXtZSsG4fa7KsJBj5kike5tXDbIrdjS/Ub0APcnaWeJONyXB9HiwnvZtpMiQIWVMUtiwo/+NdlkUHSd2Q+ByDGad82mVuiVyRB2hdG83J0E7V7/oM0tlAv3DwDLrG04GZic6TuyGyuJMraWRWSrDmUGU2S3Hxd4Wi9wDXvvOPSq9/bz8apPlTrr36p2dp3sD9hwglvNvZMi5OPOYV7N2d6OTOxw5k7EFiFsWVkPuZvPE7pYR/nfXUWa3HCdHON27ccygUYaUkcEei5jDvNtqvRZ2nNgtcvwd0XTvPPkShJPmNs38dl2SdrdSHUrsFqk5MunemfkCsXHX3ZAbYwzftEhbFmlnHXve0sYJhyqLk4zNAuQxc6NYtbshLVoESuwWaUrp3kB1YqKiLn6RlpTuDfbERBvrzB/0eYgcYo93unety1GhMJVSvL9IG0r3FhFflGchIr6oWIiIL13thojI8aWWhYj4omIhIr6oWIiILyoWIuJL14tFz6c+wyefebyf9RI5jrpaLE72fZ7hzw3z6Rd/l4HTe1MwIhNzWLdavW2qlG6RvdK1W6c9Z4M8t/lTKs+9yPmB03zixAPWf/xD1h582I3dNxc1mRvv47ZeABPZc11pWfScvcRnfvs8Z4K/Q8//fp83lpbZPHmavhf2roUhIvtr1y0Lu1Ccdd5Ie8TD5f9g9S049fwXGPz0KU486qCF4U7n3iiQLQWJMcPYjbydsN1/G2Mp5MqdcHIrbgw3pHSDnbodv2D/v7yQhRHnVfRqq2QB4s5+7H24Mr9d2zbkVzjblhYHCF8OODkajet79yVy1O2qZXHyk59zFQp7d08HTnHq+RcJvPV9flJY4lcfnabvhZd47pTfvXrSuWchVovfd5lNYUwVqFAmaxhNL8zIxBxxsk7Kt0HxUj0UxzZE/FLRSesuwOVrmFHXtmcK9ZTvBYg3jJUMEWQGw5mcqPFYk5SCaY2dyLGyu2LRc6rpdCCcOE3v2Wc7ev89MhFjaOV2PTMzZzKz2En0bYLRy1CYr49mZK5nKTesUyZbjfrP5SnVIvicbWddUwbMzlMgSCRa3/Z2rUB5j2XH8LUM8xU5gnY1oPDhWz9i+RNhhoee5UT1u80P+JD36Rl8iYufBh49YP3HP+Ltd/3vt3LPR86eL2us+g7qzbN6P+2aj9W7rb08dBG4690WIEB43MIad321MgxKyZBjYtejj5u/LLBMtWA84P5b7/D+iZ+zOThMTyfjFeDM/1G/yIb7A3Cvk7MbYDBKPZE7OshAp9sSYfDM1ukA6pTJKcdbV+6GbP6ywHL513zMafpf/BIXX7iws0IRNZlz5ujI3ylRuRCrjR3YKdqdnFWG4kqA8Gh95o/EaHVKQ5/butPDk6OEKZFvMfVAUTOQyTHXtYeyqgWDnlP0PFHp/BmLnMnYwprdpLcsrCTcbjVm4cwKFreaz7CeuT5J4Uy8NhFRaMk7ZtFa5rpB9n6YdHUSo+i6Z37U9seyrLl6wRM5BrqeZ9Hzqc8QeO/n/Oqd7j2MlbhpEVqy7zrsStRkLgkz7eY6FZGmuv5uyOb//bSrhYLkNPGuTOYTwUyGoZRXoRDpwOF7vNL9QBbQMNHPDjU+VAWsZDH0oJRIRxSrJyK+KM9CRHxRsRARX1QsRMQXFQsR8UXFQkR8UbEQEV9ULETEl90Vi2fCnP7yX/IbV0ItVujhqSspzn35FU498/SuDiUiB2tXxeLZ0RQvvPIlfiuW4uKVz3qW9vDklb/mhViYC6/8BS+NvrKbQ3VN4mbzl846EjWZ0wtj8pjoUjekh7Oxb3Dhi2dr3zzxxW/wYux5ntzRfuwo//qbm/Zr6xDBvGVtOwVA14qAV3Iaq9nr5zmTMaOe99mU6/V7v3wXtA72LdKpLo5Z9HDuqzd4/tJZnrj0DT7/1c/urFAkp7GsOCwYtcxMY2qdUO2iqVAhzGiTXMvIRMyTrSki3da1F8kePYKTJ5/m/OgU54CTJ4FH8Oikn4qUYHpkgMKU0fhXOmeSygFOe6JUKhO+lICG18oSjF5eo7A4QND9rfslso1C8yyK5DTWyFAtnbvxJTYfyVeeeUu2pHu/OVpLII9bFjEn8bt1CngE81aacC9wIY1ljZI1ioScIlo/xyClH6wR/uLWfYvslS61LN6gPP8/VB7Ze7QLxUN+Mf+v/tLwkiGGNlqlULncmadwJtYwRmAH/BY9hSBByJW0XSDMNW+zPmoy5xQoOyfDkyq+Jc27PW+S+NiNfNME8qbr1eQxrxpkV+wiYhgpMmRILZQZitrnkhgNw+IM5t9sn24u0k1d64Z8sPRN/vv1N/gAgE3efH2Cny3tIJX7/qqPnIk8+RKuqLwIkWBjgrctQ+p6Y9J2owjT42HWFurjDVtSxWeLlHv7GPZ5+vk31+DM4LbFxe96DWZTZO+HGZ0wiZ0pMKPCIAegq3kWH/3gm/zwjfOc5Fd8tPHrnW3sXEDbXQb5G7cZtUIkgExylPD92xg5iFxpXC8yMUfaNd9IZbG+LHA5zNBKFsMbqHMhbo+b1Ldi3e+djtkUk+fmSFsW6Vbdnp2s55GZL9jdj6kxhffIgejyQ1mbfLzxs50Xitki5V73nBztZJhfHCA2kcCMDjRpVVCftcxp6k96Mjwri1kKZ+Jb7jjYTX/XAOt2dzo88jfG7OOVgqTbhPf6Xc8tMRpmbWWtMURYZB8dkic4M8wvQnjc88xC1GS6yS3E/J0SXI63TNse7g+45h6JEAl6M72XMa9mWbucrhUMe5/XuvLMxM67JPat4ZYzmCWniZ8pMH99nkKLO0Iie21X3ZBHDx/y3kOAhzxqusZDPnr4kPcAHj5su6/8jTHyyWks90Q9GwUmr+bBe9nlTG6PWoSWmjfhM9ezhKw0lpUGKpRXmo2dZEhNDTI3nsa6OYxx3WTsouf4K1mM6tiHp4tSWZxk7E59b43dnjJZwzk351yrdyxmuNZkvUjDT5iZLxAbd+6GTK0TGxmgMJUiD+RnI8yNz2HeHcP07FuDnLKXFKsnIr4ckm6IiBx2KhYi4ouKhYj4omIhIr6oWIiILyoWIuKLioWI+KJiISK+qFiIiC8qFiLiS1deUX/uD55m7KWn4I23+cd/cb78QoDxPzrB6n++w3f/vRtHEZGDtPuWxVf6mEk/z5/8/jP0NSw4wfDv/SZfSw/zt1/Z9VG6pqvp3odU4qbVPGBYZBd237I4/yQB3qPw7VX+7t9c3//XO7z2rXv8818NcPq8350lmLbirvDdag6mk01Jq7AYe7uBvXrz0snqrKtQmNpZ1kXHPDmffmSuG77XFfGrS2MWT9E32OTrwAn/Cd+HPd17pZ6baSysER5XBL88XnbfsvjFB1Q4AU80WXa2hx4+5MH6djs5Yunes/MUotcYjAK5BNNWjPXFNcKXh2pp3Q35Fu5cjFbHaPa9q0XjzqxouW/Xzx67V21luVtr7haRpxXn2k81aSxL3Pkd7mNLSg6t3bUsvvIs//Dn/QQ236b4vSbLv/eA8uYnCP3pecbbjVsc+XTvAOH+Yj2tOzlNOlhi0mmJZKlG+HmOUStGLY7dJB3cu29voWgUwbzlbq1VL3j7+wFXjGD9HB0X4oSWqrGEKM5Pdlks3nXysd7d5J2mK3zMg3c/ZnPTR77OEUr3jkxc80T6VVznEMGMDlHO1VsymaUygf5hYJn1jQB9F73720Gy+N11Kr5Tx/Os3oeBc57LPDlKmMaU8Mx8AYKuxK6VrFNE7chB/8eU42p33ZDcA157wh7EfPnV+3z3257lr/YS6j1BeeGXTP1L0z3UHfZ0b/cyH6ncQyMW1ojri411ImQwrw7bUzSOUO/+bHdst5wT/2dZxH1MhJS5PsngLTtisGFCI29xzq2yNh7CLmneY66yNt7n/VYeM7sfswic4Ek+5INmgd5vbbLpZx+zRcojMSJRtu+KkGF+cY5rEwkGgwMUZtule9f74NdcyyuLWUrBOHMTyw13Tyqt7qZcpOnYQGvt+vgZUkYGe8zAztLMtzt2s4Ixm7ILXXIa65bJctvClcd0ckzNW2mmk3lSsLU4RwcZ2FjfWihEHLu/G+IMYr7zdpNllY+dSYe2c5zSvZ2u0rZ9/HqXpONju7ok2z8/4uqSzBYp9zaO4yRGw1DKa04SaWn3LYvl96nwHOGvn2f8yV/UuxtfCPD3X+8nwEPWffy5OvTp3juQvzHG8E3LnkjI+c7ucjTegagsTjI2C9Dm2N4Eb9f8qdUWjN1OacY1d2p1nzfyQJ6UAdO131Gblo2Ioyvp3pe++ix/9oenePt7b9aLxfM9fO2Pn+L9n+hx7/2WuGkRWnKNh4h0QVfeDVl6/dcsve4ZtPjZJv/0LV8jFtJVCUIXKqzPH/R5yHHT1blO5SDVuziVxUnnYTaR7tEkQyLii/IsRMQXFQsR8UXFQkR8UbEQEV9ULETEFxULEfFFxUJEfFGxEBFfVCxExBcVCxHxRcVCRHxRsRARX1QsRMQXFQsR8UXFQkR8UbEQEV9ULETEFxULEfFFxUJEfPl/VHcSysIEbcQAAAAASUVORK5CYII=;" parent="1" vertex="1">
          <mxGeometry x="-1210" y="-1" width="267" height="1864" as="geometry" />
        </mxCell>
        <mxCell id="9iRGJWElinjqTf8RZtp3-2" value="" style="rounded=0;whiteSpace=wrap;html=1;fillColor=none;strokeWidth=2;fontColor=#ffffff;strokeColor=#005700;" parent="1" vertex="1">
          <mxGeometry x="-1210" y="20" width="290" height="199.5" as="geometry" />
        </mxCell>
        <mxCell id="9iRGJWElinjqTf8RZtp3-3" value="Проинсталенные библиотеки" style="text;html=1;align=left;verticalAlign=middle;resizable=0;points=[];autosize=1;strokeColor=#005700;fillColor=none;fontSize=22;fontColor=#ffffff;strokeWidth=2;" parent="1" vertex="1">
          <mxGeometry x="-910" y="20" width="320" height="40" as="geometry" />
        </mxCell>
        <mxCell id="9iRGJWElinjqTf8RZtp3-5" value="" style="rounded=0;whiteSpace=wrap;html=1;fillColor=none;strokeWidth=2;fontColor=#ffffff;strokeColor=#005700;" parent="1" vertex="1">
          <mxGeometry x="-1210" y="219.5" width="290" height="67" as="geometry" />
        </mxCell>
        <mxCell id="9iRGJWElinjqTf8RZtp3-6" value="Замер скорости" style="text;html=1;align=left;verticalAlign=middle;resizable=0;points=[];autosize=1;strokeColor=#005700;fillColor=none;fontSize=22;fontColor=#ffffff;strokeWidth=2;" parent="1" vertex="1">
          <mxGeometry x="-910" y="219.5" width="190" height="40" as="geometry" />
        </mxCell>
        <mxCell id="9iRGJWElinjqTf8RZtp3-7" value="" style="rounded=0;whiteSpace=wrap;html=1;fillColor=none;strokeWidth=2;fontColor=#ffffff;strokeColor=#005700;" parent="1" vertex="1">
          <mxGeometry x="-1210" y="286.5" width="290" height="110" as="geometry" />
        </mxCell>
        <mxCell id="9iRGJWElinjqTf8RZtp3-8" value="Полезные cmake файли" style="text;html=1;align=left;verticalAlign=middle;resizable=0;points=[];autosize=1;strokeColor=#005700;fillColor=none;fontSize=22;fontColor=#ffffff;strokeWidth=2;" parent="1" vertex="1">
          <mxGeometry x="-910" y="286.5" width="270" height="40" as="geometry" />
        </mxCell>
        <mxCell id="9iRGJWElinjqTf8RZtp3-9" value="" style="rounded=0;whiteSpace=wrap;html=1;fillColor=none;strokeWidth=2;fontColor=#ffffff;strokeColor=#005700;" parent="1" vertex="1">
          <mxGeometry x="-1210" y="396.5" width="290" height="63" as="geometry" />
        </mxCell>
        <mxCell id="9iRGJWElinjqTf8RZtp3-10" value="Тесты" style="text;html=1;align=left;verticalAlign=middle;resizable=0;points=[];autosize=1;strokeColor=#005700;fillColor=none;fontSize=22;fontColor=#ffffff;strokeWidth=2;" parent="1" vertex="1">
          <mxGeometry x="-910" y="396.5" width="80" height="40" as="geometry" />
        </mxCell>
        <mxCell id="9iRGJWElinjqTf8RZtp3-11" value="" style="rounded=0;whiteSpace=wrap;html=1;fillColor=none;strokeWidth=2;fontColor=#ffffff;strokeColor=#005700;" parent="1" vertex="1">
          <mxGeometry x="-1210" y="571.5" width="290" height="1210" as="geometry" />
        </mxCell>
        <mxCell id="9iRGJWElinjqTf8RZtp3-12" value="Пресеты для CMakePresets" style="text;html=1;align=left;verticalAlign=middle;resizable=0;points=[];autosize=1;strokeColor=#005700;fillColor=none;fontSize=22;fontColor=#ffffff;strokeWidth=2;" parent="1" vertex="1">
          <mxGeometry x="-910" y="571.5" width="310" height="40" as="geometry" />
        </mxCell>
        <mxCell id="9iRGJWElinjqTf8RZtp3-13" value="" style="rounded=0;whiteSpace=wrap;html=1;fillColor=none;strokeWidth=2;fontColor=#ffffff;strokeColor=#6F0000;" parent="1" vertex="1">
          <mxGeometry x="-1200" y="592.5" width="230" height="552" as="geometry" />
        </mxCell>
        <mxCell id="9iRGJWElinjqTf8RZtp3-14" value="Пресеты для Linux" style="text;html=1;align=left;verticalAlign=middle;resizable=0;points=[];autosize=1;strokeColor=#6F0000;fillColor=none;fontSize=22;fontColor=#ffffff;strokeWidth=2;" parent="1" vertex="1">
          <mxGeometry x="-910" y="616.5" width="210" height="40" as="geometry" />
        </mxCell>
        <mxCell id="9iRGJWElinjqTf8RZtp3-15" value="" style="rounded=0;whiteSpace=wrap;html=1;fillColor=none;strokeWidth=2;fontColor=#ffffff;strokeColor=#006EAF;" parent="1" vertex="1">
          <mxGeometry x="-1190" y="616.5" width="180" height="109" as="geometry" />
        </mxCell>
        <mxCell id="9iRGJWElinjqTf8RZtp3-16" value="Пресеты для benchmark" style="text;html=1;align=left;verticalAlign=middle;resizable=0;points=[];autosize=1;strokeColor=#006EAF;fillColor=none;fontSize=22;fontColor=#ffffff;strokeWidth=2;" parent="1" vertex="1">
          <mxGeometry x="-910" y="666.5" width="270" height="40" as="geometry" />
        </mxCell>
        <mxCell id="9iRGJWElinjqTf8RZtp3-17" value="" style="rounded=0;whiteSpace=wrap;html=1;fillColor=none;strokeWidth=2;fontColor=#ffffff;strokeColor=#006EAF;" parent="1" vertex="1">
          <mxGeometry x="-1190" y="725.5" width="180" height="131" as="geometry" />
        </mxCell>
        <mxCell id="9iRGJWElinjqTf8RZtp3-18" value="Пресеты для googletest" style="text;html=1;align=left;verticalAlign=middle;resizable=0;points=[];autosize=1;strokeColor=#006EAF;fillColor=none;fontSize=22;fontColor=#ffffff;strokeWidth=2;" parent="1" vertex="1">
          <mxGeometry x="-910" y="725.5" width="260" height="40" as="geometry" />
        </mxCell>
        <mxCell id="9iRGJWElinjqTf8RZtp3-19" value="" style="rounded=0;whiteSpace=wrap;html=1;fillColor=none;strokeWidth=2;fontColor=#ffffff;strokeColor=#006EAF;" parent="1" vertex="1">
          <mxGeometry x="-1190" y="856.5" width="180" height="284" as="geometry" />
        </mxCell>
        <mxCell id="9iRGJWElinjqTf8RZtp3-20" value="Пресеты для своей библиотеки" style="text;html=1;align=left;verticalAlign=middle;resizable=0;points=[];autosize=1;strokeColor=#006EAF;fillColor=none;fontSize=22;fontColor=#ffffff;strokeWidth=2;" parent="1" vertex="1">
          <mxGeometry x="-910" y="856.5" width="340" height="40" as="geometry" />
        </mxCell>
        <mxCell id="9iRGJWElinjqTf8RZtp3-21" value="" style="rounded=0;whiteSpace=wrap;html=1;fillColor=none;strokeWidth=2;fontColor=#000000;strokeColor=#B09500;" parent="1" vertex="1">
          <mxGeometry x="-1180" y="878.5" width="150" height="90" as="geometry" />
        </mxCell>
        <mxCell id="9iRGJWElinjqTf8RZtp3-22" value="Пресеты для расшаренной версии" style="text;html=1;align=left;verticalAlign=middle;resizable=0;points=[];autosize=1;strokeColor=#B09500;fillColor=none;fontSize=22;fontColor=#FFFFFF;strokeWidth=2;" parent="1" vertex="1">
          <mxGeometry x="-910" y="903.5" width="380" height="40" as="geometry" />
        </mxCell>
        <mxCell id="9iRGJWElinjqTf8RZtp3-23" value="" style="rounded=0;whiteSpace=wrap;html=1;fillColor=none;strokeWidth=2;fontColor=#000000;strokeColor=#B09500;" parent="1" vertex="1">
          <mxGeometry x="-1180" y="968.5" width="150" height="88" as="geometry" />
        </mxCell>
        <mxCell id="9iRGJWElinjqTf8RZtp3-24" value="Пресеты для статической версии" style="text;html=1;align=left;verticalAlign=middle;resizable=0;points=[];autosize=1;strokeColor=#B09500;fillColor=none;fontSize=22;fontColor=#FFFFFF;strokeWidth=2;" parent="1" vertex="1">
          <mxGeometry x="-910" y="968.5" width="360" height="40" as="geometry" />
        </mxCell>
        <mxCell id="9iRGJWElinjqTf8RZtp3-25" value="" style="rounded=0;whiteSpace=wrap;html=1;fillColor=none;strokeWidth=2;fontColor=#ffffff;strokeColor=#6F0000;" parent="1" vertex="1">
          <mxGeometry x="-1200" y="1144.5" width="230" height="592" as="geometry" />
        </mxCell>
        <mxCell id="9iRGJWElinjqTf8RZtp3-26" value="Пресеты для Windows" style="text;html=1;align=left;verticalAlign=middle;resizable=0;points=[];autosize=1;strokeColor=#6F0000;fillColor=none;fontSize=22;fontColor=#ffffff;strokeWidth=2;" parent="1" vertex="1">
          <mxGeometry x="-910" y="1144.5" width="250" height="40" as="geometry" />
        </mxCell>
        <mxCell id="9iRGJWElinjqTf8RZtp3-34" value="" style="rounded=0;whiteSpace=wrap;html=1;fillColor=none;strokeWidth=2;fontColor=#ffffff;strokeColor=#006EAF;" parent="1" vertex="1">
          <mxGeometry x="-1190" y="1188.5" width="180" height="109" as="geometry" />
        </mxCell>
        <mxCell id="9iRGJWElinjqTf8RZtp3-35" value="" style="rounded=0;whiteSpace=wrap;html=1;fillColor=none;strokeWidth=2;fontColor=#ffffff;strokeColor=#006EAF;" parent="1" vertex="1">
          <mxGeometry x="-1190" y="1297.5" width="180" height="131" as="geometry" />
        </mxCell>
        <mxCell id="9iRGJWElinjqTf8RZtp3-38" value="" style="rounded=0;whiteSpace=wrap;html=1;fillColor=none;strokeWidth=2;fontColor=#ffffff;strokeColor=#006EAF;" parent="1" vertex="1">
          <mxGeometry x="-1190" y="1428.5" width="180" height="287" as="geometry" />
        </mxCell>
        <mxCell id="9iRGJWElinjqTf8RZtp3-39" value="Пресеты для benchmark" style="text;html=1;align=left;verticalAlign=middle;resizable=0;points=[];autosize=1;strokeColor=#006EAF;fillColor=none;fontSize=22;fontColor=#ffffff;strokeWidth=2;" parent="1" vertex="1">
          <mxGeometry x="-910" y="1196.5" width="270" height="40" as="geometry" />
        </mxCell>
        <mxCell id="9iRGJWElinjqTf8RZtp3-40" value="Пресеты для googletest" style="text;html=1;align=left;verticalAlign=middle;resizable=0;points=[];autosize=1;strokeColor=#006EAF;fillColor=none;fontSize=22;fontColor=#ffffff;strokeWidth=2;" parent="1" vertex="1">
          <mxGeometry x="-910" y="1297.5" width="260" height="40" as="geometry" />
        </mxCell>
        <mxCell id="9iRGJWElinjqTf8RZtp3-41" value="Пресеты для своей библиотеки" style="text;html=1;align=left;verticalAlign=middle;resizable=0;points=[];autosize=1;strokeColor=#006EAF;fillColor=none;fontSize=22;fontColor=#ffffff;strokeWidth=2;" parent="1" vertex="1">
          <mxGeometry x="-910" y="1428.5" width="340" height="40" as="geometry" />
        </mxCell>
        <mxCell id="9iRGJWElinjqTf8RZtp3-42" value="Пресеты для расшаренной версии" style="text;html=1;align=left;verticalAlign=middle;resizable=0;points=[];autosize=1;strokeColor=#B09500;fillColor=none;fontSize=22;fontColor=#FFFFFF;strokeWidth=2;" parent="1" vertex="1">
          <mxGeometry x="-910" y="1476.5" width="380" height="40" as="geometry" />
        </mxCell>
        <mxCell id="9iRGJWElinjqTf8RZtp3-43" value="Пресеты для статической версии" style="text;html=1;align=left;verticalAlign=middle;resizable=0;points=[];autosize=1;strokeColor=#B09500;fillColor=none;fontSize=22;fontColor=#FFFFFF;strokeWidth=2;" parent="1" vertex="1">
          <mxGeometry x="-910" y="1541.5" width="360" height="40" as="geometry" />
        </mxCell>
        <mxCell id="9iRGJWElinjqTf8RZtp3-36" value="" style="rounded=0;whiteSpace=wrap;html=1;fillColor=none;strokeWidth=2;fontColor=#000000;strokeColor=#B09500;" parent="1" vertex="1">
          <mxGeometry x="-1180" y="1451.5" width="140" height="90" as="geometry" />
        </mxCell>
        <mxCell id="9iRGJWElinjqTf8RZtp3-37" value="" style="rounded=0;whiteSpace=wrap;html=1;fillColor=none;strokeWidth=2;fontColor=#000000;strokeColor=#B09500;" parent="1" vertex="1">
          <mxGeometry x="-1180" y="1541.5" width="140" height="86" as="geometry" />
        </mxCell>
        <mxCell id="9iRGJWElinjqTf8RZtp3-48" value="" style="rounded=0;whiteSpace=wrap;html=1;fillColor=none;strokeWidth=2;fontColor=#ffffff;strokeColor=#005700;" parent="1" vertex="1">
          <mxGeometry x="-1210" y="459.5" width="290" height="112" as="geometry" />
        </mxCell>
        <mxCell id="9iRGJWElinjqTf8RZtp3-49" value="Своя библиотека" style="text;html=1;align=left;verticalAlign=middle;resizable=0;points=[];autosize=1;strokeColor=#005700;fillColor=none;fontSize=22;fontColor=#ffffff;strokeWidth=2;" parent="1" vertex="1">
          <mxGeometry x="-910" y="459.5" width="200" height="40" as="geometry" />
        </mxCell>
        <mxCell id="9iRGJWElinjqTf8RZtp3-51" value="" style="rounded=0;whiteSpace=wrap;html=1;fillColor=none;strokeColor=#432D57;strokeWidth=2;fontColor=#ffffff;" parent="1" vertex="1">
          <mxGeometry x="-1205" y="1803" width="120" height="20" as="geometry" />
        </mxCell>
        <mxCell id="9iRGJWElinjqTf8RZtp3-53" value="" style="rounded=0;whiteSpace=wrap;html=1;fillColor=none;strokeColor=#432D57;strokeWidth=2;fontColor=#ffffff;" parent="1" vertex="1">
          <mxGeometry x="-1196" y="1737.5" width="101" height="20" as="geometry" />
        </mxCell>
        <mxCell id="9iRGJWElinjqTf8RZtp3-56" value="Поменять имя проетка на свое" style="text;html=1;align=left;verticalAlign=middle;resizable=0;points=[];autosize=1;strokeColor=#432D57;fillColor=none;fontSize=22;strokeWidth=2;fontColor=#ffffff;" parent="1" vertex="1">
          <mxGeometry x="-910" y="1727.5" width="340" height="40" as="geometry" />
        </mxCell>
      </root>
    </mxGraphModel>
  </diagram>
</mxfile>
